  0
SECTION
  2
HEADER
  9
$ACADVER
  1
AC1015
  9
$HANDSEED
  5
3B0
  9
$LIMMIN
 10
1
 20
1.01
  9
$LIMMAX
 10
51.32
 20
51.33
  9
$MEASUREMENT
 70
1
  0
ENDSEC
  0
SECTION
  2
TABLES
  0
TABLE
  2
VPORT
  5
  1
100
AcDbSymbolTable
  0
ENDTAB
  0
TABLE
  2
LTYPE
  5
  2
100
AcDbSymbolTable
  0
LTYPE
  5
  3
100
AcDbSymbolTableRecord
100
AcDbLinetypeTableRecord
  2
BYBLOCK
 70
     0
  0
LTYPE
  5
  4
100
AcDbSymbolTableRecord
100
AcDbLinetypeTableRecord
  2
BYLAYER
 70
     0
  0
ENDTAB
  0
TABLE
  2
LAYER
  5
 1A
330
  0
100
AcDbSymbolTable
  0
LAYER
  5
3AE
330
 1A
100
AcDbSymbolTableRecord
100
AcDbLayerTableRecord
  2
0
 70
0
 62
7
  6
Continuous
370
-3
390
 19
  0
ENDTAB
  0
TABLE
  2
STYLE
  5
  5
100
AcDbSymbolTable
  0
STYLE
  5
  6
100
AcDbSymbolTableRecord
100
AcDbTextStyleTableRecord
  2
STANDARD
 70
     0
 40
0.0
 41
1.0
 50
0.0
 71
     0
 42
10.0
  3
txt
  4

  0
ENDTAB
  0
TABLE
  2
VIEW
  5
  7
100
AcDbSymbolTable
  0
ENDTAB
  0
TABLE
  2
UCS
  5
  8
100
AcDbSymbolTable
  0
ENDTAB
  0
TABLE
  2
APPID
  5
  9
100
AcDbSymbolTable
  0
APPID
  5
  A
100
AcDbSymbolTableRecord
100
AcDbRegAppTableRecord
  2
ACAD
 70
0
  0
ENDTAB
  0
TABLE
  2
DIMSTYLE
  5
  B
100
AcDbSymbolTable
 70
     1
100
AcDbDimStyleTable
 71
     0
  0
DIMSTYLE
105
 1B
330
B
100
AcDbSymbolTableRecord
100
AcDbDimStyleTableRecord
  2
STANDARD
 70
    0
340
  6
  0
ENDTAB
  0
TABLE
  2
BLOCK_RECORD
  5
  C
100
AcDbSymbolTable
  0
BLOCK_RECORD
  5
  D
100
AcDbSymbolTableRecord
100
AcDbBlockTableRecord
  2
*MODEL_SPACE
  0
BLOCK_RECORD
  5
  E
100
AcDbSymbolTableRecord
100
AcDbBlockTableRecord
  2
*PAPER_SPACE
  0
ENDTAB
  0
ENDSEC
  0
SECTION
  2
BLOCKS
  0
BLOCK
  5
  F
330
  D
100
AcDbEntity
  8
0
100
AcDbBlockBegin
  2
*MODEL_SPACE
 70
     0
  0
ENDBLK
  5
 10
100
AcDbEntity
  8
0
100
AcDbBlockEnd
  0
BLOCK
  5
 11
330
  E
100
AcDbEntity
  8
0
100
AcDbBlockBegin
  2
*PAPER_SPACE
 70
     0
  0
ENDBLK
  5
 12
100
AcDbEntity
  8
0
100
AcDbBlockEnd
  0
ENDSEC
  0
SECTION
  2
ENTITIES
  0
LWPOLYLINE
  5
20
100
AcDbEntity
  8
0
100
AcDbPolyline
 62
4
370
211
 90
2
 70
0
 10
1
 20
26.16
 10
51.32
 20
26.16
  0
LWPOLYLINE
  5
21
100
AcDbEntity
  8
0
100
AcDbPolyline
 62
4
370
211
 90
2
 70
0
 10
26.15
 20
1.01
 10
26.15
 20
51.33
  0
LWPOLYLINE
  5
22
100
AcDbEntity
  8
0
100
AcDbPolyline
 62
7
370
211
 90
2
 70
0
 10
28.85
 20
26.16
 10
28.85
 20
26.16
  0
LWPOLYLINE
  5
23
100
AcDbEntity
  8
0
100
AcDbPolyline
 62
7
370
211
 90
2
 70
0
 10
28.85
 20
26.16
 10
28.85
 20
26.36
  0
LWPOLYLINE
  5
24
100
AcDbEntity
  8
0
100
AcDbPolyline
 62
7
370
211
 90
2
 70
0
 10
28.85
 20
26.36
 10
28.82
 20
26.53
  0
LWPOLYLINE
  5
25
100
AcDbEntity
  8
0
100
AcDbPolyline
 62
7
370
211
 90
2
 70
0
 10
28.82
 20
26.53
 10
28.8
 20
26.73
  0
LWPOLYLINE
  5
26
100
AcDbEntity
  8
0
100
AcDbPolyline
 62
7
370
211
 90
2
 70
0
 10
28.8
 20
26.73
 10
28.75
 20
26.91
  0
LWPOLYLINE
  5
27
100
AcDbEntity
  8
0
100
AcDbPolyline
 62
7
370
211
 90
2
 70
0
 10
28.75
 20
26.91
 10
28.7
 20
27.08
  0
LWPOLYLINE
  5
28
100
AcDbEntity
  8
0
100
AcDbPolyline
 62
7
370
211
 90
2
 70
0
 10
28.7
 20
27.08
 10
28.62
 20
27.26
  0
LWPOLYLINE
  5
29
100
AcDbEntity
  8
0
100
AcDbPolyline
 62
7
370
211
 90
2
 70
0
 10
28.62
 20
27.26
 10
28.55
 20
27.43
  0
LWPOLYLINE
  5
2A
100
AcDbEntity
  8
0
100
AcDbPolyline
 62
7
370
211
 90
2
 70
0
 10
28.55
 20
27.43
 10
28.45
 20
27.58
  0
LWPOLYLINE
  5
2B
100
AcDbEntity
  8
0
100
AcDbPolyline
 62
7
370
211
 90
2
 70
0
 10
28.45
 20
27.58
 10
28.35
 20
27.76
  0
LWPOLYLINE
  5
2C
100
AcDbEntity
  8
0
100
AcDbPolyline
 62
7
370
211
 90
2
 70
0
 10
28.35
 20
27.76
 10
28.22
 20
27.91
  0
LWPOLYLINE
  5
2D
100
AcDbEntity
  8
0
100
AcDbPolyline
 62
7
370
211
 90
2
 70
0
 10
28.22
 20
27.91
 10
28.1
 20
28.03
  0
LWPOLYLINE
  5
2E
100
AcDbEntity
  8
0
100
AcDbPolyline
 62
7
370
211
 90
2
 70
0
 10
28.1
 20
28.03
 10
27.95
 20
28.16
  0
LWPOLYLINE
  5
2F
100
AcDbEntity
  8
0
100
AcDbPolyline
 62
7
370
211
 90
2
 70
0
 10
27.95
 20
28.16
 10
27.82
 20
28.28
  0
LWPOLYLINE
  5
30
100
AcDbEntity
  8
0
100
AcDbPolyline
 62
7
370
211
 90
2
 70
0
 10
27.82
 20
28.28
 10
27.67
 20
28.41
  0
LWPOLYLINE
  5
31
100
AcDbEntity
  8
0
100
AcDbPolyline
 62
7
370
211
 90
2
 70
0
 10
27.67
 20
28.41
 10
27.5
 20
28.51
  0
LWPOLYLINE
  5
32
100
AcDbEntity
  8
0
100
AcDbPolyline
 62
7
370
211
 90
2
 70
0
 10
27.5
 20
28.51
 10
27.35
 20
28.58
  0
LWPOLYLINE
  5
33
100
AcDbEntity
  8
0
100
AcDbPolyline
 62
7
370
211
 90
2
 70
0
 10
27.35
 20
28.58
 10
27.17
 20
28.66
  0
LWPOLYLINE
  5
34
100
AcDbEntity
  8
0
100
AcDbPolyline
 62
7
370
211
 90
2
 70
0
 10
27.17
 20
28.66
 10
27
 20
28.73
  0
LWPOLYLINE
  5
35
100
AcDbEntity
  8
0
100
AcDbPolyline
 62
7
370
211
 90
2
 70
0
 10
27
 20
28.73
 10
26.8
 20
28.78
  0
LWPOLYLINE
  5
36
100
AcDbEntity
  8
0
100
AcDbPolyline
 62
7
370
211
 90
2
 70
0
 10
26.8
 20
28.78
 10
26.62
 20
28.83
  0
LWPOLYLINE
  5
37
100
AcDbEntity
  8
0
100
AcDbPolyline
 62
7
370
211
 90
2
 70
0
 10
26.62
 20
28.83
 10
26.45
 20
28.86
  0
LWPOLYLINE
  5
38
100
AcDbEntity
  8
0
100
AcDbPolyline
 62
7
370
211
 90
2
 70
0
 10
26.45
 20
28.86
 10
26.25
 20
28.86
  0
LWPOLYLINE
  5
39
100
AcDbEntity
  8
0
100
AcDbPolyline
 62
7
370
211
 90
2
 70
0
 10
26.25
 20
28.86
 10
26.05
 20
28.86
  0
LWPOLYLINE
  5
3A
100
AcDbEntity
  8
0
100
AcDbPolyline
 62
7
370
211
 90
2
 70
0
 10
26.05
 20
28.86
 10
25.87
 20
28.86
  0
LWPOLYLINE
  5
3B
100
AcDbEntity
  8
0
100
AcDbPolyline
 62
7
370
211
 90
2
 70
0
 10
25.87
 20
28.86
 10
25.67
 20
28.83
  0
LWPOLYLINE
  5
3C
100
AcDbEntity
  8
0
100
AcDbPolyline
 62
7
370
211
 90
2
 70
0
 10
25.67
 20
28.83
 10
25.5
 20
28.78
  0
LWPOLYLINE
  5
3D
100
AcDbEntity
  8
0
100
AcDbPolyline
 62
7
370
211
 90
2
 70
0
 10
25.5
 20
28.78
 10
25.32
 20
28.73
  0
LWPOLYLINE
  5
3E
100
AcDbEntity
  8
0
100
AcDbPolyline
 62
7
370
211
 90
2
 70
0
 10
25.32
 20
28.73
 10
25.15
 20
28.66
  0
LWPOLYLINE
  5
3F
100
AcDbEntity
  8
0
100
AcDbPolyline
 62
7
370
211
 90
2
 70
0
 10
25.15
 20
28.66
 10
24.97
 20
28.58
  0
LWPOLYLINE
  5
40
100
AcDbEntity
  8
0
100
AcDbPolyline
 62
7
370
211
 90
2
 70
0
 10
24.97
 20
28.58
 10
24.8
 20
28.51
  0
LWPOLYLINE
  5
41
100
AcDbEntity
  8
0
100
AcDbPolyline
 62
7
370
211
 90
2
 70
0
 10
24.8
 20
28.51
 10
24.65
 20
28.41
  0
LWPOLYLINE
  5
42
100
AcDbEntity
  8
0
100
AcDbPolyline
 62
7
370
211
 90
2
 70
0
 10
24.65
 20
28.41
 10
24.5
 20
28.28
  0
LWPOLYLINE
  5
43
100
AcDbEntity
  8
0
100
AcDbPolyline
 62
7
370
211
 90
2
 70
0
 10
24.5
 20
28.28
 10
24.35
 20
28.16
  0
LWPOLYLINE
  5
44
100
AcDbEntity
  8
0
100
AcDbPolyline
 62
7
370
211
 90
2
 70
0
 10
24.35
 20
28.16
 10
24.22
 20
28.03
  0
LWPOLYLINE
  5
45
100
AcDbEntity
  8
0
100
AcDbPolyline
 62
7
370
211
 90
2
 70
0
 10
24.22
 20
28.03
 10
24.07
 20
27.91
  0
LWPOLYLINE
  5
46
100
AcDbEntity
  8
0
100
AcDbPolyline
 62
7
370
211
 90
2
 70
0
 10
24.07
 20
27.91
 10
23.97
 20
27.76
  0
LWPOLYLINE
  5
47
100
AcDbEntity
  8
0
100
AcDbPolyline
 62
7
370
211
 90
2
 70
0
 10
23.97
 20
27.76
 10
23.87
 20
27.58
  0
LWPOLYLINE
  5
48
100
AcDbEntity
  8
0
100
AcDbPolyline
 62
7
370
211
 90
2
 70
0
 10
23.87
 20
27.58
 10
23.77
 20
27.43
  0
LWPOLYLINE
  5
49
100
AcDbEntity
  8
0
100
AcDbPolyline
 62
7
370
211
 90
2
 70
0
 10
23.77
 20
27.43
 10
23.7
 20
27.26
  0
LWPOLYLINE
  5
4A
100
AcDbEntity
  8
0
100
AcDbPolyline
 62
7
370
211
 90
2
 70
0
 10
23.7
 20
27.26
 10
23.62
 20
27.08
  0
LWPOLYLINE
  5
4B
100
AcDbEntity
  8
0
100
AcDbPolyline
 62
7
370
211
 90
2
 70
0
 10
23.62
 20
27.08
 10
23.55
 20
26.91
  0
LWPOLYLINE
  5
4C
100
AcDbEntity
  8
0
100
AcDbPolyline
 62
7
370
211
 90
2
 70
0
 10
23.55
 20
26.91
 10
23.52
 20
26.73
  0
LWPOLYLINE
  5
4D
100
AcDbEntity
  8
0
100
AcDbPolyline
 62
7
370
211
 90
2
 70
0
 10
23.52
 20
26.73
 10
23.47
 20
26.53
  0
LWPOLYLINE
  5
4E
100
AcDbEntity
  8
0
100
AcDbPolyline
 62
7
370
211
 90
2
 70
0
 10
23.47
 20
26.53
 10
23.45
 20
26.36
  0
LWPOLYLINE
  5
4F
100
AcDbEntity
  8
0
100
AcDbPolyline
 62
7
370
211
 90
2
 70
0
 10
23.45
 20
26.36
 10
23.45
 20
26.16
  0
LWPOLYLINE
  5
50
100
AcDbEntity
  8
0
100
AcDbPolyline
 62
7
370
211
 90
2
 70
0
 10
23.45
 20
26.16
 10
23.45
 20
25.98
  0
LWPOLYLINE
  5
51
100
AcDbEntity
  8
0
100
AcDbPolyline
 62
7
370
211
 90
2
 70
0
 10
23.45
 20
25.98
 10
23.47
 20
25.78
  0
LWPOLYLINE
  5
52
100
AcDbEntity
  8
0
100
AcDbPolyline
 62
7
370
211
 90
2
 70
0
 10
23.47
 20
25.78
 10
23.52
 20
25.61
  0
LWPOLYLINE
  5
53
100
AcDbEntity
  8
0
100
AcDbPolyline
 62
7
370
211
 90
2
 70
0
 10
23.52
 20
25.61
 10
23.55
 20
25.41
  0
LWPOLYLINE
  5
54
100
AcDbEntity
  8
0
100
AcDbPolyline
 62
7
370
211
 90
2
 70
0
 10
23.55
 20
25.41
 10
23.62
 20
25.23
  0
LWPOLYLINE
  5
55
100
AcDbEntity
  8
0
100
AcDbPolyline
 62
7
370
211
 90
2
 70
0
 10
23.62
 20
25.23
 10
23.7
 20
25.06
  0
LWPOLYLINE
  5
56
100
AcDbEntity
  8
0
100
AcDbPolyline
 62
7
370
211
 90
2
 70
0
 10
23.7
 20
25.06
 10
23.77
 20
24.91
  0
LWPOLYLINE
  5
57
100
AcDbEntity
  8
0
100
AcDbPolyline
 62
7
370
211
 90
2
 70
0
 10
23.77
 20
24.91
 10
23.87
 20
24.73
  0
LWPOLYLINE
  5
58
100
AcDbEntity
  8
0
100
AcDbPolyline
 62
7
370
211
 90
2
 70
0
 10
23.87
 20
24.73
 10
23.97
 20
24.58
  0
LWPOLYLINE
  5
59
100
AcDbEntity
  8
0
100
AcDbPolyline
 62
7
370
211
 90
2
 70
0
 10
23.97
 20
24.58
 10
24.07
 20
24.43
  0
LWPOLYLINE
  5
5A
100
AcDbEntity
  8
0
100
AcDbPolyline
 62
7
370
211
 90
2
 70
0
 10
24.07
 20
24.43
 10
24.22
 20
24.28
  0
LWPOLYLINE
  5
5B
100
AcDbEntity
  8
0
100
AcDbPolyline
 62
7
370
211
 90
2
 70
0
 10
24.22
 20
24.28
 10
24.35
 20
24.16
  0
LWPOLYLINE
  5
5C
100
AcDbEntity
  8
0
100
AcDbPolyline
 62
7
370
211
 90
2
 70
0
 10
24.35
 20
24.16
 10
24.5
 20
24.03
  0
LWPOLYLINE
  5
5D
100
AcDbEntity
  8
0
100
AcDbPolyline
 62
7
370
211
 90
2
 70
0
 10
24.5
 20
24.03
 10
24.65
 20
23.93
  0
LWPOLYLINE
  5
5E
100
AcDbEntity
  8
0
100
AcDbPolyline
 62
7
370
211
 90
2
 70
0
 10
24.65
 20
23.93
 10
24.8
 20
23.83
  0
LWPOLYLINE
  5
5F
100
AcDbEntity
  8
0
100
AcDbPolyline
 62
7
370
211
 90
2
 70
0
 10
24.8
 20
23.83
 10
24.97
 20
23.73
  0
LWPOLYLINE
  5
60
100
AcDbEntity
  8
0
100
AcDbPolyline
 62
7
370
211
 90
2
 70
0
 10
24.97
 20
23.73
 10
25.15
 20
23.66
  0
LWPOLYLINE
  5
61
100
AcDbEntity
  8
0
100
AcDbPolyline
 62
7
370
211
 90
2
 70
0
 10
25.15
 20
23.66
 10
25.32
 20
23.61
  0
LWPOLYLINE
  5
62
100
AcDbEntity
  8
0
100
AcDbPolyline
 62
7
370
211
 90
2
 70
0
 10
25.32
 20
23.61
 10
25.5
 20
23.53
  0
LWPOLYLINE
  5
63
100
AcDbEntity
  8
0
100
AcDbPolyline
 62
7
370
211
 90
2
 70
0
 10
25.5
 20
23.53
 10
25.67
 20
23.51
  0
LWPOLYLINE
  5
64
100
AcDbEntity
  8
0
100
AcDbPolyline
 62
7
370
211
 90
2
 70
0
 10
25.67
 20
23.51
 10
25.87
 20
23.48
  0
LWPOLYLINE
  5
65
100
AcDbEntity
  8
0
100
AcDbPolyline
 62
7
370
211
 90
2
 70
0
 10
25.87
 20
23.48
 10
26.05
 20
23.46
  0
LWPOLYLINE
  5
66
100
AcDbEntity
  8
0
100
AcDbPolyline
 62
7
370
211
 90
2
 70
0
 10
26.05
 20
23.46
 10
26.25
 20
23.46
  0
LWPOLYLINE
  5
67
100
AcDbEntity
  8
0
100
AcDbPolyline
 62
7
370
211
 90
2
 70
0
 10
26.25
 20
23.46
 10
26.45
 20
23.48
  0
LWPOLYLINE
  5
68
100
AcDbEntity
  8
0
100
AcDbPolyline
 62
7
370
211
 90
2
 70
0
 10
26.45
 20
23.48
 10
26.62
 20
23.51
  0
LWPOLYLINE
  5
69
100
AcDbEntity
  8
0
100
AcDbPolyline
 62
7
370
211
 90
2
 70
0
 10
26.62
 20
23.51
 10
26.8
 20
23.53
  0
LWPOLYLINE
  5
6A
100
AcDbEntity
  8
0
100
AcDbPolyline
 62
7
370
211
 90
2
 70
0
 10
26.8
 20
23.53
 10
27
 20
23.61
  0
LWPOLYLINE
  5
6B
100
AcDbEntity
  8
0
100
AcDbPolyline
 62
7
370
211
 90
2
 70
0
 10
27
 20
23.61
 10
27.17
 20
23.66
  0
LWPOLYLINE
  5
6C
100
AcDbEntity
  8
0
100
AcDbPolyline
 62
7
370
211
 90
2
 70
0
 10
27.17
 20
23.66
 10
27.35
 20
23.73
  0
LWPOLYLINE
  5
6D
100
AcDbEntity
  8
0
100
AcDbPolyline
 62
7
370
211
 90
2
 70
0
 10
27.35
 20
23.73
 10
27.5
 20
23.83
  0
LWPOLYLINE
  5
6E
100
AcDbEntity
  8
0
100
AcDbPolyline
 62
7
370
211
 90
2
 70
0
 10
27.5
 20
23.83
 10
27.67
 20
23.93
  0
LWPOLYLINE
  5
6F
100
AcDbEntity
  8
0
100
AcDbPolyline
 62
7
370
211
 90
2
 70
0
 10
27.67
 20
23.93
 10
27.82
 20
24.03
  0
LWPOLYLINE
  5
70
100
AcDbEntity
  8
0
100
AcDbPolyline
 62
7
370
211
 90
2
 70
0
 10
27.82
 20
24.03
 10
27.95
 20
24.16
  0
LWPOLYLINE
  5
71
100
AcDbEntity
  8
0
100
AcDbPolyline
 62
7
370
211
 90
2
 70
0
 10
27.95
 20
24.16
 10
28.1
 20
24.28
  0
LWPOLYLINE
  5
72
100
AcDbEntity
  8
0
100
AcDbPolyline
 62
7
370
211
 90
2
 70
0
 10
28.1
 20
24.28
 10
28.22
 20
24.43
  0
LWPOLYLINE
  5
73
100
AcDbEntity
  8
0
100
AcDbPolyline
 62
7
370
211
 90
2
 70
0
 10
28.22
 20
24.43
 10
28.35
 20
24.58
  0
LWPOLYLINE
  5
74
100
AcDbEntity
  8
0
100
AcDbPolyline
 62
7
370
211
 90
2
 70
0
 10
28.35
 20
24.58
 10
28.45
 20
24.73
  0
LWPOLYLINE
  5
75
100
AcDbEntity
  8
0
100
AcDbPolyline
 62
7
370
211
 90
2
 70
0
 10
28.45
 20
24.73
 10
28.55
 20
24.91
  0
LWPOLYLINE
  5
76
100
AcDbEntity
  8
0
100
AcDbPolyline
 62
7
370
211
 90
2
 70
0
 10
28.55
 20
24.91
 10
28.62
 20
25.06
  0
LWPOLYLINE
  5
77
100
AcDbEntity
  8
0
100
AcDbPolyline
 62
7
370
211
 90
2
 70
0
 10
28.62
 20
25.06
 10
28.7
 20
25.23
  0
LWPOLYLINE
  5
78
100
AcDbEntity
  8
0
100
AcDbPolyline
 62
7
370
211
 90
2
 70
0
 10
28.7
 20
25.23
 10
28.75
 20
25.41
  0
LWPOLYLINE
  5
79
100
AcDbEntity
  8
0
100
AcDbPolyline
 62
7
370
211
 90
2
 70
0
 10
28.75
 20
25.41
 10
28.8
 20
25.61
  0
LWPOLYLINE
  5
7A
100
AcDbEntity
  8
0
100
AcDbPolyline
 62
7
370
211
 90
2
 70
0
 10
28.8
 20
25.61
 10
28.82
 20
25.78
  0
LWPOLYLINE
  5
7B
100
AcDbEntity
  8
0
100
AcDbPolyline
 62
7
370
211
 90
2
 70
0
 10
28.82
 20
25.78
 10
28.85
 20
25.98
  0
LWPOLYLINE
  5
7C
100
AcDbEntity
  8
0
100
AcDbPolyline
 62
7
370
211
 90
2
 70
0
 10
28.85
 20
25.98
 10
28.85
 20
26.16
  0
LWPOLYLINE
  5
7D
100
AcDbEntity
  8
0
100
AcDbPolyline
 62
7
370
211
 90
2
 70
0
 10
46.42
 20
30.21
 10
46.65
 20
28.81
  0
LWPOLYLINE
  5
7E
100
AcDbEntity
  8
0
100
AcDbPolyline
 62
7
370
211
 90
2
 70
0
 10
46.65
 20
28.81
 10
46.87
 20
28.83
  0
LWPOLYLINE
  5
7F
100
AcDbEntity
  8
0
100
AcDbPolyline
 62
7
370
211
 90
2
 70
0
 10
46.87
 20
28.83
 10
47.1
 20
28.81
  0
LWPOLYLINE
  5
80
100
AcDbEntity
  8
0
100
AcDbPolyline
 62
7
370
211
 90
2
 70
0
 10
47.1
 20
28.81
 10
47.32
 20
28.81
  0
LWPOLYLINE
  5
81
100
AcDbEntity
  8
0
100
AcDbPolyline
 62
7
370
211
 90
2
 70
0
 10
47.32
 20
28.81
 10
47.57
 20
28.78
  0
LWPOLYLINE
  5
82
100
AcDbEntity
  8
0
100
AcDbPolyline
 62
7
370
211
 90
2
 70
0
 10
47.57
 20
28.78
 10
47.8
 20
28.73
  0
LWPOLYLINE
  5
83
100
AcDbEntity
  8
0
100
AcDbPolyline
 62
7
370
211
 90
2
 70
0
 10
47.8
 20
28.73
 10
48.02
 20
28.68
  0
LWPOLYLINE
  5
84
100
AcDbEntity
  8
0
100
AcDbPolyline
 62
7
370
211
 90
2
 70
0
 10
48.02
 20
28.68
 10
48.25
 20
28.63
  0
LWPOLYLINE
  5
85
100
AcDbEntity
  8
0
100
AcDbPolyline
 62
7
370
211
 90
2
 70
0
 10
48.25
 20
28.63
 10
48.5
 20
28.56
  0
LWPOLYLINE
  5
86
100
AcDbEntity
  8
0
100
AcDbPolyline
 62
7
370
211
 90
2
 70
0
 10
48.5
 20
28.56
 10
48.72
 20
28.48
  0
LWPOLYLINE
  5
87
100
AcDbEntity
  8
0
100
AcDbPolyline
 62
7
370
211
 90
2
 70
0
 10
48.72
 20
28.48
 10
48.97
 20
28.41
  0
LWPOLYLINE
  5
88
100
AcDbEntity
  8
0
100
AcDbPolyline
 62
7
370
211
 90
2
 70
0
 10
48.97
 20
28.41
 10
49.2
 20
28.33
  0
LWPOLYLINE
  5
89
100
AcDbEntity
  8
0
100
AcDbPolyline
 62
7
370
211
 90
2
 70
0
 10
49.2
 20
28.33
 10
49.42
 20
28.23
  0
LWPOLYLINE
  5
8A
100
AcDbEntity
  8
0
100
AcDbPolyline
 62
7
370
211
 90
2
 70
0
 10
49.42
 20
28.23
 10
49.67
 20
28.13
  0
LWPOLYLINE
  5
8B
100
AcDbEntity
  8
0
100
AcDbPolyline
 62
7
370
211
 90
2
 70
0
 10
49.67
 20
28.13
 10
49.9
 20
28.03
  0
LWPOLYLINE
  5
8C
100
AcDbEntity
  8
0
100
AcDbPolyline
 62
7
370
211
 90
2
 70
0
 10
49.9
 20
28.03
 10
50.12
 20
27.91
  0
LWPOLYLINE
  5
8D
100
AcDbEntity
  8
0
100
AcDbPolyline
 62
7
370
211
 90
2
 70
0
 10
50.12
 20
27.91
 10
50.37
 20
27.81
  0
LWPOLYLINE
  5
8E
100
AcDbEntity
  8
0
100
AcDbPolyline
 62
7
370
211
 90
2
 70
0
 10
50.37
 20
27.81
 10
50.6
 20
27.68
  0
LWPOLYLINE
  5
8F
100
AcDbEntity
  8
0
100
AcDbPolyline
 62
7
370
211
 90
2
 70
0
 10
50.6
 20
27.68
 10
50.82
 20
27.56
  0
LWPOLYLINE
  5
90
100
AcDbEntity
  8
0
100
AcDbPolyline
 62
7
370
211
 90
2
 70
0
 10
50.82
 20
27.56
 10
51.07
 20
27.41
  0
LWPOLYLINE
  5
91
100
AcDbEntity
  8
0
100
AcDbPolyline
 62
7
370
211
 90
2
 70
0
 10
51.07
 20
27.41
 10
51.3
 20
27.26
  0
LWPOLYLINE
  5
92
100
AcDbEntity
  8
0
100
AcDbPolyline
 62
7
370
211
 90
2
 70
0
 10
51.3
 20
27.26
 10
51.3
 20
25.06
  0
LWPOLYLINE
  5
93
100
AcDbEntity
  8
0
100
AcDbPolyline
 62
7
370
211
 90
2
 70
0
 10
51.3
 20
25.06
 10
51.07
 20
24.91
  0
LWPOLYLINE
  5
94
100
AcDbEntity
  8
0
100
AcDbPolyline
 62
7
370
211
 90
2
 70
0
 10
51.07
 20
24.91
 10
50.82
 20
24.78
  0
LWPOLYLINE
  5
95
100
AcDbEntity
  8
0
100
AcDbPolyline
 62
7
370
211
 90
2
 70
0
 10
50.82
 20
24.78
 10
50.6
 20
24.66
  0
LWPOLYLINE
  5
96
100
AcDbEntity
  8
0
100
AcDbPolyline
 62
7
370
211
 90
2
 70
0
 10
50.6
 20
24.66
 10
50.37
 20
24.53
  0
LWPOLYLINE
  5
97
100
AcDbEntity
  8
0
100
AcDbPolyline
 62
7
370
211
 90
2
 70
0
 10
50.37
 20
24.53
 10
50.12
 20
24.41
  0
LWPOLYLINE
  5
98
100
AcDbEntity
  8
0
100
AcDbPolyline
 62
7
370
211
 90
2
 70
0
 10
50.12
 20
24.41
 10
49.9
 20
24.31
  0
LWPOLYLINE
  5
99
100
AcDbEntity
  8
0
100
AcDbPolyline
 62
7
370
211
 90
2
 70
0
 10
49.9
 20
24.31
 10
49.67
 20
24.18
  0
LWPOLYLINE
  5
9A
100
AcDbEntity
  8
0
100
AcDbPolyline
 62
7
370
211
 90
2
 70
0
 10
49.67
 20
24.18
 10
49.42
 20
24.11
  0
LWPOLYLINE
  5
9B
100
AcDbEntity
  8
0
100
AcDbPolyline
 62
7
370
211
 90
2
 70
0
 10
49.42
 20
24.11
 10
49.2
 20
24.01
  0
LWPOLYLINE
  5
9C
100
AcDbEntity
  8
0
100
AcDbPolyline
 62
7
370
211
 90
2
 70
0
 10
49.2
 20
24.01
 10
48.97
 20
23.91
  0
LWPOLYLINE
  5
9D
100
AcDbEntity
  8
0
100
AcDbPolyline
 62
7
370
211
 90
2
 70
0
 10
48.97
 20
23.91
 10
48.72
 20
23.83
  0
LWPOLYLINE
  5
9E
100
AcDbEntity
  8
0
100
AcDbPolyline
 62
7
370
211
 90
2
 70
0
 10
48.72
 20
23.83
 10
48.5
 20
23.76
  0
LWPOLYLINE
  5
9F
100
AcDbEntity
  8
0
100
AcDbPolyline
 62
7
370
211
 90
2
 70
0
 10
48.5
 20
23.76
 10
48.25
 20
23.71
  0
LWPOLYLINE
  5
A0
100
AcDbEntity
  8
0
100
AcDbPolyline
 62
7
370
211
 90
2
 70
0
 10
48.25
 20
23.71
 10
48.02
 20
23.63
  0
LWPOLYLINE
  5
A1
100
AcDbEntity
  8
0
100
AcDbPolyline
 62
7
370
211
 90
2
 70
0
 10
48.02
 20
23.63
 10
47.8
 20
23.61
  0
LWPOLYLINE
  5
A2
100
AcDbEntity
  8
0
100
AcDbPolyline
 62
7
370
211
 90
2
 70
0
 10
47.8
 20
23.61
 10
47.57
 20
23.56
  0
LWPOLYLINE
  5
A3
100
AcDbEntity
  8
0
100
AcDbPolyline
 62
7
370
211
 90
2
 70
0
 10
47.57
 20
23.56
 10
47.32
 20
23.53
  0
LWPOLYLINE
  5
A4
100
AcDbEntity
  8
0
100
AcDbPolyline
 62
7
370
211
 90
2
 70
0
 10
47.32
 20
23.53
 10
47.1
 20
23.51
  0
LWPOLYLINE
  5
A5
100
AcDbEntity
  8
0
100
AcDbPolyline
 62
7
370
211
 90
2
 70
0
 10
47.1
 20
23.51
 10
46.87
 20
23.51
  0
LWPOLYLINE
  5
A6
100
AcDbEntity
  8
0
100
AcDbPolyline
 62
7
370
211
 90
2
 70
0
 10
46.87
 20
23.51
 10
46.65
 20
23.53
  0
LWPOLYLINE
  5
A7
100
AcDbEntity
  8
0
100
AcDbPolyline
 62
7
370
211
 90
2
 70
0
 10
46.65
 20
23.53
 10
46.42
 20
22.13
  0
LWPOLYLINE
  5
A8
100
AcDbEntity
  8
0
100
AcDbPolyline
 62
7
370
211
 90
2
 70
0
 10
46.42
 20
22.13
 10
46.42
 20
22.13
  0
LWPOLYLINE
  5
A9
100
AcDbEntity
  8
0
100
AcDbPolyline
 62
7
370
211
 90
2
 70
0
 10
46.42
 20
22.13
 10
46.1
 20
20.76
  0
LWPOLYLINE
  5
AA
100
AcDbEntity
  8
0
100
AcDbPolyline
 62
7
370
211
 90
2
 70
0
 10
46.1
 20
20.76
 10
46.32
 20
20.68
  0
LWPOLYLINE
  5
AB
100
AcDbEntity
  8
0
100
AcDbPolyline
 62
7
370
211
 90
2
 70
0
 10
46.32
 20
20.68
 10
46.52
 20
20.61
  0
LWPOLYLINE
  5
AC
100
AcDbEntity
  8
0
100
AcDbPolyline
 62
7
370
211
 90
2
 70
0
 10
46.52
 20
20.61
 10
46.72
 20
20.48
  0
LWPOLYLINE
  5
AD
100
AcDbEntity
  8
0
100
AcDbPolyline
 62
7
370
211
 90
2
 70
0
 10
46.72
 20
20.48
 10
46.92
 20
20.38
  0
LWPOLYLINE
  5
AE
100
AcDbEntity
  8
0
100
AcDbPolyline
 62
7
370
211
 90
2
 70
0
 10
46.92
 20
20.38
 10
47.12
 20
20.26
  0
LWPOLYLINE
  5
AF
100
AcDbEntity
  8
0
100
AcDbPolyline
 62
7
370
211
 90
2
 70
0
 10
47.12
 20
20.26
 10
47.32
 20
20.11
  0
LWPOLYLINE
  5
B0
100
AcDbEntity
  8
0
100
AcDbPolyline
 62
7
370
211
 90
2
 70
0
 10
47.32
 20
20.11
 10
47.52
 20
19.98
  0
LWPOLYLINE
  5
B1
100
AcDbEntity
  8
0
100
AcDbPolyline
 62
7
370
211
 90
2
 70
0
 10
47.52
 20
19.98
 10
47.72
 20
19.83
  0
LWPOLYLINE
  5
B2
100
AcDbEntity
  8
0
100
AcDbPolyline
 62
7
370
211
 90
2
 70
0
 10
47.72
 20
19.83
 10
47.9
 20
19.68
  0
LWPOLYLINE
  5
B3
100
AcDbEntity
  8
0
100
AcDbPolyline
 62
7
370
211
 90
2
 70
0
 10
47.9
 20
19.68
 10
48.07
 20
19.51
  0
LWPOLYLINE
  5
B4
100
AcDbEntity
  8
0
100
AcDbPolyline
 62
7
370
211
 90
2
 70
0
 10
48.07
 20
19.51
 10
48.27
 20
19.33
  0
LWPOLYLINE
  5
B5
100
AcDbEntity
  8
0
100
AcDbPolyline
 62
7
370
211
 90
2
 70
0
 10
48.27
 20
19.33
 10
48.45
 20
19.16
  0
LWPOLYLINE
  5
B6
100
AcDbEntity
  8
0
100
AcDbPolyline
 62
7
370
211
 90
2
 70
0
 10
48.45
 20
19.16
 10
48.62
 20
18.98
  0
LWPOLYLINE
  5
B7
100
AcDbEntity
  8
0
100
AcDbPolyline
 62
7
370
211
 90
2
 70
0
 10
48.62
 20
18.98
 10
48.8
 20
18.81
  0
LWPOLYLINE
  5
B8
100
AcDbEntity
  8
0
100
AcDbPolyline
 62
7
370
211
 90
2
 70
0
 10
48.8
 20
18.81
 10
48.97
 20
18.61
  0
LWPOLYLINE
  5
B9
100
AcDbEntity
  8
0
100
AcDbPolyline
 62
7
370
211
 90
2
 70
0
 10
48.97
 20
18.61
 10
49.15
 20
18.41
  0
LWPOLYLINE
  5
BA
100
AcDbEntity
  8
0
100
AcDbPolyline
 62
7
370
211
 90
2
 70
0
 10
49.15
 20
18.41
 10
49.32
 20
18.21
  0
LWPOLYLINE
  5
BB
100
AcDbEntity
  8
0
100
AcDbPolyline
 62
7
370
211
 90
2
 70
0
 10
49.32
 20
18.21
 10
49.47
 20
18.01
  0
LWPOLYLINE
  5
BC
100
AcDbEntity
  8
0
100
AcDbPolyline
 62
7
370
211
 90
2
 70
0
 10
49.47
 20
18.01
 10
49.65
 20
17.78
  0
LWPOLYLINE
  5
BD
100
AcDbEntity
  8
0
100
AcDbPolyline
 62
7
370
211
 90
2
 70
0
 10
49.65
 20
17.78
 10
49.8
 20
17.56
  0
LWPOLYLINE
  5
BE
100
AcDbEntity
  8
0
100
AcDbPolyline
 62
7
370
211
 90
2
 70
0
 10
49.8
 20
17.56
 10
48.95
 20
15.51
  0
LWPOLYLINE
  5
BF
100
AcDbEntity
  8
0
100
AcDbPolyline
 62
7
370
211
 90
2
 70
0
 10
48.95
 20
15.51
 10
48.7
 20
15.48
  0
LWPOLYLINE
  5
C0
100
AcDbEntity
  8
0
100
AcDbPolyline
 62
7
370
211
 90
2
 70
0
 10
48.7
 20
15.48
 10
48.42
 20
15.43
  0
LWPOLYLINE
  5
C1
100
AcDbEntity
  8
0
100
AcDbPolyline
 62
7
370
211
 90
2
 70
0
 10
48.42
 20
15.43
 10
48.17
 20
15.41
  0
LWPOLYLINE
  5
C2
100
AcDbEntity
  8
0
100
AcDbPolyline
 62
7
370
211
 90
2
 70
0
 10
48.17
 20
15.41
 10
47.9
 20
15.38
  0
LWPOLYLINE
  5
C3
100
AcDbEntity
  8
0
100
AcDbPolyline
 62
7
370
211
 90
2
 70
0
 10
47.9
 20
15.38
 10
47.65
 20
15.36
  0
LWPOLYLINE
  5
C4
100
AcDbEntity
  8
0
100
AcDbPolyline
 62
7
370
211
 90
2
 70
0
 10
47.65
 20
15.36
 10
47.37
 20
15.36
  0
LWPOLYLINE
  5
C5
100
AcDbEntity
  8
0
100
AcDbPolyline
 62
7
370
211
 90
2
 70
0
 10
47.37
 20
15.36
 10
47.12
 20
15.36
  0
LWPOLYLINE
  5
C6
100
AcDbEntity
  8
0
100
AcDbPolyline
 62
7
370
211
 90
2
 70
0
 10
47.12
 20
15.36
 10
46.87
 20
15.33
  0
LWPOLYLINE
  5
C7
100
AcDbEntity
  8
0
100
AcDbPolyline
 62
7
370
211
 90
2
 70
0
 10
46.87
 20
15.33
 10
46.62
 20
15.36
  0
LWPOLYLINE
  5
C8
100
AcDbEntity
  8
0
100
AcDbPolyline
 62
7
370
211
 90
2
 70
0
 10
46.62
 20
15.36
 10
46.37
 20
15.36
  0
LWPOLYLINE
  5
C9
100
AcDbEntity
  8
0
100
AcDbPolyline
 62
7
370
211
 90
2
 70
0
 10
46.37
 20
15.36
 10
46.12
 20
15.38
  0
LWPOLYLINE
  5
CA
100
AcDbEntity
  8
0
100
AcDbPolyline
 62
7
370
211
 90
2
 70
0
 10
46.12
 20
15.38
 10
45.87
 20
15.41
  0
LWPOLYLINE
  5
CB
100
AcDbEntity
  8
0
100
AcDbPolyline
 62
7
370
211
 90
2
 70
0
 10
45.87
 20
15.41
 10
45.65
 20
15.43
  0
LWPOLYLINE
  5
CC
100
AcDbEntity
  8
0
100
AcDbPolyline
 62
7
370
211
 90
2
 70
0
 10
45.65
 20
15.43
 10
45.4
 20
15.46
  0
LWPOLYLINE
  5
CD
100
AcDbEntity
  8
0
100
AcDbPolyline
 62
7
370
211
 90
2
 70
0
 10
45.4
 20
15.46
 10
45.17
 20
15.51
  0
LWPOLYLINE
  5
CE
100
AcDbEntity
  8
0
100
AcDbPolyline
 62
7
370
211
 90
2
 70
0
 10
45.17
 20
15.51
 10
44.95
 20
15.56
  0
LWPOLYLINE
  5
CF
100
AcDbEntity
  8
0
100
AcDbPolyline
 62
7
370
211
 90
2
 70
0
 10
44.95
 20
15.56
 10
44.72
 20
15.63
  0
LWPOLYLINE
  5
D0
100
AcDbEntity
  8
0
100
AcDbPolyline
 62
7
370
211
 90
2
 70
0
 10
44.72
 20
15.63
 10
44.5
 20
15.68
  0
LWPOLYLINE
  5
D1
100
AcDbEntity
  8
0
100
AcDbPolyline
 62
7
370
211
 90
2
 70
0
 10
44.5
 20
15.68
 10
44.27
 20
15.78
  0
LWPOLYLINE
  5
D2
100
AcDbEntity
  8
0
100
AcDbPolyline
 62
7
370
211
 90
2
 70
0
 10
44.27
 20
15.78
 10
44.07
 20
15.88
  0
LWPOLYLINE
  5
D3
100
AcDbEntity
  8
0
100
AcDbPolyline
 62
7
370
211
 90
2
 70
0
 10
44.07
 20
15.88
 10
43.35
 20
14.68
  0
LWPOLYLINE
  5
D4
100
AcDbEntity
  8
0
100
AcDbPolyline
 62
7
370
211
 90
2
 70
0
 10
43.35
 20
14.68
 10
43.35
 20
14.68
  0
LWPOLYLINE
  5
D5
100
AcDbEntity
  8
0
100
AcDbPolyline
 62
7
370
211
 90
2
 70
0
 10
43.35
 20
14.68
 10
42.52
 20
13.53
  0
LWPOLYLINE
  5
D6
100
AcDbEntity
  8
0
100
AcDbPolyline
 62
7
370
211
 90
2
 70
0
 10
42.52
 20
13.53
 10
42.7
 20
13.38
  0
LWPOLYLINE
  5
D7
100
AcDbEntity
  8
0
100
AcDbPolyline
 62
7
370
211
 90
2
 70
0
 10
42.7
 20
13.38
 10
42.85
 20
13.23
  0
LWPOLYLINE
  5
D8
100
AcDbEntity
  8
0
100
AcDbPolyline
 62
7
370
211
 90
2
 70
0
 10
42.85
 20
13.23
 10
43
 20
13.06
  0
LWPOLYLINE
  5
D9
100
AcDbEntity
  8
0
100
AcDbPolyline
 62
7
370
211
 90
2
 70
0
 10
43
 20
13.06
 10
43.15
 20
12.86
  0
LWPOLYLINE
  5
DA
100
AcDbEntity
  8
0
100
AcDbPolyline
 62
7
370
211
 90
2
 70
0
 10
43.15
 20
12.86
 10
43.27
 20
12.68
  0
LWPOLYLINE
  5
DB
100
AcDbEntity
  8
0
100
AcDbPolyline
 62
7
370
211
 90
2
 70
0
 10
43.27
 20
12.68
 10
43.4
 20
12.48
  0
LWPOLYLINE
  5
DC
100
AcDbEntity
  8
0
100
AcDbPolyline
 62
7
370
211
 90
2
 70
0
 10
43.4
 20
12.48
 10
43.52
 20
12.28
  0
LWPOLYLINE
  5
DD
100
AcDbEntity
  8
0
100
AcDbPolyline
 62
7
370
211
 90
2
 70
0
 10
43.52
 20
12.28
 10
43.65
 20
12.06
  0
LWPOLYLINE
  5
DE
100
AcDbEntity
  8
0
100
AcDbPolyline
 62
7
370
211
 90
2
 70
0
 10
43.65
 20
12.06
 10
43.75
 20
11.86
  0
LWPOLYLINE
  5
DF
100
AcDbEntity
  8
0
100
AcDbPolyline
 62
7
370
211
 90
2
 70
0
 10
43.75
 20
11.86
 10
43.87
 20
11.63
  0
LWPOLYLINE
  5
E0
100
AcDbEntity
  8
0
100
AcDbPolyline
 62
7
370
211
 90
2
 70
0
 10
43.87
 20
11.63
 10
43.97
 20
11.41
  0
LWPOLYLINE
  5
E1
100
AcDbEntity
  8
0
100
AcDbPolyline
 62
7
370
211
 90
2
 70
0
 10
43.97
 20
11.41
 10
44.07
 20
11.16
  0
LWPOLYLINE
  5
E2
100
AcDbEntity
  8
0
100
AcDbPolyline
 62
7
370
211
 90
2
 70
0
 10
44.07
 20
11.16
 10
44.17
 20
10.93
  0
LWPOLYLINE
  5
E3
100
AcDbEntity
  8
0
100
AcDbPolyline
 62
7
370
211
 90
2
 70
0
 10
44.17
 20
10.93
 10
44.27
 20
10.68
  0
LWPOLYLINE
  5
E4
100
AcDbEntity
  8
0
100
AcDbPolyline
 62
7
370
211
 90
2
 70
0
 10
44.27
 20
10.68
 10
44.35
 20
10.46
  0
LWPOLYLINE
  5
E5
100
AcDbEntity
  8
0
100
AcDbPolyline
 62
7
370
211
 90
2
 70
0
 10
44.35
 20
10.46
 10
44.42
 20
10.21
  0
LWPOLYLINE
  5
E6
100
AcDbEntity
  8
0
100
AcDbPolyline
 62
7
370
211
 90
2
 70
0
 10
44.42
 20
10.21
 10
44.5
 20
9.96
  0
LWPOLYLINE
  5
E7
100
AcDbEntity
  8
0
100
AcDbPolyline
 62
7
370
211
 90
2
 70
0
 10
44.5
 20
9.96
 10
44.57
 20
9.68
  0
LWPOLYLINE
  5
E8
100
AcDbEntity
  8
0
100
AcDbPolyline
 62
7
370
211
 90
2
 70
0
 10
44.57
 20
9.68
 10
44.65
 20
9.43
  0
LWPOLYLINE
  5
E9
100
AcDbEntity
  8
0
100
AcDbPolyline
 62
7
370
211
 90
2
 70
0
 10
44.65
 20
9.43
 10
44.72
 20
9.16
  0
LWPOLYLINE
  5
EA
100
AcDbEntity
  8
0
100
AcDbPolyline
 62
7
370
211
 90
2
 70
0
 10
44.72
 20
9.16
 10
43.15
 20
7.61
  0
LWPOLYLINE
  5
EB
100
AcDbEntity
  8
0
100
AcDbPolyline
 62
7
370
211
 90
2
 70
0
 10
43.15
 20
7.61
 10
42.9
 20
7.66
  0
LWPOLYLINE
  5
EC
100
AcDbEntity
  8
0
100
AcDbPolyline
 62
7
370
211
 90
2
 70
0
 10
42.9
 20
7.66
 10
42.62
 20
7.73
  0
LWPOLYLINE
  5
ED
100
AcDbEntity
  8
0
100
AcDbPolyline
 62
7
370
211
 90
2
 70
0
 10
42.62
 20
7.73
 10
42.37
 20
7.81
  0
LWPOLYLINE
  5
EE
100
AcDbEntity
  8
0
100
AcDbPolyline
 62
7
370
211
 90
2
 70
0
 10
42.37
 20
7.81
 10
42.12
 20
7.88
  0
LWPOLYLINE
  5
EF
100
AcDbEntity
  8
0
100
AcDbPolyline
 62
7
370
211
 90
2
 70
0
 10
42.12
 20
7.88
 10
41.87
 20
7.96
  0
LWPOLYLINE
  5
F0
100
AcDbEntity
  8
0
100
AcDbPolyline
 62
7
370
211
 90
2
 70
0
 10
41.87
 20
7.96
 10
41.62
 20
8.06
  0
LWPOLYLINE
  5
F1
100
AcDbEntity
  8
0
100
AcDbPolyline
 62
7
370
211
 90
2
 70
0
 10
41.62
 20
8.06
 10
41.4
 20
8.16
  0
LWPOLYLINE
  5
F2
100
AcDbEntity
  8
0
100
AcDbPolyline
 62
7
370
211
 90
2
 70
0
 10
41.4
 20
8.16
 10
41.15
 20
8.23
  0
LWPOLYLINE
  5
F3
100
AcDbEntity
  8
0
100
AcDbPolyline
 62
7
370
211
 90
2
 70
0
 10
41.15
 20
8.23
 10
40.92
 20
8.33
  0
LWPOLYLINE
  5
F4
100
AcDbEntity
  8
0
100
AcDbPolyline
 62
7
370
211
 90
2
 70
0
 10
40.92
 20
8.33
 10
40.7
 20
8.46
  0
LWPOLYLINE
  5
F5
100
AcDbEntity
  8
0
100
AcDbPolyline
 62
7
370
211
 90
2
 70
0
 10
40.7
 20
8.46
 10
40.47
 20
8.56
  0
LWPOLYLINE
  5
F6
100
AcDbEntity
  8
0
100
AcDbPolyline
 62
7
370
211
 90
2
 70
0
 10
40.47
 20
8.56
 10
40.25
 20
8.68
  0
LWPOLYLINE
  5
F7
100
AcDbEntity
  8
0
100
AcDbPolyline
 62
7
370
211
 90
2
 70
0
 10
40.25
 20
8.68
 10
40.05
 20
8.78
  0
LWPOLYLINE
  5
F8
100
AcDbEntity
  8
0
100
AcDbPolyline
 62
7
370
211
 90
2
 70
0
 10
40.05
 20
8.78
 10
39.85
 20
8.91
  0
LWPOLYLINE
  5
F9
100
AcDbEntity
  8
0
100
AcDbPolyline
 62
7
370
211
 90
2
 70
0
 10
39.85
 20
8.91
 10
39.65
 20
9.06
  0
LWPOLYLINE
  5
FA
100
AcDbEntity
  8
0
100
AcDbPolyline
 62
7
370
211
 90
2
 70
0
 10
39.65
 20
9.06
 10
39.45
 20
9.18
  0
LWPOLYLINE
  5
FB
100
AcDbEntity
  8
0
100
AcDbPolyline
 62
7
370
211
 90
2
 70
0
 10
39.45
 20
9.18
 10
39.27
 20
9.33
  0
LWPOLYLINE
  5
FC
100
AcDbEntity
  8
0
100
AcDbPolyline
 62
7
370
211
 90
2
 70
0
 10
39.27
 20
9.33
 10
39.1
 20
9.48
  0
LWPOLYLINE
  5
FD
100
AcDbEntity
  8
0
100
AcDbPolyline
 62
7
370
211
 90
2
 70
0
 10
39.1
 20
9.48
 10
38.92
 20
9.63
  0
LWPOLYLINE
  5
FE
100
AcDbEntity
  8
0
100
AcDbPolyline
 62
7
370
211
 90
2
 70
0
 10
38.92
 20
9.63
 10
38.77
 20
9.81
  0
LWPOLYLINE
  5
FF
100
AcDbEntity
  8
0
100
AcDbPolyline
 62
7
370
211
 90
2
 70
0
 10
38.77
 20
9.81
 10
37.65
 20
8.98
  0
LWPOLYLINE
  5
100
100
AcDbEntity
  8
0
100
AcDbPolyline
 62
7
370
211
 90
2
 70
0
 10
37.65
 20
8.98
 10
37.65
 20
8.98
  0
LWPOLYLINE
  5
101
100
AcDbEntity
  8
0
100
AcDbPolyline
 62
7
370
211
 90
2
 70
0
 10
37.65
 20
8.98
 10
36.45
 20
8.23
  0
LWPOLYLINE
  5
102
100
AcDbEntity
  8
0
100
AcDbPolyline
 62
7
370
211
 90
2
 70
0
 10
36.45
 20
8.23
 10
36.55
 20
8.03
  0
LWPOLYLINE
  5
103
100
AcDbEntity
  8
0
100
AcDbPolyline
 62
7
370
211
 90
2
 70
0
 10
36.55
 20
8.03
 10
36.62
 20
7.83
  0
LWPOLYLINE
  5
104
100
AcDbEntity
  8
0
100
AcDbPolyline
 62
7
370
211
 90
2
 70
0
 10
36.62
 20
7.83
 10
36.7
 20
7.61
  0
LWPOLYLINE
  5
105
100
AcDbEntity
  8
0
100
AcDbPolyline
 62
7
370
211
 90
2
 70
0
 10
36.7
 20
7.61
 10
36.75
 20
7.38
  0
LWPOLYLINE
  5
106
100
AcDbEntity
  8
0
100
AcDbPolyline
 62
7
370
211
 90
2
 70
0
 10
36.75
 20
7.38
 10
36.8
 20
7.16
  0
LWPOLYLINE
  5
107
100
AcDbEntity
  8
0
100
AcDbPolyline
 62
7
370
211
 90
2
 70
0
 10
36.8
 20
7.16
 10
36.85
 20
6.91
  0
LWPOLYLINE
  5
108
100
AcDbEntity
  8
0
100
AcDbPolyline
 62
7
370
211
 90
2
 70
0
 10
36.85
 20
6.91
 10
36.9
 20
6.68
  0
LWPOLYLINE
  5
109
100
AcDbEntity
  8
0
100
AcDbPolyline
 62
7
370
211
 90
2
 70
0
 10
36.9
 20
6.68
 10
36.92
 20
6.43
  0
LWPOLYLINE
  5
10A
100
AcDbEntity
  8
0
100
AcDbPolyline
 62
7
370
211
 90
2
 70
0
 10
36.92
 20
6.43
 10
36.95
 20
6.21
  0
LWPOLYLINE
  5
10B
100
AcDbEntity
  8
0
100
AcDbPolyline
 62
7
370
211
 90
2
 70
0
 10
36.95
 20
6.21
 10
36.95
 20
5.96
  0
LWPOLYLINE
  5
10C
100
AcDbEntity
  8
0
100
AcDbPolyline
 62
7
370
211
 90
2
 70
0
 10
36.95
 20
5.96
 10
36.97
 20
5.71
  0
LWPOLYLINE
  5
10D
100
AcDbEntity
  8
0
100
AcDbPolyline
 62
7
370
211
 90
2
 70
0
 10
36.97
 20
5.71
 10
36.97
 20
5.46
  0
LWPOLYLINE
  5
10E
100
AcDbEntity
  8
0
100
AcDbPolyline
 62
7
370
211
 90
2
 70
0
 10
36.97
 20
5.46
 10
36.97
 20
5.21
  0
LWPOLYLINE
  5
10F
100
AcDbEntity
  8
0
100
AcDbPolyline
 62
7
370
211
 90
2
 70
0
 10
36.97
 20
5.21
 10
36.97
 20
4.93
  0
LWPOLYLINE
  5
110
100
AcDbEntity
  8
0
100
AcDbPolyline
 62
7
370
211
 90
2
 70
0
 10
36.97
 20
4.93
 10
36.95
 20
4.68
  0
LWPOLYLINE
  5
111
100
AcDbEntity
  8
0
100
AcDbPolyline
 62
7
370
211
 90
2
 70
0
 10
36.95
 20
4.68
 10
36.92
 20
4.41
  0
LWPOLYLINE
  5
112
100
AcDbEntity
  8
0
100
AcDbPolyline
 62
7
370
211
 90
2
 70
0
 10
36.92
 20
4.41
 10
36.9
 20
4.16
  0
LWPOLYLINE
  5
113
100
AcDbEntity
  8
0
100
AcDbPolyline
 62
7
370
211
 90
2
 70
0
 10
36.9
 20
4.16
 10
36.87
 20
3.88
  0
LWPOLYLINE
  5
114
100
AcDbEntity
  8
0
100
AcDbPolyline
 62
7
370
211
 90
2
 70
0
 10
36.87
 20
3.88
 10
36.85
 20
3.63
  0
LWPOLYLINE
  5
115
100
AcDbEntity
  8
0
100
AcDbPolyline
 62
7
370
211
 90
2
 70
0
 10
36.85
 20
3.63
 10
36.8
 20
3.36
  0
LWPOLYLINE
  5
116
100
AcDbEntity
  8
0
100
AcDbPolyline
 62
7
370
211
 90
2
 70
0
 10
36.8
 20
3.36
 10
34.75
 20
2.51
  0
LWPOLYLINE
  5
117
100
AcDbEntity
  8
0
100
AcDbPolyline
 62
7
370
211
 90
2
 70
0
 10
34.75
 20
2.51
 10
34.52
 20
2.68
  0
LWPOLYLINE
  5
118
100
AcDbEntity
  8
0
100
AcDbPolyline
 62
7
370
211
 90
2
 70
0
 10
34.52
 20
2.68
 10
34.32
 20
2.83
  0
LWPOLYLINE
  5
119
100
AcDbEntity
  8
0
100
AcDbPolyline
 62
7
370
211
 90
2
 70
0
 10
34.32
 20
2.83
 10
34.12
 20
3.01
  0
LWPOLYLINE
  5
11A
100
AcDbEntity
  8
0
100
AcDbPolyline
 62
7
370
211
 90
2
 70
0
 10
34.12
 20
3.01
 10
33.9
 20
3.16
  0
LWPOLYLINE
  5
11B
100
AcDbEntity
  8
0
100
AcDbPolyline
 62
7
370
211
 90
2
 70
0
 10
33.9
 20
3.16
 10
33.72
 20
3.33
  0
LWPOLYLINE
  5
11C
100
AcDbEntity
  8
0
100
AcDbPolyline
 62
7
370
211
 90
2
 70
0
 10
33.72
 20
3.33
 10
33.52
 20
3.51
  0
LWPOLYLINE
  5
11D
100
AcDbEntity
  8
0
100
AcDbPolyline
 62
7
370
211
 90
2
 70
0
 10
33.52
 20
3.51
 10
33.32
 20
3.68
  0
LWPOLYLINE
  5
11E
100
AcDbEntity
  8
0
100
AcDbPolyline
 62
7
370
211
 90
2
 70
0
 10
33.32
 20
3.68
 10
33.15
 20
3.86
  0
LWPOLYLINE
  5
11F
100
AcDbEntity
  8
0
100
AcDbPolyline
 62
7
370
211
 90
2
 70
0
 10
33.15
 20
3.86
 10
32.97
 20
4.06
  0
LWPOLYLINE
  5
120
100
AcDbEntity
  8
0
100
AcDbPolyline
 62
7
370
211
 90
2
 70
0
 10
32.97
 20
4.06
 10
32.8
 20
4.23
  0
LWPOLYLINE
  5
121
100
AcDbEntity
  8
0
100
AcDbPolyline
 62
7
370
211
 90
2
 70
0
 10
32.8
 20
4.23
 10
32.65
 20
4.41
  0
LWPOLYLINE
  5
122
100
AcDbEntity
  8
0
100
AcDbPolyline
 62
7
370
211
 90
2
 70
0
 10
32.65
 20
4.41
 10
32.5
 20
4.61
  0
LWPOLYLINE
  5
123
100
AcDbEntity
  8
0
100
AcDbPolyline
 62
7
370
211
 90
2
 70
0
 10
32.5
 20
4.61
 10
32.35
 20
4.81
  0
LWPOLYLINE
  5
124
100
AcDbEntity
  8
0
100
AcDbPolyline
 62
7
370
211
 90
2
 70
0
 10
32.35
 20
4.81
 10
32.2
 20
4.98
  0
LWPOLYLINE
  5
125
100
AcDbEntity
  8
0
100
AcDbPolyline
 62
7
370
211
 90
2
 70
0
 10
32.2
 20
4.98
 10
32.07
 20
5.18
  0
LWPOLYLINE
  5
126
100
AcDbEntity
  8
0
100
AcDbPolyline
 62
7
370
211
 90
2
 70
0
 10
32.07
 20
5.18
 10
31.95
 20
5.38
  0
LWPOLYLINE
  5
127
100
AcDbEntity
  8
0
100
AcDbPolyline
 62
7
370
211
 90
2
 70
0
 10
31.95
 20
5.38
 10
31.82
 20
5.58
  0
LWPOLYLINE
  5
128
100
AcDbEntity
  8
0
100
AcDbPolyline
 62
7
370
211
 90
2
 70
0
 10
31.82
 20
5.58
 10
31.72
 20
5.78
  0
LWPOLYLINE
  5
129
100
AcDbEntity
  8
0
100
AcDbPolyline
 62
7
370
211
 90
2
 70
0
 10
31.72
 20
5.78
 10
31.62
 20
6.01
  0
LWPOLYLINE
  5
12A
100
AcDbEntity
  8
0
100
AcDbPolyline
 62
7
370
211
 90
2
 70
0
 10
31.62
 20
6.01
 10
31.55
 20
6.21
  0
LWPOLYLINE
  5
12B
100
AcDbEntity
  8
0
100
AcDbPolyline
 62
7
370
211
 90
2
 70
0
 10
31.55
 20
6.21
 10
30.2
 20
5.88
  0
LWPOLYLINE
  5
12C
100
AcDbEntity
  8
0
100
AcDbPolyline
 62
7
370
211
 90
2
 70
0
 10
30.2
 20
5.88
 10
30.2
 20
5.88
  0
LWPOLYLINE
  5
12D
100
AcDbEntity
  8
0
100
AcDbPolyline
 62
7
370
211
 90
2
 70
0
 10
30.2
 20
5.88
 10
28.8
 20
5.66
  0
LWPOLYLINE
  5
12E
100
AcDbEntity
  8
0
100
AcDbPolyline
 62
7
370
211
 90
2
 70
0
 10
28.8
 20
5.66
 10
28.82
 20
5.43
  0
LWPOLYLINE
  5
12F
100
AcDbEntity
  8
0
100
AcDbPolyline
 62
7
370
211
 90
2
 70
0
 10
28.82
 20
5.43
 10
28.8
 20
5.21
  0
LWPOLYLINE
  5
130
100
AcDbEntity
  8
0
100
AcDbPolyline
 62
7
370
211
 90
2
 70
0
 10
28.8
 20
5.21
 10
28.8
 20
4.98
  0
LWPOLYLINE
  5
131
100
AcDbEntity
  8
0
100
AcDbPolyline
 62
7
370
211
 90
2
 70
0
 10
28.8
 20
4.98
 10
28.77
 20
4.76
  0
LWPOLYLINE
  5
132
100
AcDbEntity
  8
0
100
AcDbPolyline
 62
7
370
211
 90
2
 70
0
 10
28.77
 20
4.76
 10
28.72
 20
4.53
  0
LWPOLYLINE
  5
133
100
AcDbEntity
  8
0
100
AcDbPolyline
 62
7
370
211
 90
2
 70
0
 10
28.72
 20
4.53
 10
28.67
 20
4.28
  0
LWPOLYLINE
  5
134
100
AcDbEntity
  8
0
100
AcDbPolyline
 62
7
370
211
 90
2
 70
0
 10
28.67
 20
4.28
 10
28.62
 20
4.06
  0
LWPOLYLINE
  5
135
100
AcDbEntity
  8
0
100
AcDbPolyline
 62
7
370
211
 90
2
 70
0
 10
28.62
 20
4.06
 10
28.55
 20
3.83
  0
LWPOLYLINE
  5
136
100
AcDbEntity
  8
0
100
AcDbPolyline
 62
7
370
211
 90
2
 70
0
 10
28.55
 20
3.83
 10
28.47
 20
3.58
  0
LWPOLYLINE
  5
137
100
AcDbEntity
  8
0
100
AcDbPolyline
 62
7
370
211
 90
2
 70
0
 10
28.47
 20
3.58
 10
28.4
 20
3.36
  0
LWPOLYLINE
  5
138
100
AcDbEntity
  8
0
100
AcDbPolyline
 62
7
370
211
 90
2
 70
0
 10
28.4
 20
3.36
 10
28.32
 20
3.13
  0
LWPOLYLINE
  5
139
100
AcDbEntity
  8
0
100
AcDbPolyline
 62
7
370
211
 90
2
 70
0
 10
28.32
 20
3.13
 10
28.22
 20
2.88
  0
LWPOLYLINE
  5
13A
100
AcDbEntity
  8
0
100
AcDbPolyline
 62
7
370
211
 90
2
 70
0
 10
28.22
 20
2.88
 10
28.12
 20
2.66
  0
LWPOLYLINE
  5
13B
100
AcDbEntity
  8
0
100
AcDbPolyline
 62
7
370
211
 90
2
 70
0
 10
28.12
 20
2.66
 10
28.02
 20
2.41
  0
LWPOLYLINE
  5
13C
100
AcDbEntity
  8
0
100
AcDbPolyline
 62
7
370
211
 90
2
 70
0
 10
28.02
 20
2.41
 10
27.9
 20
2.18
  0
LWPOLYLINE
  5
13D
100
AcDbEntity
  8
0
100
AcDbPolyline
 62
7
370
211
 90
2
 70
0
 10
27.9
 20
2.18
 10
27.8
 20
1.96
  0
LWPOLYLINE
  5
13E
100
AcDbEntity
  8
0
100
AcDbPolyline
 62
7
370
211
 90
2
 70
0
 10
27.8
 20
1.96
 10
27.67
 20
1.71
  0
LWPOLYLINE
  5
13F
100
AcDbEntity
  8
0
100
AcDbPolyline
 62
7
370
211
 90
2
 70
0
 10
27.67
 20
1.71
 10
27.55
 20
1.48
  0
LWPOLYLINE
  5
140
100
AcDbEntity
  8
0
100
AcDbPolyline
 62
7
370
211
 90
2
 70
0
 10
27.55
 20
1.48
 10
27.4
 20
1.26
  0
LWPOLYLINE
  5
141
100
AcDbEntity
  8
0
100
AcDbPolyline
 62
7
370
211
 90
2
 70
0
 10
27.4
 20
1.26
 10
27.25
 20
1.01
  0
LWPOLYLINE
  5
142
100
AcDbEntity
  8
0
100
AcDbPolyline
 62
7
370
211
 90
2
 70
0
 10
27.25
 20
1.01
 10
25.05
 20
1.01
  0
LWPOLYLINE
  5
143
100
AcDbEntity
  8
0
100
AcDbPolyline
 62
7
370
211
 90
2
 70
0
 10
25.05
 20
1.01
 10
24.9
 20
1.26
  0
LWPOLYLINE
  5
144
100
AcDbEntity
  8
0
100
AcDbPolyline
 62
7
370
211
 90
2
 70
0
 10
24.9
 20
1.26
 10
24.77
 20
1.48
  0
LWPOLYLINE
  5
145
100
AcDbEntity
  8
0
100
AcDbPolyline
 62
7
370
211
 90
2
 70
0
 10
24.77
 20
1.48
 10
24.65
 20
1.71
  0
LWPOLYLINE
  5
146
100
AcDbEntity
  8
0
100
AcDbPolyline
 62
7
370
211
 90
2
 70
0
 10
24.65
 20
1.71
 10
24.52
 20
1.96
  0
LWPOLYLINE
  5
147
100
AcDbEntity
  8
0
100
AcDbPolyline
 62
7
370
211
 90
2
 70
0
 10
24.52
 20
1.96
 10
24.4
 20
2.18
  0
LWPOLYLINE
  5
148
100
AcDbEntity
  8
0
100
AcDbPolyline
 62
7
370
211
 90
2
 70
0
 10
24.4
 20
2.18
 10
24.3
 20
2.41
  0
LWPOLYLINE
  5
149
100
AcDbEntity
  8
0
100
AcDbPolyline
 62
7
370
211
 90
2
 70
0
 10
24.3
 20
2.41
 10
24.17
 20
2.66
  0
LWPOLYLINE
  5
14A
100
AcDbEntity
  8
0
100
AcDbPolyline
 62
7
370
211
 90
2
 70
0
 10
24.17
 20
2.66
 10
24.1
 20
2.88
  0
LWPOLYLINE
  5
14B
100
AcDbEntity
  8
0
100
AcDbPolyline
 62
7
370
211
 90
2
 70
0
 10
24.1
 20
2.88
 10
24
 20
3.13
  0
LWPOLYLINE
  5
14C
100
AcDbEntity
  8
0
100
AcDbPolyline
 62
7
370
211
 90
2
 70
0
 10
24
 20
3.13
 10
23.9
 20
3.36
  0
LWPOLYLINE
  5
14D
100
AcDbEntity
  8
0
100
AcDbPolyline
 62
7
370
211
 90
2
 70
0
 10
23.9
 20
3.36
 10
23.82
 20
3.58
  0
LWPOLYLINE
  5
14E
100
AcDbEntity
  8
0
100
AcDbPolyline
 62
7
370
211
 90
2
 70
0
 10
23.82
 20
3.58
 10
23.75
 20
3.83
  0
LWPOLYLINE
  5
14F
100
AcDbEntity
  8
0
100
AcDbPolyline
 62
7
370
211
 90
2
 70
0
 10
23.75
 20
3.83
 10
23.7
 20
4.06
  0
LWPOLYLINE
  5
150
100
AcDbEntity
  8
0
100
AcDbPolyline
 62
7
370
211
 90
2
 70
0
 10
23.7
 20
4.06
 10
23.62
 20
4.28
  0
LWPOLYLINE
  5
151
100
AcDbEntity
  8
0
100
AcDbPolyline
 62
7
370
211
 90
2
 70
0
 10
23.62
 20
4.28
 10
23.6
 20
4.53
  0
LWPOLYLINE
  5
152
100
AcDbEntity
  8
0
100
AcDbPolyline
 62
7
370
211
 90
2
 70
0
 10
23.6
 20
4.53
 10
23.55
 20
4.76
  0
LWPOLYLINE
  5
153
100
AcDbEntity
  8
0
100
AcDbPolyline
 62
7
370
211
 90
2
 70
0
 10
23.55
 20
4.76
 10
23.52
 20
4.98
  0
LWPOLYLINE
  5
154
100
AcDbEntity
  8
0
100
AcDbPolyline
 62
7
370
211
 90
2
 70
0
 10
23.52
 20
4.98
 10
23.5
 20
5.21
  0
LWPOLYLINE
  5
155
100
AcDbEntity
  8
0
100
AcDbPolyline
 62
7
370
211
 90
2
 70
0
 10
23.5
 20
5.21
 10
23.5
 20
5.43
  0
LWPOLYLINE
  5
156
100
AcDbEntity
  8
0
100
AcDbPolyline
 62
7
370
211
 90
2
 70
0
 10
23.5
 20
5.43
 10
23.52
 20
5.66
  0
LWPOLYLINE
  5
157
100
AcDbEntity
  8
0
100
AcDbPolyline
 62
7
370
211
 90
2
 70
0
 10
23.52
 20
5.66
 10
22.12
 20
5.88
  0
LWPOLYLINE
  5
158
100
AcDbEntity
  8
0
100
AcDbPolyline
 62
7
370
211
 90
2
 70
0
 10
22.12
 20
5.88
 10
22.12
 20
5.88
  0
LWPOLYLINE
  5
159
100
AcDbEntity
  8
0
100
AcDbPolyline
 62
7
370
211
 90
2
 70
0
 10
22.12
 20
5.88
 10
20.75
 20
6.21
  0
LWPOLYLINE
  5
15A
100
AcDbEntity
  8
0
100
AcDbPolyline
 62
7
370
211
 90
2
 70
0
 10
20.75
 20
6.21
 10
20.67
 20
6.01
  0
LWPOLYLINE
  5
15B
100
AcDbEntity
  8
0
100
AcDbPolyline
 62
7
370
211
 90
2
 70
0
 10
20.67
 20
6.01
 10
20.6
 20
5.78
  0
LWPOLYLINE
  5
15C
100
AcDbEntity
  8
0
100
AcDbPolyline
 62
7
370
211
 90
2
 70
0
 10
20.6
 20
5.78
 10
20.47
 20
5.58
  0
LWPOLYLINE
  5
15D
100
AcDbEntity
  8
0
100
AcDbPolyline
 62
7
370
211
 90
2
 70
0
 10
20.47
 20
5.58
 10
20.37
 20
5.38
  0
LWPOLYLINE
  5
15E
100
AcDbEntity
  8
0
100
AcDbPolyline
 62
7
370
211
 90
2
 70
0
 10
20.37
 20
5.38
 10
20.25
 20
5.18
  0
LWPOLYLINE
  5
15F
100
AcDbEntity
  8
0
100
AcDbPolyline
 62
7
370
211
 90
2
 70
0
 10
20.25
 20
5.18
 10
20.1
 20
4.98
  0
LWPOLYLINE
  5
160
100
AcDbEntity
  8
0
100
AcDbPolyline
 62
7
370
211
 90
2
 70
0
 10
20.1
 20
4.98
 10
19.97
 20
4.81
  0
LWPOLYLINE
  5
161
100
AcDbEntity
  8
0
100
AcDbPolyline
 62
7
370
211
 90
2
 70
0
 10
19.97
 20
4.81
 10
19.82
 20
4.61
  0
LWPOLYLINE
  5
162
100
AcDbEntity
  8
0
100
AcDbPolyline
 62
7
370
211
 90
2
 70
0
 10
19.82
 20
4.61
 10
19.67
 20
4.41
  0
LWPOLYLINE
  5
163
100
AcDbEntity
  8
0
100
AcDbPolyline
 62
7
370
211
 90
2
 70
0
 10
19.67
 20
4.41
 10
19.5
 20
4.23
  0
LWPOLYLINE
  5
164
100
AcDbEntity
  8
0
100
AcDbPolyline
 62
7
370
211
 90
2
 70
0
 10
19.5
 20
4.23
 10
19.32
 20
4.06
  0
LWPOLYLINE
  5
165
100
AcDbEntity
  8
0
100
AcDbPolyline
 62
7
370
211
 90
2
 70
0
 10
19.32
 20
4.06
 10
19.15
 20
3.86
  0
LWPOLYLINE
  5
166
100
AcDbEntity
  8
0
100
AcDbPolyline
 62
7
370
211
 90
2
 70
0
 10
19.15
 20
3.86
 10
18.97
 20
3.68
  0
LWPOLYLINE
  5
167
100
AcDbEntity
  8
0
100
AcDbPolyline
 62
7
370
211
 90
2
 70
0
 10
18.97
 20
3.68
 10
18.8
 20
3.51
  0
LWPOLYLINE
  5
168
100
AcDbEntity
  8
0
100
AcDbPolyline
 62
7
370
211
 90
2
 70
0
 10
18.8
 20
3.51
 10
18.6
 20
3.33
  0
LWPOLYLINE
  5
169
100
AcDbEntity
  8
0
100
AcDbPolyline
 62
7
370
211
 90
2
 70
0
 10
18.6
 20
3.33
 10
18.4
 20
3.16
  0
LWPOLYLINE
  5
16A
100
AcDbEntity
  8
0
100
AcDbPolyline
 62
7
370
211
 90
2
 70
0
 10
18.4
 20
3.16
 10
18.2
 20
3.01
  0
LWPOLYLINE
  5
16B
100
AcDbEntity
  8
0
100
AcDbPolyline
 62
7
370
211
 90
2
 70
0
 10
18.2
 20
3.01
 10
18
 20
2.83
  0
LWPOLYLINE
  5
16C
100
AcDbEntity
  8
0
100
AcDbPolyline
 62
7
370
211
 90
2
 70
0
 10
18
 20
2.83
 10
17.77
 20
2.68
  0
LWPOLYLINE
  5
16D
100
AcDbEntity
  8
0
100
AcDbPolyline
 62
7
370
211
 90
2
 70
0
 10
17.77
 20
2.68
 10
17.55
 20
2.51
  0
LWPOLYLINE
  5
16E
100
AcDbEntity
  8
0
100
AcDbPolyline
 62
7
370
211
 90
2
 70
0
 10
17.55
 20
2.51
 10
15.5
 20
3.36
  0
LWPOLYLINE
  5
16F
100
AcDbEntity
  8
0
100
AcDbPolyline
 62
7
370
211
 90
2
 70
0
 10
15.5
 20
3.36
 10
15.47
 20
3.63
  0
LWPOLYLINE
  5
170
100
AcDbEntity
  8
0
100
AcDbPolyline
 62
7
370
211
 90
2
 70
0
 10
15.47
 20
3.63
 10
15.42
 20
3.88
  0
LWPOLYLINE
  5
171
100
AcDbEntity
  8
0
100
AcDbPolyline
 62
7
370
211
 90
2
 70
0
 10
15.42
 20
3.88
 10
15.4
 20
4.16
  0
LWPOLYLINE
  5
172
100
AcDbEntity
  8
0
100
AcDbPolyline
 62
7
370
211
 90
2
 70
0
 10
15.4
 20
4.16
 10
15.37
 20
4.41
  0
LWPOLYLINE
  5
173
100
AcDbEntity
  8
0
100
AcDbPolyline
 62
7
370
211
 90
2
 70
0
 10
15.37
 20
4.41
 10
15.35
 20
4.68
  0
LWPOLYLINE
  5
174
100
AcDbEntity
  8
0
100
AcDbPolyline
 62
7
370
211
 90
2
 70
0
 10
15.35
 20
4.68
 10
15.35
 20
4.93
  0
LWPOLYLINE
  5
175
100
AcDbEntity
  8
0
100
AcDbPolyline
 62
7
370
211
 90
2
 70
0
 10
15.35
 20
4.93
 10
15.35
 20
5.21
  0
LWPOLYLINE
  5
176
100
AcDbEntity
  8
0
100
AcDbPolyline
 62
7
370
211
 90
2
 70
0
 10
15.35
 20
5.21
 10
15.32
 20
5.46
  0
LWPOLYLINE
  5
177
100
AcDbEntity
  8
0
100
AcDbPolyline
 62
7
370
211
 90
2
 70
0
 10
15.32
 20
5.46
 10
15.35
 20
5.71
  0
LWPOLYLINE
  5
178
100
AcDbEntity
  8
0
100
AcDbPolyline
 62
7
370
211
 90
2
 70
0
 10
15.35
 20
5.71
 10
15.35
 20
5.96
  0
LWPOLYLINE
  5
179
100
AcDbEntity
  8
0
100
AcDbPolyline
 62
7
370
211
 90
2
 70
0
 10
15.35
 20
5.96
 10
15.37
 20
6.21
  0
LWPOLYLINE
  5
17A
100
AcDbEntity
  8
0
100
AcDbPolyline
 62
7
370
211
 90
2
 70
0
 10
15.37
 20
6.21
 10
15.4
 20
6.43
  0
LWPOLYLINE
  5
17B
100
AcDbEntity
  8
0
100
AcDbPolyline
 62
7
370
211
 90
2
 70
0
 10
15.4
 20
6.43
 10
15.42
 20
6.68
  0
LWPOLYLINE
  5
17C
100
AcDbEntity
  8
0
100
AcDbPolyline
 62
7
370
211
 90
2
 70
0
 10
15.42
 20
6.68
 10
15.45
 20
6.91
  0
LWPOLYLINE
  5
17D
100
AcDbEntity
  8
0
100
AcDbPolyline
 62
7
370
211
 90
2
 70
0
 10
15.45
 20
6.91
 10
15.5
 20
7.16
  0
LWPOLYLINE
  5
17E
100
AcDbEntity
  8
0
100
AcDbPolyline
 62
7
370
211
 90
2
 70
0
 10
15.5
 20
7.16
 10
15.55
 20
7.38
  0
LWPOLYLINE
  5
17F
100
AcDbEntity
  8
0
100
AcDbPolyline
 62
7
370
211
 90
2
 70
0
 10
15.55
 20
7.38
 10
15.62
 20
7.61
  0
LWPOLYLINE
  5
180
100
AcDbEntity
  8
0
100
AcDbPolyline
 62
7
370
211
 90
2
 70
0
 10
15.62
 20
7.61
 10
15.67
 20
7.83
  0
LWPOLYLINE
  5
181
100
AcDbEntity
  8
0
100
AcDbPolyline
 62
7
370
211
 90
2
 70
0
 10
15.67
 20
7.83
 10
15.77
 20
8.03
  0
LWPOLYLINE
  5
182
100
AcDbEntity
  8
0
100
AcDbPolyline
 62
7
370
211
 90
2
 70
0
 10
15.77
 20
8.03
 10
15.87
 20
8.23
  0
LWPOLYLINE
  5
183
100
AcDbEntity
  8
0
100
AcDbPolyline
 62
7
370
211
 90
2
 70
0
 10
15.87
 20
8.23
 10
14.67
 20
8.98
  0
LWPOLYLINE
  5
184
100
AcDbEntity
  8
0
100
AcDbPolyline
 62
7
370
211
 90
2
 70
0
 10
14.67
 20
8.98
 10
14.67
 20
8.98
  0
LWPOLYLINE
  5
185
100
AcDbEntity
  8
0
100
AcDbPolyline
 62
7
370
211
 90
2
 70
0
 10
14.67
 20
8.98
 10
13.52
 20
9.81
  0
LWPOLYLINE
  5
186
100
AcDbEntity
  8
0
100
AcDbPolyline
 62
7
370
211
 90
2
 70
0
 10
13.52
 20
9.81
 10
13.37
 20
9.63
  0
LWPOLYLINE
  5
187
100
AcDbEntity
  8
0
100
AcDbPolyline
 62
7
370
211
 90
2
 70
0
 10
13.37
 20
9.63
 10
13.22
 20
9.48
  0
LWPOLYLINE
  5
188
100
AcDbEntity
  8
0
100
AcDbPolyline
 62
7
370
211
 90
2
 70
0
 10
13.22
 20
9.48
 10
13.05
 20
9.33
  0
LWPOLYLINE
  5
189
100
AcDbEntity
  8
0
100
AcDbPolyline
 62
7
370
211
 90
2
 70
0
 10
13.05
 20
9.33
 10
12.85
 20
9.18
  0
LWPOLYLINE
  5
18A
100
AcDbEntity
  8
0
100
AcDbPolyline
 62
7
370
211
 90
2
 70
0
 10
12.85
 20
9.18
 10
12.67
 20
9.06
  0
LWPOLYLINE
  5
18B
100
AcDbEntity
  8
0
100
AcDbPolyline
 62
7
370
211
 90
2
 70
0
 10
12.67
 20
9.06
 10
12.47
 20
8.91
  0
LWPOLYLINE
  5
18C
100
AcDbEntity
  8
0
100
AcDbPolyline
 62
7
370
211
 90
2
 70
0
 10
12.47
 20
8.91
 10
12.27
 20
8.78
  0
LWPOLYLINE
  5
18D
100
AcDbEntity
  8
0
100
AcDbPolyline
 62
7
370
211
 90
2
 70
0
 10
12.27
 20
8.78
 10
12.05
 20
8.68
  0
LWPOLYLINE
  5
18E
100
AcDbEntity
  8
0
100
AcDbPolyline
 62
7
370
211
 90
2
 70
0
 10
12.05
 20
8.68
 10
11.85
 20
8.56
  0
LWPOLYLINE
  5
18F
100
AcDbEntity
  8
0
100
AcDbPolyline
 62
7
370
211
 90
2
 70
0
 10
11.85
 20
8.56
 10
11.62
 20
8.46
  0
LWPOLYLINE
  5
190
100
AcDbEntity
  8
0
100
AcDbPolyline
 62
7
370
211
 90
2
 70
0
 10
11.62
 20
8.46
 10
11.4
 20
8.33
  0
LWPOLYLINE
  5
191
100
AcDbEntity
  8
0
100
AcDbPolyline
 62
7
370
211
 90
2
 70
0
 10
11.4
 20
8.33
 10
11.15
 20
8.23
  0
LWPOLYLINE
  5
192
100
AcDbEntity
  8
0
100
AcDbPolyline
 62
7
370
211
 90
2
 70
0
 10
11.15
 20
8.23
 10
10.92
 20
8.16
  0
LWPOLYLINE
  5
193
100
AcDbEntity
  8
0
100
AcDbPolyline
 62
7
370
211
 90
2
 70
0
 10
10.92
 20
8.16
 10
10.67
 20
8.06
  0
LWPOLYLINE
  5
194
100
AcDbEntity
  8
0
100
AcDbPolyline
 62
7
370
211
 90
2
 70
0
 10
10.67
 20
8.06
 10
10.45
 20
7.96
  0
LWPOLYLINE
  5
195
100
AcDbEntity
  8
0
100
AcDbPolyline
 62
7
370
211
 90
2
 70
0
 10
10.45
 20
7.96
 10
10.2
 20
7.88
  0
LWPOLYLINE
  5
196
100
AcDbEntity
  8
0
100
AcDbPolyline
 62
7
370
211
 90
2
 70
0
 10
10.2
 20
7.88
 10
9.95
 20
7.81
  0
LWPOLYLINE
  5
197
100
AcDbEntity
  8
0
100
AcDbPolyline
 62
7
370
211
 90
2
 70
0
 10
9.95
 20
7.81
 10
9.67
 20
7.73
  0
LWPOLYLINE
  5
198
100
AcDbEntity
  8
0
100
AcDbPolyline
 62
7
370
211
 90
2
 70
0
 10
9.67
 20
7.73
 10
9.42
 20
7.66
  0
LWPOLYLINE
  5
199
100
AcDbEntity
  8
0
100
AcDbPolyline
 62
7
370
211
 90
2
 70
0
 10
9.42
 20
7.66
 10
9.15
 20
7.61
  0
LWPOLYLINE
  5
19A
100
AcDbEntity
  8
0
100
AcDbPolyline
 62
7
370
211
 90
2
 70
0
 10
9.15
 20
7.61
 10
7.6
 20
9.16
  0
LWPOLYLINE
  5
19B
100
AcDbEntity
  8
0
100
AcDbPolyline
 62
7
370
211
 90
2
 70
0
 10
7.6
 20
9.16
 10
7.65
 20
9.43
  0
LWPOLYLINE
  5
19C
100
AcDbEntity
  8
0
100
AcDbPolyline
 62
7
370
211
 90
2
 70
0
 10
7.65
 20
9.43
 10
7.72
 20
9.68
  0
LWPOLYLINE
  5
19D
100
AcDbEntity
  8
0
100
AcDbPolyline
 62
7
370
211
 90
2
 70
0
 10
7.72
 20
9.68
 10
7.8
 20
9.96
  0
LWPOLYLINE
  5
19E
100
AcDbEntity
  8
0
100
AcDbPolyline
 62
7
370
211
 90
2
 70
0
 10
7.8
 20
9.96
 10
7.87
 20
10.21
  0
LWPOLYLINE
  5
19F
100
AcDbEntity
  8
0
100
AcDbPolyline
 62
7
370
211
 90
2
 70
0
 10
7.87
 20
10.21
 10
7.95
 20
10.46
  0
LWPOLYLINE
  5
1A0
100
AcDbEntity
  8
0
100
AcDbPolyline
 62
7
370
211
 90
2
 70
0
 10
7.95
 20
10.46
 10
8.05
 20
10.68
  0
LWPOLYLINE
  5
1A1
100
AcDbEntity
  8
0
100
AcDbPolyline
 62
7
370
211
 90
2
 70
0
 10
8.05
 20
10.68
 10
8.15
 20
10.93
  0
LWPOLYLINE
  5
1A2
100
AcDbEntity
  8
0
100
AcDbPolyline
 62
7
370
211
 90
2
 70
0
 10
8.15
 20
10.93
 10
8.22
 20
11.16
  0
LWPOLYLINE
  5
1A3
100
AcDbEntity
  8
0
100
AcDbPolyline
 62
7
370
211
 90
2
 70
0
 10
8.22
 20
11.16
 10
8.32
 20
11.41
  0
LWPOLYLINE
  5
1A4
100
AcDbEntity
  8
0
100
AcDbPolyline
 62
7
370
211
 90
2
 70
0
 10
8.32
 20
11.41
 10
8.45
 20
11.63
  0
LWPOLYLINE
  5
1A5
100
AcDbEntity
  8
0
100
AcDbPolyline
 62
7
370
211
 90
2
 70
0
 10
8.45
 20
11.63
 10
8.55
 20
11.86
  0
LWPOLYLINE
  5
1A6
100
AcDbEntity
  8
0
100
AcDbPolyline
 62
7
370
211
 90
2
 70
0
 10
8.55
 20
11.86
 10
8.67
 20
12.06
  0
LWPOLYLINE
  5
1A7
100
AcDbEntity
  8
0
100
AcDbPolyline
 62
7
370
211
 90
2
 70
0
 10
8.67
 20
12.06
 10
8.77
 20
12.28
  0
LWPOLYLINE
  5
1A8
100
AcDbEntity
  8
0
100
AcDbPolyline
 62
7
370
211
 90
2
 70
0
 10
8.77
 20
12.28
 10
8.9
 20
12.48
  0
LWPOLYLINE
  5
1A9
100
AcDbEntity
  8
0
100
AcDbPolyline
 62
7
370
211
 90
2
 70
0
 10
8.9
 20
12.48
 10
9.05
 20
12.68
  0
LWPOLYLINE
  5
1AA
100
AcDbEntity
  8
0
100
AcDbPolyline
 62
7
370
211
 90
2
 70
0
 10
9.05
 20
12.68
 10
9.17
 20
12.86
  0
LWPOLYLINE
  5
1AB
100
AcDbEntity
  8
0
100
AcDbPolyline
 62
7
370
211
 90
2
 70
0
 10
9.17
 20
12.86
 10
9.32
 20
13.06
  0
LWPOLYLINE
  5
1AC
100
AcDbEntity
  8
0
100
AcDbPolyline
 62
7
370
211
 90
2
 70
0
 10
9.32
 20
13.06
 10
9.47
 20
13.23
  0
LWPOLYLINE
  5
1AD
100
AcDbEntity
  8
0
100
AcDbPolyline
 62
7
370
211
 90
2
 70
0
 10
9.47
 20
13.23
 10
9.62
 20
13.38
  0
LWPOLYLINE
  5
1AE
100
AcDbEntity
  8
0
100
AcDbPolyline
 62
7
370
211
 90
2
 70
0
 10
9.62
 20
13.38
 10
9.8
 20
13.53
  0
LWPOLYLINE
  5
1AF
100
AcDbEntity
  8
0
100
AcDbPolyline
 62
7
370
211
 90
2
 70
0
 10
9.8
 20
13.53
 10
8.97
 20
14.68
  0
LWPOLYLINE
  5
1B0
100
AcDbEntity
  8
0
100
AcDbPolyline
 62
7
370
211
 90
2
 70
0
 10
8.97
 20
14.68
 10
8.97
 20
14.68
  0
LWPOLYLINE
  5
1B1
100
AcDbEntity
  8
0
100
AcDbPolyline
 62
7
370
211
 90
2
 70
0
 10
8.97
 20
14.68
 10
8.22
 20
15.88
  0
LWPOLYLINE
  5
1B2
100
AcDbEntity
  8
0
100
AcDbPolyline
 62
7
370
211
 90
2
 70
0
 10
8.22
 20
15.88
 10
8.02
 20
15.78
  0
LWPOLYLINE
  5
1B3
100
AcDbEntity
  8
0
100
AcDbPolyline
 62
7
370
211
 90
2
 70
0
 10
8.02
 20
15.78
 10
7.82
 20
15.68
  0
LWPOLYLINE
  5
1B4
100
AcDbEntity
  8
0
100
AcDbPolyline
 62
7
370
211
 90
2
 70
0
 10
7.82
 20
15.68
 10
7.6
 20
15.63
  0
LWPOLYLINE
  5
1B5
100
AcDbEntity
  8
0
100
AcDbPolyline
 62
7
370
211
 90
2
 70
0
 10
7.6
 20
15.63
 10
7.37
 20
15.56
  0
LWPOLYLINE
  5
1B6
100
AcDbEntity
  8
0
100
AcDbPolyline
 62
7
370
211
 90
2
 70
0
 10
7.37
 20
15.56
 10
7.15
 20
15.51
  0
LWPOLYLINE
  5
1B7
100
AcDbEntity
  8
0
100
AcDbPolyline
 62
7
370
211
 90
2
 70
0
 10
7.15
 20
15.51
 10
6.9
 20
15.46
  0
LWPOLYLINE
  5
1B8
100
AcDbEntity
  8
0
100
AcDbPolyline
 62
7
370
211
 90
2
 70
0
 10
6.9
 20
15.46
 10
6.67
 20
15.43
  0
LWPOLYLINE
  5
1B9
100
AcDbEntity
  8
0
100
AcDbPolyline
 62
7
370
211
 90
2
 70
0
 10
6.67
 20
15.43
 10
6.42
 20
15.41
  0
LWPOLYLINE
  5
1BA
100
AcDbEntity
  8
0
100
AcDbPolyline
 62
7
370
211
 90
2
 70
0
 10
6.42
 20
15.41
 10
6.2
 20
15.38
  0
LWPOLYLINE
  5
1BB
100
AcDbEntity
  8
0
100
AcDbPolyline
 62
7
370
211
 90
2
 70
0
 10
6.2
 20
15.38
 10
5.95
 20
15.36
  0
LWPOLYLINE
  5
1BC
100
AcDbEntity
  8
0
100
AcDbPolyline
 62
7
370
211
 90
2
 70
0
 10
5.95
 20
15.36
 10
5.7
 20
15.36
  0
LWPOLYLINE
  5
1BD
100
AcDbEntity
  8
0
100
AcDbPolyline
 62
7
370
211
 90
2
 70
0
 10
5.7
 20
15.36
 10
5.45
 20
15.33
  0
LWPOLYLINE
  5
1BE
100
AcDbEntity
  8
0
100
AcDbPolyline
 62
7
370
211
 90
2
 70
0
 10
5.45
 20
15.33
 10
5.2
 20
15.36
  0
LWPOLYLINE
  5
1BF
100
AcDbEntity
  8
0
100
AcDbPolyline
 62
7
370
211
 90
2
 70
0
 10
5.2
 20
15.36
 10
4.92
 20
15.36
  0
LWPOLYLINE
  5
1C0
100
AcDbEntity
  8
0
100
AcDbPolyline
 62
7
370
211
 90
2
 70
0
 10
4.92
 20
15.36
 10
4.67
 20
15.36
  0
LWPOLYLINE
  5
1C1
100
AcDbEntity
  8
0
100
AcDbPolyline
 62
7
370
211
 90
2
 70
0
 10
4.67
 20
15.36
 10
4.4
 20
15.38
  0
LWPOLYLINE
  5
1C2
100
AcDbEntity
  8
0
100
AcDbPolyline
 62
7
370
211
 90
2
 70
0
 10
4.4
 20
15.38
 10
4.15
 20
15.41
  0
LWPOLYLINE
  5
1C3
100
AcDbEntity
  8
0
100
AcDbPolyline
 62
7
370
211
 90
2
 70
0
 10
4.15
 20
15.41
 10
3.87
 20
15.43
  0
LWPOLYLINE
  5
1C4
100
AcDbEntity
  8
0
100
AcDbPolyline
 62
7
370
211
 90
2
 70
0
 10
3.87
 20
15.43
 10
3.62
 20
15.48
  0
LWPOLYLINE
  5
1C5
100
AcDbEntity
  8
0
100
AcDbPolyline
 62
7
370
211
 90
2
 70
0
 10
3.62
 20
15.48
 10
3.35
 20
15.51
  0
LWPOLYLINE
  5
1C6
100
AcDbEntity
  8
0
100
AcDbPolyline
 62
7
370
211
 90
2
 70
0
 10
3.35
 20
15.51
 10
2.5
 20
17.56
  0
LWPOLYLINE
  5
1C7
100
AcDbEntity
  8
0
100
AcDbPolyline
 62
7
370
211
 90
2
 70
0
 10
2.5
 20
17.56
 10
2.67
 20
17.78
  0
LWPOLYLINE
  5
1C8
100
AcDbEntity
  8
0
100
AcDbPolyline
 62
7
370
211
 90
2
 70
0
 10
2.67
 20
17.78
 10
2.82
 20
18.01
  0
LWPOLYLINE
  5
1C9
100
AcDbEntity
  8
0
100
AcDbPolyline
 62
7
370
211
 90
2
 70
0
 10
2.82
 20
18.01
 10
3
 20
18.21
  0
LWPOLYLINE
  5
1CA
100
AcDbEntity
  8
0
100
AcDbPolyline
 62
7
370
211
 90
2
 70
0
 10
3
 20
18.21
 10
3.15
 20
18.41
  0
LWPOLYLINE
  5
1CB
100
AcDbEntity
  8
0
100
AcDbPolyline
 62
7
370
211
 90
2
 70
0
 10
3.15
 20
18.41
 10
3.32
 20
18.61
  0
LWPOLYLINE
  5
1CC
100
AcDbEntity
  8
0
100
AcDbPolyline
 62
7
370
211
 90
2
 70
0
 10
3.32
 20
18.61
 10
3.5
 20
18.81
  0
LWPOLYLINE
  5
1CD
100
AcDbEntity
  8
0
100
AcDbPolyline
 62
7
370
211
 90
2
 70
0
 10
3.5
 20
18.81
 10
3.67
 20
18.98
  0
LWPOLYLINE
  5
1CE
100
AcDbEntity
  8
0
100
AcDbPolyline
 62
7
370
211
 90
2
 70
0
 10
3.67
 20
18.98
 10
3.85
 20
19.16
  0
LWPOLYLINE
  5
1CF
100
AcDbEntity
  8
0
100
AcDbPolyline
 62
7
370
211
 90
2
 70
0
 10
3.85
 20
19.16
 10
4.05
 20
19.33
  0
LWPOLYLINE
  5
1D0
100
AcDbEntity
  8
0
100
AcDbPolyline
 62
7
370
211
 90
2
 70
0
 10
4.05
 20
19.33
 10
4.22
 20
19.51
  0
LWPOLYLINE
  5
1D1
100
AcDbEntity
  8
0
100
AcDbPolyline
 62
7
370
211
 90
2
 70
0
 10
4.22
 20
19.51
 10
4.4
 20
19.68
  0
LWPOLYLINE
  5
1D2
100
AcDbEntity
  8
0
100
AcDbPolyline
 62
7
370
211
 90
2
 70
0
 10
4.4
 20
19.68
 10
4.6
 20
19.83
  0
LWPOLYLINE
  5
1D3
100
AcDbEntity
  8
0
100
AcDbPolyline
 62
7
370
211
 90
2
 70
0
 10
4.6
 20
19.83
 10
4.8
 20
19.98
  0
LWPOLYLINE
  5
1D4
100
AcDbEntity
  8
0
100
AcDbPolyline
 62
7
370
211
 90
2
 70
0
 10
4.8
 20
19.98
 10
4.97
 20
20.11
  0
LWPOLYLINE
  5
1D5
100
AcDbEntity
  8
0
100
AcDbPolyline
 62
7
370
211
 90
2
 70
0
 10
4.97
 20
20.11
 10
5.17
 20
20.26
  0
LWPOLYLINE
  5
1D6
100
AcDbEntity
  8
0
100
AcDbPolyline
 62
7
370
211
 90
2
 70
0
 10
5.17
 20
20.26
 10
5.37
 20
20.38
  0
LWPOLYLINE
  5
1D7
100
AcDbEntity
  8
0
100
AcDbPolyline
 62
7
370
211
 90
2
 70
0
 10
5.37
 20
20.38
 10
5.57
 20
20.48
  0
LWPOLYLINE
  5
1D8
100
AcDbEntity
  8
0
100
AcDbPolyline
 62
7
370
211
 90
2
 70
0
 10
5.57
 20
20.48
 10
5.77
 20
20.61
  0
LWPOLYLINE
  5
1D9
100
AcDbEntity
  8
0
100
AcDbPolyline
 62
7
370
211
 90
2
 70
0
 10
5.77
 20
20.61
 10
6
 20
20.68
  0
LWPOLYLINE
  5
1DA
100
AcDbEntity
  8
0
100
AcDbPolyline
 62
7
370
211
 90
2
 70
0
 10
6
 20
20.68
 10
6.2
 20
20.76
  0
LWPOLYLINE
  5
1DB
100
AcDbEntity
  8
0
100
AcDbPolyline
 62
7
370
211
 90
2
 70
0
 10
6.2
 20
20.76
 10
5.87
 20
22.13
  0
LWPOLYLINE
  5
1DC
100
AcDbEntity
  8
0
100
AcDbPolyline
 62
7
370
211
 90
2
 70
0
 10
5.87
 20
22.13
 10
5.87
 20
22.13
  0
LWPOLYLINE
  5
1DD
100
AcDbEntity
  8
0
100
AcDbPolyline
 62
7
370
211
 90
2
 70
0
 10
5.87
 20
22.13
 10
5.65
 20
23.53
  0
LWPOLYLINE
  5
1DE
100
AcDbEntity
  8
0
100
AcDbPolyline
 62
7
370
211
 90
2
 70
0
 10
5.65
 20
23.53
 10
5.42
 20
23.51
  0
LWPOLYLINE
  5
1DF
100
AcDbEntity
  8
0
100
AcDbPolyline
 62
7
370
211
 90
2
 70
0
 10
5.42
 20
23.51
 10
5.2
 20
23.51
  0
LWPOLYLINE
  5
1E0
100
AcDbEntity
  8
0
100
AcDbPolyline
 62
7
370
211
 90
2
 70
0
 10
5.2
 20
23.51
 10
4.97
 20
23.53
  0
LWPOLYLINE
  5
1E1
100
AcDbEntity
  8
0
100
AcDbPolyline
 62
7
370
211
 90
2
 70
0
 10
4.97
 20
23.53
 10
4.75
 20
23.56
  0
LWPOLYLINE
  5
1E2
100
AcDbEntity
  8
0
100
AcDbPolyline
 62
7
370
211
 90
2
 70
0
 10
4.75
 20
23.56
 10
4.52
 20
23.61
  0
LWPOLYLINE
  5
1E3
100
AcDbEntity
  8
0
100
AcDbPolyline
 62
7
370
211
 90
2
 70
0
 10
4.52
 20
23.61
 10
4.27
 20
23.63
  0
LWPOLYLINE
  5
1E4
100
AcDbEntity
  8
0
100
AcDbPolyline
 62
7
370
211
 90
2
 70
0
 10
4.27
 20
23.63
 10
4.05
 20
23.71
  0
LWPOLYLINE
  5
1E5
100
AcDbEntity
  8
0
100
AcDbPolyline
 62
7
370
211
 90
2
 70
0
 10
4.05
 20
23.71
 10
3.82
 20
23.76
  0
LWPOLYLINE
  5
1E6
100
AcDbEntity
  8
0
100
AcDbPolyline
 62
7
370
211
 90
2
 70
0
 10
3.82
 20
23.76
 10
3.57
 20
23.83
  0
LWPOLYLINE
  5
1E7
100
AcDbEntity
  8
0
100
AcDbPolyline
 62
7
370
211
 90
2
 70
0
 10
3.57
 20
23.83
 10
3.35
 20
23.91
  0
LWPOLYLINE
  5
1E8
100
AcDbEntity
  8
0
100
AcDbPolyline
 62
7
370
211
 90
2
 70
0
 10
3.35
 20
23.91
 10
3.12
 20
24.01
  0
LWPOLYLINE
  5
1E9
100
AcDbEntity
  8
0
100
AcDbPolyline
 62
7
370
211
 90
2
 70
0
 10
3.12
 20
24.01
 10
2.87
 20
24.11
  0
LWPOLYLINE
  5
1EA
100
AcDbEntity
  8
0
100
AcDbPolyline
 62
7
370
211
 90
2
 70
0
 10
2.87
 20
24.11
 10
2.65
 20
24.18
  0
LWPOLYLINE
  5
1EB
100
AcDbEntity
  8
0
100
AcDbPolyline
 62
7
370
211
 90
2
 70
0
 10
2.65
 20
24.18
 10
2.4
 20
24.31
  0
LWPOLYLINE
  5
1EC
100
AcDbEntity
  8
0
100
AcDbPolyline
 62
7
370
211
 90
2
 70
0
 10
2.4
 20
24.31
 10
2.17
 20
24.41
  0
LWPOLYLINE
  5
1ED
100
AcDbEntity
  8
0
100
AcDbPolyline
 62
7
370
211
 90
2
 70
0
 10
2.17
 20
24.41
 10
1.95
 20
24.53
  0
LWPOLYLINE
  5
1EE
100
AcDbEntity
  8
0
100
AcDbPolyline
 62
7
370
211
 90
2
 70
0
 10
1.95
 20
24.53
 10
1.7
 20
24.66
  0
LWPOLYLINE
  5
1EF
100
AcDbEntity
  8
0
100
AcDbPolyline
 62
7
370
211
 90
2
 70
0
 10
1.7
 20
24.66
 10
1.47
 20
24.78
  0
LWPOLYLINE
  5
1F0
100
AcDbEntity
  8
0
100
AcDbPolyline
 62
7
370
211
 90
2
 70
0
 10
1.47
 20
24.78
 10
1.25
 20
24.91
  0
LWPOLYLINE
  5
1F1
100
AcDbEntity
  8
0
100
AcDbPolyline
 62
7
370
211
 90
2
 70
0
 10
1.25
 20
24.91
 10
1
 20
25.06
  0
LWPOLYLINE
  5
1F2
100
AcDbEntity
  8
0
100
AcDbPolyline
 62
7
370
211
 90
2
 70
0
 10
1
 20
25.06
 10
1
 20
27.26
  0
LWPOLYLINE
  5
1F3
100
AcDbEntity
  8
0
100
AcDbPolyline
 62
7
370
211
 90
2
 70
0
 10
1
 20
27.26
 10
1.25
 20
27.41
  0
LWPOLYLINE
  5
1F4
100
AcDbEntity
  8
0
100
AcDbPolyline
 62
7
370
211
 90
2
 70
0
 10
1.25
 20
27.41
 10
1.47
 20
27.56
  0
LWPOLYLINE
  5
1F5
100
AcDbEntity
  8
0
100
AcDbPolyline
 62
7
370
211
 90
2
 70
0
 10
1.47
 20
27.56
 10
1.7
 20
27.68
  0
LWPOLYLINE
  5
1F6
100
AcDbEntity
  8
0
100
AcDbPolyline
 62
7
370
211
 90
2
 70
0
 10
1.7
 20
27.68
 10
1.95
 20
27.81
  0
LWPOLYLINE
  5
1F7
100
AcDbEntity
  8
0
100
AcDbPolyline
 62
7
370
211
 90
2
 70
0
 10
1.95
 20
27.81
 10
2.17
 20
27.91
  0
LWPOLYLINE
  5
1F8
100
AcDbEntity
  8
0
100
AcDbPolyline
 62
7
370
211
 90
2
 70
0
 10
2.17
 20
27.91
 10
2.4
 20
28.03
  0
LWPOLYLINE
  5
1F9
100
AcDbEntity
  8
0
100
AcDbPolyline
 62
7
370
211
 90
2
 70
0
 10
2.4
 20
28.03
 10
2.65
 20
28.13
  0
LWPOLYLINE
  5
1FA
100
AcDbEntity
  8
0
100
AcDbPolyline
 62
7
370
211
 90
2
 70
0
 10
2.65
 20
28.13
 10
2.87
 20
28.23
  0
LWPOLYLINE
  5
1FB
100
AcDbEntity
  8
0
100
AcDbPolyline
 62
7
370
211
 90
2
 70
0
 10
2.87
 20
28.23
 10
3.12
 20
28.33
  0
LWPOLYLINE
  5
1FC
100
AcDbEntity
  8
0
100
AcDbPolyline
 62
7
370
211
 90
2
 70
0
 10
3.12
 20
28.33
 10
3.35
 20
28.41
  0
LWPOLYLINE
  5
1FD
100
AcDbEntity
  8
0
100
AcDbPolyline
 62
7
370
211
 90
2
 70
0
 10
3.35
 20
28.41
 10
3.57
 20
28.48
  0
LWPOLYLINE
  5
1FE
100
AcDbEntity
  8
0
100
AcDbPolyline
 62
7
370
211
 90
2
 70
0
 10
3.57
 20
28.48
 10
3.82
 20
28.56
  0
LWPOLYLINE
  5
1FF
100
AcDbEntity
  8
0
100
AcDbPolyline
 62
7
370
211
 90
2
 70
0
 10
3.82
 20
28.56
 10
4.05
 20
28.63
  0
LWPOLYLINE
  5
200
100
AcDbEntity
  8
0
100
AcDbPolyline
 62
7
370
211
 90
2
 70
0
 10
4.05
 20
28.63
 10
4.27
 20
28.68
  0
LWPOLYLINE
  5
201
100
AcDbEntity
  8
0
100
AcDbPolyline
 62
7
370
211
 90
2
 70
0
 10
4.27
 20
28.68
 10
4.52
 20
28.73
  0
LWPOLYLINE
  5
202
100
AcDbEntity
  8
0
100
AcDbPolyline
 62
7
370
211
 90
2
 70
0
 10
4.52
 20
28.73
 10
4.75
 20
28.78
  0
LWPOLYLINE
  5
203
100
AcDbEntity
  8
0
100
AcDbPolyline
 62
7
370
211
 90
2
 70
0
 10
4.75
 20
28.78
 10
4.97
 20
28.81
  0
LWPOLYLINE
  5
204
100
AcDbEntity
  8
0
100
AcDbPolyline
 62
7
370
211
 90
2
 70
0
 10
4.97
 20
28.81
 10
5.2
 20
28.81
  0
LWPOLYLINE
  5
205
100
AcDbEntity
  8
0
100
AcDbPolyline
 62
7
370
211
 90
2
 70
0
 10
5.2
 20
28.81
 10
5.42
 20
28.83
  0
LWPOLYLINE
  5
206
100
AcDbEntity
  8
0
100
AcDbPolyline
 62
7
370
211
 90
2
 70
0
 10
5.42
 20
28.83
 10
5.65
 20
28.81
  0
LWPOLYLINE
  5
207
100
AcDbEntity
  8
0
100
AcDbPolyline
 62
7
370
211
 90
2
 70
0
 10
5.65
 20
28.81
 10
5.87
 20
30.21
  0
LWPOLYLINE
  5
208
100
AcDbEntity
  8
0
100
AcDbPolyline
 62
7
370
211
 90
2
 70
0
 10
5.87
 20
30.21
 10
5.87
 20
30.21
  0
LWPOLYLINE
  5
209
100
AcDbEntity
  8
0
100
AcDbPolyline
 62
7
370
211
 90
2
 70
0
 10
5.87
 20
30.21
 10
6.2
 20
31.56
  0
LWPOLYLINE
  5
20A
100
AcDbEntity
  8
0
100
AcDbPolyline
 62
7
370
211
 90
2
 70
0
 10
6.2
 20
31.56
 10
6
 20
31.63
  0
LWPOLYLINE
  5
20B
100
AcDbEntity
  8
0
100
AcDbPolyline
 62
7
370
211
 90
2
 70
0
 10
6
 20
31.63
 10
5.77
 20
31.73
  0
LWPOLYLINE
  5
20C
100
AcDbEntity
  8
0
100
AcDbPolyline
 62
7
370
211
 90
2
 70
0
 10
5.77
 20
31.73
 10
5.57
 20
31.83
  0
LWPOLYLINE
  5
20D
100
AcDbEntity
  8
0
100
AcDbPolyline
 62
7
370
211
 90
2
 70
0
 10
5.57
 20
31.83
 10
5.37
 20
31.96
  0
LWPOLYLINE
  5
20E
100
AcDbEntity
  8
0
100
AcDbPolyline
 62
7
370
211
 90
2
 70
0
 10
5.37
 20
31.96
 10
5.17
 20
32.08
  0
LWPOLYLINE
  5
20F
100
AcDbEntity
  8
0
100
AcDbPolyline
 62
7
370
211
 90
2
 70
0
 10
5.17
 20
32.08
 10
4.97
 20
32.21
  0
LWPOLYLINE
  5
210
100
AcDbEntity
  8
0
100
AcDbPolyline
 62
7
370
211
 90
2
 70
0
 10
4.97
 20
32.21
 10
4.8
 20
32.36
  0
LWPOLYLINE
  5
211
100
AcDbEntity
  8
0
100
AcDbPolyline
 62
7
370
211
 90
2
 70
0
 10
4.8
 20
32.36
 10
4.6
 20
32.51
  0
LWPOLYLINE
  5
212
100
AcDbEntity
  8
0
100
AcDbPolyline
 62
7
370
211
 90
2
 70
0
 10
4.6
 20
32.51
 10
4.4
 20
32.66
  0
LWPOLYLINE
  5
213
100
AcDbEntity
  8
0
100
AcDbPolyline
 62
7
370
211
 90
2
 70
0
 10
4.4
 20
32.66
 10
4.22
 20
32.81
  0
LWPOLYLINE
  5
214
100
AcDbEntity
  8
0
100
AcDbPolyline
 62
7
370
211
 90
2
 70
0
 10
4.22
 20
32.81
 10
4.05
 20
32.98
  0
LWPOLYLINE
  5
215
100
AcDbEntity
  8
0
100
AcDbPolyline
 62
7
370
211
 90
2
 70
0
 10
4.05
 20
32.98
 10
3.85
 20
33.16
  0
LWPOLYLINE
  5
216
100
AcDbEntity
  8
0
100
AcDbPolyline
 62
7
370
211
 90
2
 70
0
 10
3.85
 20
33.16
 10
3.67
 20
33.33
  0
LWPOLYLINE
  5
217
100
AcDbEntity
  8
0
100
AcDbPolyline
 62
7
370
211
 90
2
 70
0
 10
3.67
 20
33.33
 10
3.5
 20
33.53
  0
LWPOLYLINE
  5
218
100
AcDbEntity
  8
0
100
AcDbPolyline
 62
7
370
211
 90
2
 70
0
 10
3.5
 20
33.53
 10
3.32
 20
33.73
  0
LWPOLYLINE
  5
219
100
AcDbEntity
  8
0
100
AcDbPolyline
 62
7
370
211
 90
2
 70
0
 10
3.32
 20
33.73
 10
3.15
 20
33.91
  0
LWPOLYLINE
  5
21A
100
AcDbEntity
  8
0
100
AcDbPolyline
 62
7
370
211
 90
2
 70
0
 10
3.15
 20
33.91
 10
3
 20
34.13
  0
LWPOLYLINE
  5
21B
100
AcDbEntity
  8
0
100
AcDbPolyline
 62
7
370
211
 90
2
 70
0
 10
3
 20
34.13
 10
2.82
 20
34.33
  0
LWPOLYLINE
  5
21C
100
AcDbEntity
  8
0
100
AcDbPolyline
 62
7
370
211
 90
2
 70
0
 10
2.82
 20
34.33
 10
2.67
 20
34.53
  0
LWPOLYLINE
  5
21D
100
AcDbEntity
  8
0
100
AcDbPolyline
 62
7
370
211
 90
2
 70
0
 10
2.67
 20
34.53
 10
2.5
 20
34.76
  0
LWPOLYLINE
  5
21E
100
AcDbEntity
  8
0
100
AcDbPolyline
 62
7
370
211
 90
2
 70
0
 10
2.5
 20
34.76
 10
3.35
 20
36.81
  0
LWPOLYLINE
  5
21F
100
AcDbEntity
  8
0
100
AcDbPolyline
 62
7
370
211
 90
2
 70
0
 10
3.35
 20
36.81
 10
3.62
 20
36.86
  0
LWPOLYLINE
  5
220
100
AcDbEntity
  8
0
100
AcDbPolyline
 62
7
370
211
 90
2
 70
0
 10
3.62
 20
36.86
 10
3.87
 20
36.88
  0
LWPOLYLINE
  5
221
100
AcDbEntity
  8
0
100
AcDbPolyline
 62
7
370
211
 90
2
 70
0
 10
3.87
 20
36.88
 10
4.15
 20
36.91
  0
LWPOLYLINE
  5
222
100
AcDbEntity
  8
0
100
AcDbPolyline
 62
7
370
211
 90
2
 70
0
 10
4.15
 20
36.91
 10
4.4
 20
36.93
  0
LWPOLYLINE
  5
223
100
AcDbEntity
  8
0
100
AcDbPolyline
 62
7
370
211
 90
2
 70
0
 10
4.4
 20
36.93
 10
4.67
 20
36.96
  0
LWPOLYLINE
  5
224
100
AcDbEntity
  8
0
100
AcDbPolyline
 62
7
370
211
 90
2
 70
0
 10
4.67
 20
36.96
 10
4.92
 20
36.98
  0
LWPOLYLINE
  5
225
100
AcDbEntity
  8
0
100
AcDbPolyline
 62
7
370
211
 90
2
 70
0
 10
4.92
 20
36.98
 10
5.2
 20
36.98
  0
LWPOLYLINE
  5
226
100
AcDbEntity
  8
0
100
AcDbPolyline
 62
7
370
211
 90
2
 70
0
 10
5.2
 20
36.98
 10
5.45
 20
36.98
  0
LWPOLYLINE
  5
227
100
AcDbEntity
  8
0
100
AcDbPolyline
 62
7
370
211
 90
2
 70
0
 10
5.45
 20
36.98
 10
5.7
 20
36.98
  0
LWPOLYLINE
  5
228
100
AcDbEntity
  8
0
100
AcDbPolyline
 62
7
370
211
 90
2
 70
0
 10
5.7
 20
36.98
 10
5.95
 20
36.96
  0
LWPOLYLINE
  5
229
100
AcDbEntity
  8
0
100
AcDbPolyline
 62
7
370
211
 90
2
 70
0
 10
5.95
 20
36.96
 10
6.2
 20
36.96
  0
LWPOLYLINE
  5
22A
100
AcDbEntity
  8
0
100
AcDbPolyline
 62
7
370
211
 90
2
 70
0
 10
6.2
 20
36.96
 10
6.42
 20
36.93
  0
LWPOLYLINE
  5
22B
100
AcDbEntity
  8
0
100
AcDbPolyline
 62
7
370
211
 90
2
 70
0
 10
6.42
 20
36.93
 10
6.67
 20
36.91
  0
LWPOLYLINE
  5
22C
100
AcDbEntity
  8
0
100
AcDbPolyline
 62
7
370
211
 90
2
 70
0
 10
6.67
 20
36.91
 10
6.9
 20
36.86
  0
LWPOLYLINE
  5
22D
100
AcDbEntity
  8
0
100
AcDbPolyline
 62
7
370
211
 90
2
 70
0
 10
6.9
 20
36.86
 10
7.15
 20
36.81
  0
LWPOLYLINE
  5
22E
100
AcDbEntity
  8
0
100
AcDbPolyline
 62
7
370
211
 90
2
 70
0
 10
7.15
 20
36.81
 10
7.37
 20
36.76
  0
LWPOLYLINE
  5
22F
100
AcDbEntity
  8
0
100
AcDbPolyline
 62
7
370
211
 90
2
 70
0
 10
7.37
 20
36.76
 10
7.6
 20
36.71
  0
LWPOLYLINE
  5
230
100
AcDbEntity
  8
0
100
AcDbPolyline
 62
7
370
211
 90
2
 70
0
 10
7.6
 20
36.71
 10
7.82
 20
36.63
  0
LWPOLYLINE
  5
231
100
AcDbEntity
  8
0
100
AcDbPolyline
 62
7
370
211
 90
2
 70
0
 10
7.82
 20
36.63
 10
8.02
 20
36.56
  0
LWPOLYLINE
  5
232
100
AcDbEntity
  8
0
100
AcDbPolyline
 62
7
370
211
 90
2
 70
0
 10
8.02
 20
36.56
 10
8.22
 20
36.46
  0
LWPOLYLINE
  5
233
100
AcDbEntity
  8
0
100
AcDbPolyline
 62
7
370
211
 90
2
 70
0
 10
8.22
 20
36.46
 10
8.97
 20
37.66
  0
LWPOLYLINE
  5
234
100
AcDbEntity
  8
0
100
AcDbPolyline
 62
7
370
211
 90
2
 70
0
 10
8.97
 20
37.66
 10
8.97
 20
37.66
  0
LWPOLYLINE
  5
235
100
AcDbEntity
  8
0
100
AcDbPolyline
 62
7
370
211
 90
2
 70
0
 10
8.97
 20
37.66
 10
9.8
 20
38.78
  0
LWPOLYLINE
  5
236
100
AcDbEntity
  8
0
100
AcDbPolyline
 62
7
370
211
 90
2
 70
0
 10
9.8
 20
38.78
 10
9.62
 20
38.93
  0
LWPOLYLINE
  5
237
100
AcDbEntity
  8
0
100
AcDbPolyline
 62
7
370
211
 90
2
 70
0
 10
9.62
 20
38.93
 10
9.47
 20
39.11
  0
LWPOLYLINE
  5
238
100
AcDbEntity
  8
0
100
AcDbPolyline
 62
7
370
211
 90
2
 70
0
 10
9.47
 20
39.11
 10
9.32
 20
39.28
  0
LWPOLYLINE
  5
239
100
AcDbEntity
  8
0
100
AcDbPolyline
 62
7
370
211
 90
2
 70
0
 10
9.32
 20
39.28
 10
9.17
 20
39.46
  0
LWPOLYLINE
  5
23A
100
AcDbEntity
  8
0
100
AcDbPolyline
 62
7
370
211
 90
2
 70
0
 10
9.17
 20
39.46
 10
9.05
 20
39.66
  0
LWPOLYLINE
  5
23B
100
AcDbEntity
  8
0
100
AcDbPolyline
 62
7
370
211
 90
2
 70
0
 10
9.05
 20
39.66
 10
8.9
 20
39.86
  0
LWPOLYLINE
  5
23C
100
AcDbEntity
  8
0
100
AcDbPolyline
 62
7
370
211
 90
2
 70
0
 10
8.9
 20
39.86
 10
8.77
 20
40.06
  0
LWPOLYLINE
  5
23D
100
AcDbEntity
  8
0
100
AcDbPolyline
 62
7
370
211
 90
2
 70
0
 10
8.77
 20
40.06
 10
8.67
 20
40.26
  0
LWPOLYLINE
  5
23E
100
AcDbEntity
  8
0
100
AcDbPolyline
 62
7
370
211
 90
2
 70
0
 10
8.67
 20
40.26
 10
8.55
 20
40.48
  0
LWPOLYLINE
  5
23F
100
AcDbEntity
  8
0
100
AcDbPolyline
 62
7
370
211
 90
2
 70
0
 10
8.55
 20
40.48
 10
8.45
 20
40.71
  0
LWPOLYLINE
  5
240
100
AcDbEntity
  8
0
100
AcDbPolyline
 62
7
370
211
 90
2
 70
0
 10
8.45
 20
40.71
 10
8.32
 20
40.93
  0
LWPOLYLINE
  5
241
100
AcDbEntity
  8
0
100
AcDbPolyline
 62
7
370
211
 90
2
 70
0
 10
8.32
 20
40.93
 10
8.22
 20
41.16
  0
LWPOLYLINE
  5
242
100
AcDbEntity
  8
0
100
AcDbPolyline
 62
7
370
211
 90
2
 70
0
 10
8.22
 20
41.16
 10
8.15
 20
41.41
  0
LWPOLYLINE
  5
243
100
AcDbEntity
  8
0
100
AcDbPolyline
 62
7
370
211
 90
2
 70
0
 10
8.15
 20
41.41
 10
8.05
 20
41.63
  0
LWPOLYLINE
  5
244
100
AcDbEntity
  8
0
100
AcDbPolyline
 62
7
370
211
 90
2
 70
0
 10
8.05
 20
41.63
 10
7.95
 20
41.88
  0
LWPOLYLINE
  5
245
100
AcDbEntity
  8
0
100
AcDbPolyline
 62
7
370
211
 90
2
 70
0
 10
7.95
 20
41.88
 10
7.87
 20
42.13
  0
LWPOLYLINE
  5
246
100
AcDbEntity
  8
0
100
AcDbPolyline
 62
7
370
211
 90
2
 70
0
 10
7.87
 20
42.13
 10
7.8
 20
42.38
  0
LWPOLYLINE
  5
247
100
AcDbEntity
  8
0
100
AcDbPolyline
 62
7
370
211
 90
2
 70
0
 10
7.8
 20
42.38
 10
7.72
 20
42.63
  0
LWPOLYLINE
  5
248
100
AcDbEntity
  8
0
100
AcDbPolyline
 62
7
370
211
 90
2
 70
0
 10
7.72
 20
42.63
 10
7.65
 20
42.91
  0
LWPOLYLINE
  5
249
100
AcDbEntity
  8
0
100
AcDbPolyline
 62
7
370
211
 90
2
 70
0
 10
7.65
 20
42.91
 10
7.6
 20
43.16
  0
LWPOLYLINE
  5
24A
100
AcDbEntity
  8
0
100
AcDbPolyline
 62
7
370
211
 90
2
 70
0
 10
7.6
 20
43.16
 10
9.15
 20
44.73
  0
LWPOLYLINE
  5
24B
100
AcDbEntity
  8
0
100
AcDbPolyline
 62
7
370
211
 90
2
 70
0
 10
9.15
 20
44.73
 10
9.42
 20
44.66
  0
LWPOLYLINE
  5
24C
100
AcDbEntity
  8
0
100
AcDbPolyline
 62
7
370
211
 90
2
 70
0
 10
9.42
 20
44.66
 10
9.67
 20
44.58
  0
LWPOLYLINE
  5
24D
100
AcDbEntity
  8
0
100
AcDbPolyline
 62
7
370
211
 90
2
 70
0
 10
9.67
 20
44.58
 10
9.95
 20
44.51
  0
LWPOLYLINE
  5
24E
100
AcDbEntity
  8
0
100
AcDbPolyline
 62
7
370
211
 90
2
 70
0
 10
9.95
 20
44.51
 10
10.2
 20
44.43
  0
LWPOLYLINE
  5
24F
100
AcDbEntity
  8
0
100
AcDbPolyline
 62
7
370
211
 90
2
 70
0
 10
10.2
 20
44.43
 10
10.45
 20
44.36
  0
LWPOLYLINE
  5
250
100
AcDbEntity
  8
0
100
AcDbPolyline
 62
7
370
211
 90
2
 70
0
 10
10.45
 20
44.36
 10
10.67
 20
44.28
  0
LWPOLYLINE
  5
251
100
AcDbEntity
  8
0
100
AcDbPolyline
 62
7
370
211
 90
2
 70
0
 10
10.67
 20
44.28
 10
10.92
 20
44.18
  0
LWPOLYLINE
  5
252
100
AcDbEntity
  8
0
100
AcDbPolyline
 62
7
370
211
 90
2
 70
0
 10
10.92
 20
44.18
 10
11.15
 20
44.08
  0
LWPOLYLINE
  5
253
100
AcDbEntity
  8
0
100
AcDbPolyline
 62
7
370
211
 90
2
 70
0
 10
11.15
 20
44.08
 10
11.4
 20
43.98
  0
LWPOLYLINE
  5
254
100
AcDbEntity
  8
0
100
AcDbPolyline
 62
7
370
211
 90
2
 70
0
 10
11.4
 20
43.98
 10
11.62
 20
43.88
  0
LWPOLYLINE
  5
255
100
AcDbEntity
  8
0
100
AcDbPolyline
 62
7
370
211
 90
2
 70
0
 10
11.62
 20
43.88
 10
11.85
 20
43.76
  0
LWPOLYLINE
  5
256
100
AcDbEntity
  8
0
100
AcDbPolyline
 62
7
370
211
 90
2
 70
0
 10
11.85
 20
43.76
 10
12.05
 20
43.66
  0
LWPOLYLINE
  5
257
100
AcDbEntity
  8
0
100
AcDbPolyline
 62
7
370
211
 90
2
 70
0
 10
12.05
 20
43.66
 10
12.27
 20
43.53
  0
LWPOLYLINE
  5
258
100
AcDbEntity
  8
0
100
AcDbPolyline
 62
7
370
211
 90
2
 70
0
 10
12.27
 20
43.53
 10
12.47
 20
43.41
  0
LWPOLYLINE
  5
259
100
AcDbEntity
  8
0
100
AcDbPolyline
 62
7
370
211
 90
2
 70
0
 10
12.47
 20
43.41
 10
12.67
 20
43.28
  0
LWPOLYLINE
  5
25A
100
AcDbEntity
  8
0
100
AcDbPolyline
 62
7
370
211
 90
2
 70
0
 10
12.67
 20
43.28
 10
12.85
 20
43.16
  0
LWPOLYLINE
  5
25B
100
AcDbEntity
  8
0
100
AcDbPolyline
 62
7
370
211
 90
2
 70
0
 10
12.85
 20
43.16
 10
13.05
 20
43.01
  0
LWPOLYLINE
  5
25C
100
AcDbEntity
  8
0
100
AcDbPolyline
 62
7
370
211
 90
2
 70
0
 10
13.05
 20
43.01
 10
13.22
 20
42.86
  0
LWPOLYLINE
  5
25D
100
AcDbEntity
  8
0
100
AcDbPolyline
 62
7
370
211
 90
2
 70
0
 10
13.22
 20
42.86
 10
13.37
 20
42.71
  0
LWPOLYLINE
  5
25E
100
AcDbEntity
  8
0
100
AcDbPolyline
 62
7
370
211
 90
2
 70
0
 10
13.37
 20
42.71
 10
13.52
 20
42.53
  0
LWPOLYLINE
  5
25F
100
AcDbEntity
  8
0
100
AcDbPolyline
 62
7
370
211
 90
2
 70
0
 10
13.52
 20
42.53
 10
14.67
 20
43.36
  0
LWPOLYLINE
  5
260
100
AcDbEntity
  8
0
100
AcDbPolyline
 62
7
370
211
 90
2
 70
0
 10
14.67
 20
43.36
 10
14.67
 20
43.36
  0
LWPOLYLINE
  5
261
100
AcDbEntity
  8
0
100
AcDbPolyline
 62
7
370
211
 90
2
 70
0
 10
14.67
 20
43.36
 10
15.87
 20
44.08
  0
LWPOLYLINE
  5
262
100
AcDbEntity
  8
0
100
AcDbPolyline
 62
7
370
211
 90
2
 70
0
 10
15.87
 20
44.08
 10
15.77
 20
44.28
  0
LWPOLYLINE
  5
263
100
AcDbEntity
  8
0
100
AcDbPolyline
 62
7
370
211
 90
2
 70
0
 10
15.77
 20
44.28
 10
15.67
 20
44.51
  0
LWPOLYLINE
  5
264
100
AcDbEntity
  8
0
100
AcDbPolyline
 62
7
370
211
 90
2
 70
0
 10
15.67
 20
44.51
 10
15.62
 20
44.73
  0
LWPOLYLINE
  5
265
100
AcDbEntity
  8
0
100
AcDbPolyline
 62
7
370
211
 90
2
 70
0
 10
15.62
 20
44.73
 10
15.55
 20
44.96
  0
LWPOLYLINE
  5
266
100
AcDbEntity
  8
0
100
AcDbPolyline
 62
7
370
211
 90
2
 70
0
 10
15.55
 20
44.96
 10
15.5
 20
45.18
  0
LWPOLYLINE
  5
267
100
AcDbEntity
  8
0
100
AcDbPolyline
 62
7
370
211
 90
2
 70
0
 10
15.5
 20
45.18
 10
15.45
 20
45.41
  0
LWPOLYLINE
  5
268
100
AcDbEntity
  8
0
100
AcDbPolyline
 62
7
370
211
 90
2
 70
0
 10
15.45
 20
45.41
 10
15.42
 20
45.66
  0
LWPOLYLINE
  5
269
100
AcDbEntity
  8
0
100
AcDbPolyline
 62
7
370
211
 90
2
 70
0
 10
15.42
 20
45.66
 10
15.4
 20
45.88
  0
LWPOLYLINE
  5
26A
100
AcDbEntity
  8
0
100
AcDbPolyline
 62
7
370
211
 90
2
 70
0
 10
15.4
 20
45.88
 10
15.37
 20
46.13
  0
LWPOLYLINE
  5
26B
100
AcDbEntity
  8
0
100
AcDbPolyline
 62
7
370
211
 90
2
 70
0
 10
15.37
 20
46.13
 10
15.35
 20
46.38
  0
LWPOLYLINE
  5
26C
100
AcDbEntity
  8
0
100
AcDbPolyline
 62
7
370
211
 90
2
 70
0
 10
15.35
 20
46.38
 10
15.35
 20
46.63
  0
LWPOLYLINE
  5
26D
100
AcDbEntity
  8
0
100
AcDbPolyline
 62
7
370
211
 90
2
 70
0
 10
15.35
 20
46.63
 10
15.32
 20
46.88
  0
LWPOLYLINE
  5
26E
100
AcDbEntity
  8
0
100
AcDbPolyline
 62
7
370
211
 90
2
 70
0
 10
15.32
 20
46.88
 10
15.35
 20
47.13
  0
LWPOLYLINE
  5
26F
100
AcDbEntity
  8
0
100
AcDbPolyline
 62
7
370
211
 90
2
 70
0
 10
15.35
 20
47.13
 10
15.35
 20
47.38
  0
LWPOLYLINE
  5
270
100
AcDbEntity
  8
0
100
AcDbPolyline
 62
7
370
211
 90
2
 70
0
 10
15.35
 20
47.38
 10
15.35
 20
47.66
  0
LWPOLYLINE
  5
271
100
AcDbEntity
  8
0
100
AcDbPolyline
 62
7
370
211
 90
2
 70
0
 10
15.35
 20
47.66
 10
15.37
 20
47.91
  0
LWPOLYLINE
  5
272
100
AcDbEntity
  8
0
100
AcDbPolyline
 62
7
370
211
 90
2
 70
0
 10
15.37
 20
47.91
 10
15.4
 20
48.18
  0
LWPOLYLINE
  5
273
100
AcDbEntity
  8
0
100
AcDbPolyline
 62
7
370
211
 90
2
 70
0
 10
15.4
 20
48.18
 10
15.42
 20
48.43
  0
LWPOLYLINE
  5
274
100
AcDbEntity
  8
0
100
AcDbPolyline
 62
7
370
211
 90
2
 70
0
 10
15.42
 20
48.43
 10
15.47
 20
48.71
  0
LWPOLYLINE
  5
275
100
AcDbEntity
  8
0
100
AcDbPolyline
 62
7
370
211
 90
2
 70
0
 10
15.47
 20
48.71
 10
15.5
 20
48.96
  0
LWPOLYLINE
  5
276
100
AcDbEntity
  8
0
100
AcDbPolyline
 62
7
370
211
 90
2
 70
0
 10
15.5
 20
48.96
 10
17.55
 20
49.81
  0
LWPOLYLINE
  5
277
100
AcDbEntity
  8
0
100
AcDbPolyline
 62
7
370
211
 90
2
 70
0
 10
17.55
 20
49.81
 10
17.77
 20
49.66
  0
LWPOLYLINE
  5
278
100
AcDbEntity
  8
0
100
AcDbPolyline
 62
7
370
211
 90
2
 70
0
 10
17.77
 20
49.66
 10
18
 20
49.48
  0
LWPOLYLINE
  5
279
100
AcDbEntity
  8
0
100
AcDbPolyline
 62
7
370
211
 90
2
 70
0
 10
18
 20
49.48
 10
18.2
 20
49.33
  0
LWPOLYLINE
  5
27A
100
AcDbEntity
  8
0
100
AcDbPolyline
 62
7
370
211
 90
2
 70
0
 10
18.2
 20
49.33
 10
18.4
 20
49.16
  0
LWPOLYLINE
  5
27B
100
AcDbEntity
  8
0
100
AcDbPolyline
 62
7
370
211
 90
2
 70
0
 10
18.4
 20
49.16
 10
18.6
 20
48.98
  0
LWPOLYLINE
  5
27C
100
AcDbEntity
  8
0
100
AcDbPolyline
 62
7
370
211
 90
2
 70
0
 10
18.6
 20
48.98
 10
18.8
 20
48.81
  0
LWPOLYLINE
  5
27D
100
AcDbEntity
  8
0
100
AcDbPolyline
 62
7
370
211
 90
2
 70
0
 10
18.8
 20
48.81
 10
18.97
 20
48.63
  0
LWPOLYLINE
  5
27E
100
AcDbEntity
  8
0
100
AcDbPolyline
 62
7
370
211
 90
2
 70
0
 10
18.97
 20
48.63
 10
19.15
 20
48.46
  0
LWPOLYLINE
  5
27F
100
AcDbEntity
  8
0
100
AcDbPolyline
 62
7
370
211
 90
2
 70
0
 10
19.15
 20
48.46
 10
19.32
 20
48.28
  0
LWPOLYLINE
  5
280
100
AcDbEntity
  8
0
100
AcDbPolyline
 62
7
370
211
 90
2
 70
0
 10
19.32
 20
48.28
 10
19.5
 20
48.08
  0
LWPOLYLINE
  5
281
100
AcDbEntity
  8
0
100
AcDbPolyline
 62
7
370
211
 90
2
 70
0
 10
19.5
 20
48.08
 10
19.67
 20
47.91
  0
LWPOLYLINE
  5
282
100
AcDbEntity
  8
0
100
AcDbPolyline
 62
7
370
211
 90
2
 70
0
 10
19.67
 20
47.91
 10
19.82
 20
47.73
  0
LWPOLYLINE
  5
283
100
AcDbEntity
  8
0
100
AcDbPolyline
 62
7
370
211
 90
2
 70
0
 10
19.82
 20
47.73
 10
19.97
 20
47.53
  0
LWPOLYLINE
  5
284
100
AcDbEntity
  8
0
100
AcDbPolyline
 62
7
370
211
 90
2
 70
0
 10
19.97
 20
47.53
 10
20.1
 20
47.33
  0
LWPOLYLINE
  5
285
100
AcDbEntity
  8
0
100
AcDbPolyline
 62
7
370
211
 90
2
 70
0
 10
20.1
 20
47.33
 10
20.25
 20
47.13
  0
LWPOLYLINE
  5
286
100
AcDbEntity
  8
0
100
AcDbPolyline
 62
7
370
211
 90
2
 70
0
 10
20.25
 20
47.13
 10
20.37
 20
46.93
  0
LWPOLYLINE
  5
287
100
AcDbEntity
  8
0
100
AcDbPolyline
 62
7
370
211
 90
2
 70
0
 10
20.37
 20
46.93
 10
20.47
 20
46.73
  0
LWPOLYLINE
  5
288
100
AcDbEntity
  8
0
100
AcDbPolyline
 62
7
370
211
 90
2
 70
0
 10
20.47
 20
46.73
 10
20.6
 20
46.53
  0
LWPOLYLINE
  5
289
100
AcDbEntity
  8
0
100
AcDbPolyline
 62
7
370
211
 90
2
 70
0
 10
20.6
 20
46.53
 10
20.67
 20
46.33
  0
LWPOLYLINE
  5
28A
100
AcDbEntity
  8
0
100
AcDbPolyline
 62
7
370
211
 90
2
 70
0
 10
20.67
 20
46.33
 10
20.75
 20
46.11
  0
LWPOLYLINE
  5
28B
100
AcDbEntity
  8
0
100
AcDbPolyline
 62
7
370
211
 90
2
 70
0
 10
20.75
 20
46.11
 10
22.12
 20
46.43
  0
LWPOLYLINE
  5
28C
100
AcDbEntity
  8
0
100
AcDbPolyline
 62
7
370
211
 90
2
 70
0
 10
22.12
 20
46.43
 10
22.12
 20
46.43
  0
LWPOLYLINE
  5
28D
100
AcDbEntity
  8
0
100
AcDbPolyline
 62
7
370
211
 90
2
 70
0
 10
22.12
 20
46.43
 10
23.52
 20
46.66
  0
LWPOLYLINE
  5
28E
100
AcDbEntity
  8
0
100
AcDbPolyline
 62
7
370
211
 90
2
 70
0
 10
23.52
 20
46.66
 10
23.5
 20
46.88
  0
LWPOLYLINE
  5
28F
100
AcDbEntity
  8
0
100
AcDbPolyline
 62
7
370
211
 90
2
 70
0
 10
23.5
 20
46.88
 10
23.5
 20
47.11
  0
LWPOLYLINE
  5
290
100
AcDbEntity
  8
0
100
AcDbPolyline
 62
7
370
211
 90
2
 70
0
 10
23.5
 20
47.11
 10
23.52
 20
47.33
  0
LWPOLYLINE
  5
291
100
AcDbEntity
  8
0
100
AcDbPolyline
 62
7
370
211
 90
2
 70
0
 10
23.52
 20
47.33
 10
23.55
 20
47.58
  0
LWPOLYLINE
  5
292
100
AcDbEntity
  8
0
100
AcDbPolyline
 62
7
370
211
 90
2
 70
0
 10
23.55
 20
47.58
 10
23.6
 20
47.81
  0
LWPOLYLINE
  5
293
100
AcDbEntity
  8
0
100
AcDbPolyline
 62
7
370
211
 90
2
 70
0
 10
23.6
 20
47.81
 10
23.62
 20
48.03
  0
LWPOLYLINE
  5
294
100
AcDbEntity
  8
0
100
AcDbPolyline
 62
7
370
211
 90
2
 70
0
 10
23.62
 20
48.03
 10
23.7
 20
48.26
  0
LWPOLYLINE
  5
295
100
AcDbEntity
  8
0
100
AcDbPolyline
 62
7
370
211
 90
2
 70
0
 10
23.7
 20
48.26
 10
23.75
 20
48.51
  0
LWPOLYLINE
  5
296
100
AcDbEntity
  8
0
100
AcDbPolyline
 62
7
370
211
 90
2
 70
0
 10
23.75
 20
48.51
 10
23.82
 20
48.73
  0
LWPOLYLINE
  5
297
100
AcDbEntity
  8
0
100
AcDbPolyline
 62
7
370
211
 90
2
 70
0
 10
23.82
 20
48.73
 10
23.9
 20
48.98
  0
LWPOLYLINE
  5
298
100
AcDbEntity
  8
0
100
AcDbPolyline
 62
7
370
211
 90
2
 70
0
 10
23.9
 20
48.98
 10
24
 20
49.21
  0
LWPOLYLINE
  5
299
100
AcDbEntity
  8
0
100
AcDbPolyline
 62
7
370
211
 90
2
 70
0
 10
24
 20
49.21
 10
24.1
 20
49.43
  0
LWPOLYLINE
  5
29A
100
AcDbEntity
  8
0
100
AcDbPolyline
 62
7
370
211
 90
2
 70
0
 10
24.1
 20
49.43
 10
24.17
 20
49.68
  0
LWPOLYLINE
  5
29B
100
AcDbEntity
  8
0
100
AcDbPolyline
 62
7
370
211
 90
2
 70
0
 10
24.17
 20
49.68
 10
24.3
 20
49.91
  0
LWPOLYLINE
  5
29C
100
AcDbEntity
  8
0
100
AcDbPolyline
 62
7
370
211
 90
2
 70
0
 10
24.3
 20
49.91
 10
24.4
 20
50.13
  0
LWPOLYLINE
  5
29D
100
AcDbEntity
  8
0
100
AcDbPolyline
 62
7
370
211
 90
2
 70
0
 10
24.4
 20
50.13
 10
24.52
 20
50.38
  0
LWPOLYLINE
  5
29E
100
AcDbEntity
  8
0
100
AcDbPolyline
 62
7
370
211
 90
2
 70
0
 10
24.52
 20
50.38
 10
24.65
 20
50.61
  0
LWPOLYLINE
  5
29F
100
AcDbEntity
  8
0
100
AcDbPolyline
 62
7
370
211
 90
2
 70
0
 10
24.65
 20
50.61
 10
24.77
 20
50.83
  0
LWPOLYLINE
  5
2A0
100
AcDbEntity
  8
0
100
AcDbPolyline
 62
7
370
211
 90
2
 70
0
 10
24.77
 20
50.83
 10
24.9
 20
51.08
  0
LWPOLYLINE
  5
2A1
100
AcDbEntity
  8
0
100
AcDbPolyline
 62
7
370
211
 90
2
 70
0
 10
24.9
 20
51.08
 10
25.05
 20
51.31
  0
LWPOLYLINE
  5
2A2
100
AcDbEntity
  8
0
100
AcDbPolyline
 62
7
370
211
 90
2
 70
0
 10
25.05
 20
51.31
 10
27.25
 20
51.31
  0
LWPOLYLINE
  5
2A3
100
AcDbEntity
  8
0
100
AcDbPolyline
 62
7
370
211
 90
2
 70
0
 10
27.25
 20
51.31
 10
27.4
 20
51.08
  0
LWPOLYLINE
  5
2A4
100
AcDbEntity
  8
0
100
AcDbPolyline
 62
7
370
211
 90
2
 70
0
 10
27.4
 20
51.08
 10
27.55
 20
50.83
  0
LWPOLYLINE
  5
2A5
100
AcDbEntity
  8
0
100
AcDbPolyline
 62
7
370
211
 90
2
 70
0
 10
27.55
 20
50.83
 10
27.67
 20
50.61
  0
LWPOLYLINE
  5
2A6
100
AcDbEntity
  8
0
100
AcDbPolyline
 62
7
370
211
 90
2
 70
0
 10
27.67
 20
50.61
 10
27.8
 20
50.38
  0
LWPOLYLINE
  5
2A7
100
AcDbEntity
  8
0
100
AcDbPolyline
 62
7
370
211
 90
2
 70
0
 10
27.8
 20
50.38
 10
27.9
 20
50.13
  0
LWPOLYLINE
  5
2A8
100
AcDbEntity
  8
0
100
AcDbPolyline
 62
7
370
211
 90
2
 70
0
 10
27.9
 20
50.13
 10
28.02
 20
49.91
  0
LWPOLYLINE
  5
2A9
100
AcDbEntity
  8
0
100
AcDbPolyline
 62
7
370
211
 90
2
 70
0
 10
28.02
 20
49.91
 10
28.12
 20
49.68
  0
LWPOLYLINE
  5
2AA
100
AcDbEntity
  8
0
100
AcDbPolyline
 62
7
370
211
 90
2
 70
0
 10
28.12
 20
49.68
 10
28.22
 20
49.43
  0
LWPOLYLINE
  5
2AB
100
AcDbEntity
  8
0
100
AcDbPolyline
 62
7
370
211
 90
2
 70
0
 10
28.22
 20
49.43
 10
28.32
 20
49.21
  0
LWPOLYLINE
  5
2AC
100
AcDbEntity
  8
0
100
AcDbPolyline
 62
7
370
211
 90
2
 70
0
 10
28.32
 20
49.21
 10
28.4
 20
48.98
  0
LWPOLYLINE
  5
2AD
100
AcDbEntity
  8
0
100
AcDbPolyline
 62
7
370
211
 90
2
 70
0
 10
28.4
 20
48.98
 10
28.47
 20
48.73
  0
LWPOLYLINE
  5
2AE
100
AcDbEntity
  8
0
100
AcDbPolyline
 62
7
370
211
 90
2
 70
0
 10
28.47
 20
48.73
 10
28.55
 20
48.51
  0
LWPOLYLINE
  5
2AF
100
AcDbEntity
  8
0
100
AcDbPolyline
 62
7
370
211
 90
2
 70
0
 10
28.55
 20
48.51
 10
28.62
 20
48.26
  0
LWPOLYLINE
  5
2B0
100
AcDbEntity
  8
0
100
AcDbPolyline
 62
7
370
211
 90
2
 70
0
 10
28.62
 20
48.26
 10
28.67
 20
48.03
  0
LWPOLYLINE
  5
2B1
100
AcDbEntity
  8
0
100
AcDbPolyline
 62
7
370
211
 90
2
 70
0
 10
28.67
 20
48.03
 10
28.72
 20
47.81
  0
LWPOLYLINE
  5
2B2
100
AcDbEntity
  8
0
100
AcDbPolyline
 62
7
370
211
 90
2
 70
0
 10
28.72
 20
47.81
 10
28.77
 20
47.58
  0
LWPOLYLINE
  5
2B3
100
AcDbEntity
  8
0
100
AcDbPolyline
 62
7
370
211
 90
2
 70
0
 10
28.77
 20
47.58
 10
28.8
 20
47.33
  0
LWPOLYLINE
  5
2B4
100
AcDbEntity
  8
0
100
AcDbPolyline
 62
7
370
211
 90
2
 70
0
 10
28.8
 20
47.33
 10
28.8
 20
47.11
  0
LWPOLYLINE
  5
2B5
100
AcDbEntity
  8
0
100
AcDbPolyline
 62
7
370
211
 90
2
 70
0
 10
28.8
 20
47.11
 10
28.82
 20
46.88
  0
LWPOLYLINE
  5
2B6
100
AcDbEntity
  8
0
100
AcDbPolyline
 62
7
370
211
 90
2
 70
0
 10
28.82
 20
46.88
 10
28.8
 20
46.66
  0
LWPOLYLINE
  5
2B7
100
AcDbEntity
  8
0
100
AcDbPolyline
 62
7
370
211
 90
2
 70
0
 10
28.8
 20
46.66
 10
30.2
 20
46.43
  0
LWPOLYLINE
  5
2B8
100
AcDbEntity
  8
0
100
AcDbPolyline
 62
7
370
211
 90
2
 70
0
 10
30.2
 20
46.43
 10
30.2
 20
46.43
  0
LWPOLYLINE
  5
2B9
100
AcDbEntity
  8
0
100
AcDbPolyline
 62
7
370
211
 90
2
 70
0
 10
30.2
 20
46.43
 10
31.55
 20
46.11
  0
LWPOLYLINE
  5
2BA
100
AcDbEntity
  8
0
100
AcDbPolyline
 62
7
370
211
 90
2
 70
0
 10
31.55
 20
46.11
 10
31.62
 20
46.33
  0
LWPOLYLINE
  5
2BB
100
AcDbEntity
  8
0
100
AcDbPolyline
 62
7
370
211
 90
2
 70
0
 10
31.62
 20
46.33
 10
31.72
 20
46.53
  0
LWPOLYLINE
  5
2BC
100
AcDbEntity
  8
0
100
AcDbPolyline
 62
7
370
211
 90
2
 70
0
 10
31.72
 20
46.53
 10
31.82
 20
46.73
  0
LWPOLYLINE
  5
2BD
100
AcDbEntity
  8
0
100
AcDbPolyline
 62
7
370
211
 90
2
 70
0
 10
31.82
 20
46.73
 10
31.95
 20
46.93
  0
LWPOLYLINE
  5
2BE
100
AcDbEntity
  8
0
100
AcDbPolyline
 62
7
370
211
 90
2
 70
0
 10
31.95
 20
46.93
 10
32.07
 20
47.13
  0
LWPOLYLINE
  5
2BF
100
AcDbEntity
  8
0
100
AcDbPolyline
 62
7
370
211
 90
2
 70
0
 10
32.07
 20
47.13
 10
32.2
 20
47.33
  0
LWPOLYLINE
  5
2C0
100
AcDbEntity
  8
0
100
AcDbPolyline
 62
7
370
211
 90
2
 70
0
 10
32.2
 20
47.33
 10
32.35
 20
47.53
  0
LWPOLYLINE
  5
2C1
100
AcDbEntity
  8
0
100
AcDbPolyline
 62
7
370
211
 90
2
 70
0
 10
32.35
 20
47.53
 10
32.5
 20
47.73
  0
LWPOLYLINE
  5
2C2
100
AcDbEntity
  8
0
100
AcDbPolyline
 62
7
370
211
 90
2
 70
0
 10
32.5
 20
47.73
 10
32.65
 20
47.91
  0
LWPOLYLINE
  5
2C3
100
AcDbEntity
  8
0
100
AcDbPolyline
 62
7
370
211
 90
2
 70
0
 10
32.65
 20
47.91
 10
32.8
 20
48.08
  0
LWPOLYLINE
  5
2C4
100
AcDbEntity
  8
0
100
AcDbPolyline
 62
7
370
211
 90
2
 70
0
 10
32.8
 20
48.08
 10
32.97
 20
48.28
  0
LWPOLYLINE
  5
2C5
100
AcDbEntity
  8
0
100
AcDbPolyline
 62
7
370
211
 90
2
 70
0
 10
32.97
 20
48.28
 10
33.15
 20
48.46
  0
LWPOLYLINE
  5
2C6
100
AcDbEntity
  8
0
100
AcDbPolyline
 62
7
370
211
 90
2
 70
0
 10
33.15
 20
48.46
 10
33.32
 20
48.63
  0
LWPOLYLINE
  5
2C7
100
AcDbEntity
  8
0
100
AcDbPolyline
 62
7
370
211
 90
2
 70
0
 10
33.32
 20
48.63
 10
33.52
 20
48.81
  0
LWPOLYLINE
  5
2C8
100
AcDbEntity
  8
0
100
AcDbPolyline
 62
7
370
211
 90
2
 70
0
 10
33.52
 20
48.81
 10
33.72
 20
48.98
  0
LWPOLYLINE
  5
2C9
100
AcDbEntity
  8
0
100
AcDbPolyline
 62
7
370
211
 90
2
 70
0
 10
33.72
 20
48.98
 10
33.9
 20
49.16
  0
LWPOLYLINE
  5
2CA
100
AcDbEntity
  8
0
100
AcDbPolyline
 62
7
370
211
 90
2
 70
0
 10
33.9
 20
49.16
 10
34.12
 20
49.33
  0
LWPOLYLINE
  5
2CB
100
AcDbEntity
  8
0
100
AcDbPolyline
 62
7
370
211
 90
2
 70
0
 10
34.12
 20
49.33
 10
34.32
 20
49.48
  0
LWPOLYLINE
  5
2CC
100
AcDbEntity
  8
0
100
AcDbPolyline
 62
7
370
211
 90
2
 70
0
 10
34.32
 20
49.48
 10
34.52
 20
49.66
  0
LWPOLYLINE
  5
2CD
100
AcDbEntity
  8
0
100
AcDbPolyline
 62
7
370
211
 90
2
 70
0
 10
34.52
 20
49.66
 10
34.75
 20
49.81
  0
LWPOLYLINE
  5
2CE
100
AcDbEntity
  8
0
100
AcDbPolyline
 62
7
370
211
 90
2
 70
0
 10
34.75
 20
49.81
 10
36.8
 20
48.96
  0
LWPOLYLINE
  5
2CF
100
AcDbEntity
  8
0
100
AcDbPolyline
 62
7
370
211
 90
2
 70
0
 10
36.8
 20
48.96
 10
36.85
 20
48.71
  0
LWPOLYLINE
  5
2D0
100
AcDbEntity
  8
0
100
AcDbPolyline
 62
7
370
211
 90
2
 70
0
 10
36.85
 20
48.71
 10
36.87
 20
48.43
  0
LWPOLYLINE
  5
2D1
100
AcDbEntity
  8
0
100
AcDbPolyline
 62
7
370
211
 90
2
 70
0
 10
36.87
 20
48.43
 10
36.9
 20
48.18
  0
LWPOLYLINE
  5
2D2
100
AcDbEntity
  8
0
100
AcDbPolyline
 62
7
370
211
 90
2
 70
0
 10
36.9
 20
48.18
 10
36.92
 20
47.91
  0
LWPOLYLINE
  5
2D3
100
AcDbEntity
  8
0
100
AcDbPolyline
 62
7
370
211
 90
2
 70
0
 10
36.92
 20
47.91
 10
36.95
 20
47.66
  0
LWPOLYLINE
  5
2D4
100
AcDbEntity
  8
0
100
AcDbPolyline
 62
7
370
211
 90
2
 70
0
 10
36.95
 20
47.66
 10
36.97
 20
47.38
  0
LWPOLYLINE
  5
2D5
100
AcDbEntity
  8
0
100
AcDbPolyline
 62
7
370
211
 90
2
 70
0
 10
36.97
 20
47.38
 10
36.97
 20
47.13
  0
LWPOLYLINE
  5
2D6
100
AcDbEntity
  8
0
100
AcDbPolyline
 62
7
370
211
 90
2
 70
0
 10
36.97
 20
47.13
 10
36.97
 20
46.88
  0
LWPOLYLINE
  5
2D7
100
AcDbEntity
  8
0
100
AcDbPolyline
 62
7
370
211
 90
2
 70
0
 10
36.97
 20
46.88
 10
36.97
 20
46.63
  0
LWPOLYLINE
  5
2D8
100
AcDbEntity
  8
0
100
AcDbPolyline
 62
7
370
211
 90
2
 70
0
 10
36.97
 20
46.63
 10
36.95
 20
46.38
  0
LWPOLYLINE
  5
2D9
100
AcDbEntity
  8
0
100
AcDbPolyline
 62
7
370
211
 90
2
 70
0
 10
36.95
 20
46.38
 10
36.95
 20
46.13
  0
LWPOLYLINE
  5
2DA
100
AcDbEntity
  8
0
100
AcDbPolyline
 62
7
370
211
 90
2
 70
0
 10
36.95
 20
46.13
 10
36.92
 20
45.88
  0
LWPOLYLINE
  5
2DB
100
AcDbEntity
  8
0
100
AcDbPolyline
 62
7
370
211
 90
2
 70
0
 10
36.92
 20
45.88
 10
36.9
 20
45.66
  0
LWPOLYLINE
  5
2DC
100
AcDbEntity
  8
0
100
AcDbPolyline
 62
7
370
211
 90
2
 70
0
 10
36.9
 20
45.66
 10
36.85
 20
45.41
  0
LWPOLYLINE
  5
2DD
100
AcDbEntity
  8
0
100
AcDbPolyline
 62
7
370
211
 90
2
 70
0
 10
36.85
 20
45.41
 10
36.8
 20
45.18
  0
LWPOLYLINE
  5
2DE
100
AcDbEntity
  8
0
100
AcDbPolyline
 62
7
370
211
 90
2
 70
0
 10
36.8
 20
45.18
 10
36.75
 20
44.96
  0
LWPOLYLINE
  5
2DF
100
AcDbEntity
  8
0
100
AcDbPolyline
 62
7
370
211
 90
2
 70
0
 10
36.75
 20
44.96
 10
36.7
 20
44.73
  0
LWPOLYLINE
  5
2E0
100
AcDbEntity
  8
0
100
AcDbPolyline
 62
7
370
211
 90
2
 70
0
 10
36.7
 20
44.73
 10
36.62
 20
44.51
  0
LWPOLYLINE
  5
2E1
100
AcDbEntity
  8
0
100
AcDbPolyline
 62
7
370
211
 90
2
 70
0
 10
36.62
 20
44.51
 10
36.55
 20
44.28
  0
LWPOLYLINE
  5
2E2
100
AcDbEntity
  8
0
100
AcDbPolyline
 62
7
370
211
 90
2
 70
0
 10
36.55
 20
44.28
 10
36.45
 20
44.08
  0
LWPOLYLINE
  5
2E3
100
AcDbEntity
  8
0
100
AcDbPolyline
 62
7
370
211
 90
2
 70
0
 10
36.45
 20
44.08
 10
37.65
 20
43.36
  0
LWPOLYLINE
  5
2E4
100
AcDbEntity
  8
0
100
AcDbPolyline
 62
7
370
211
 90
2
 70
0
 10
37.65
 20
43.36
 10
37.65
 20
43.36
  0
LWPOLYLINE
  5
2E5
100
AcDbEntity
  8
0
100
AcDbPolyline
 62
7
370
211
 90
2
 70
0
 10
37.65
 20
43.36
 10
38.77
 20
42.53
  0
LWPOLYLINE
  5
2E6
100
AcDbEntity
  8
0
100
AcDbPolyline
 62
7
370
211
 90
2
 70
0
 10
38.77
 20
42.53
 10
38.92
 20
42.71
  0
LWPOLYLINE
  5
2E7
100
AcDbEntity
  8
0
100
AcDbPolyline
 62
7
370
211
 90
2
 70
0
 10
38.92
 20
42.71
 10
39.1
 20
42.86
  0
LWPOLYLINE
  5
2E8
100
AcDbEntity
  8
0
100
AcDbPolyline
 62
7
370
211
 90
2
 70
0
 10
39.1
 20
42.86
 10
39.27
 20
43.01
  0
LWPOLYLINE
  5
2E9
100
AcDbEntity
  8
0
100
AcDbPolyline
 62
7
370
211
 90
2
 70
0
 10
39.27
 20
43.01
 10
39.45
 20
43.16
  0
LWPOLYLINE
  5
2EA
100
AcDbEntity
  8
0
100
AcDbPolyline
 62
7
370
211
 90
2
 70
0
 10
39.45
 20
43.16
 10
39.65
 20
43.28
  0
LWPOLYLINE
  5
2EB
100
AcDbEntity
  8
0
100
AcDbPolyline
 62
7
370
211
 90
2
 70
0
 10
39.65
 20
43.28
 10
39.85
 20
43.41
  0
LWPOLYLINE
  5
2EC
100
AcDbEntity
  8
0
100
AcDbPolyline
 62
7
370
211
 90
2
 70
0
 10
39.85
 20
43.41
 10
40.05
 20
43.53
  0
LWPOLYLINE
  5
2ED
100
AcDbEntity
  8
0
100
AcDbPolyline
 62
7
370
211
 90
2
 70
0
 10
40.05
 20
43.53
 10
40.25
 20
43.66
  0
LWPOLYLINE
  5
2EE
100
AcDbEntity
  8
0
100
AcDbPolyline
 62
7
370
211
 90
2
 70
0
 10
40.25
 20
43.66
 10
40.47
 20
43.76
  0
LWPOLYLINE
  5
2EF
100
AcDbEntity
  8
0
100
AcDbPolyline
 62
7
370
211
 90
2
 70
0
 10
40.47
 20
43.76
 10
40.7
 20
43.88
  0
LWPOLYLINE
  5
2F0
100
AcDbEntity
  8
0
100
AcDbPolyline
 62
7
370
211
 90
2
 70
0
 10
40.7
 20
43.88
 10
40.92
 20
43.98
  0
LWPOLYLINE
  5
2F1
100
AcDbEntity
  8
0
100
AcDbPolyline
 62
7
370
211
 90
2
 70
0
 10
40.92
 20
43.98
 10
41.15
 20
44.08
  0
LWPOLYLINE
  5
2F2
100
AcDbEntity
  8
0
100
AcDbPolyline
 62
7
370
211
 90
2
 70
0
 10
41.15
 20
44.08
 10
41.4
 20
44.18
  0
LWPOLYLINE
  5
2F3
100
AcDbEntity
  8
0
100
AcDbPolyline
 62
7
370
211
 90
2
 70
0
 10
41.4
 20
44.18
 10
41.62
 20
44.28
  0
LWPOLYLINE
  5
2F4
100
AcDbEntity
  8
0
100
AcDbPolyline
 62
7
370
211
 90
2
 70
0
 10
41.62
 20
44.28
 10
41.87
 20
44.36
  0
LWPOLYLINE
  5
2F5
100
AcDbEntity
  8
0
100
AcDbPolyline
 62
7
370
211
 90
2
 70
0
 10
41.87
 20
44.36
 10
42.12
 20
44.43
  0
LWPOLYLINE
  5
2F6
100
AcDbEntity
  8
0
100
AcDbPolyline
 62
7
370
211
 90
2
 70
0
 10
42.12
 20
44.43
 10
42.37
 20
44.51
  0
LWPOLYLINE
  5
2F7
100
AcDbEntity
  8
0
100
AcDbPolyline
 62
7
370
211
 90
2
 70
0
 10
42.37
 20
44.51
 10
42.62
 20
44.58
  0
LWPOLYLINE
  5
2F8
100
AcDbEntity
  8
0
100
AcDbPolyline
 62
7
370
211
 90
2
 70
0
 10
42.62
 20
44.58
 10
42.9
 20
44.66
  0
LWPOLYLINE
  5
2F9
100
AcDbEntity
  8
0
100
AcDbPolyline
 62
7
370
211
 90
2
 70
0
 10
42.9
 20
44.66
 10
43.15
 20
44.73
  0
LWPOLYLINE
  5
2FA
100
AcDbEntity
  8
0
100
AcDbPolyline
 62
7
370
211
 90
2
 70
0
 10
43.15
 20
44.73
 10
44.72
 20
43.16
  0
LWPOLYLINE
  5
2FB
100
AcDbEntity
  8
0
100
AcDbPolyline
 62
7
370
211
 90
2
 70
0
 10
44.72
 20
43.16
 10
44.65
 20
42.91
  0
LWPOLYLINE
  5
2FC
100
AcDbEntity
  8
0
100
AcDbPolyline
 62
7
370
211
 90
2
 70
0
 10
44.65
 20
42.91
 10
44.57
 20
42.63
  0
LWPOLYLINE
  5
2FD
100
AcDbEntity
  8
0
100
AcDbPolyline
 62
7
370
211
 90
2
 70
0
 10
44.57
 20
42.63
 10
44.5
 20
42.38
  0
LWPOLYLINE
  5
2FE
100
AcDbEntity
  8
0
100
AcDbPolyline
 62
7
370
211
 90
2
 70
0
 10
44.5
 20
42.38
 10
44.42
 20
42.13
  0
LWPOLYLINE
  5
2FF
100
AcDbEntity
  8
0
100
AcDbPolyline
 62
7
370
211
 90
2
 70
0
 10
44.42
 20
42.13
 10
44.35
 20
41.88
  0
LWPOLYLINE
  5
300
100
AcDbEntity
  8
0
100
AcDbPolyline
 62
7
370
211
 90
2
 70
0
 10
44.35
 20
41.88
 10
44.27
 20
41.63
  0
LWPOLYLINE
  5
301
100
AcDbEntity
  8
0
100
AcDbPolyline
 62
7
370
211
 90
2
 70
0
 10
44.27
 20
41.63
 10
44.17
 20
41.41
  0
LWPOLYLINE
  5
302
100
AcDbEntity
  8
0
100
AcDbPolyline
 62
7
370
211
 90
2
 70
0
 10
44.17
 20
41.41
 10
44.07
 20
41.16
  0
LWPOLYLINE
  5
303
100
AcDbEntity
  8
0
100
AcDbPolyline
 62
7
370
211
 90
2
 70
0
 10
44.07
 20
41.16
 10
43.97
 20
40.93
  0
LWPOLYLINE
  5
304
100
AcDbEntity
  8
0
100
AcDbPolyline
 62
7
370
211
 90
2
 70
0
 10
43.97
 20
40.93
 10
43.87
 20
40.71
  0
LWPOLYLINE
  5
305
100
AcDbEntity
  8
0
100
AcDbPolyline
 62
7
370
211
 90
2
 70
0
 10
43.87
 20
40.71
 10
43.75
 20
40.48
  0
LWPOLYLINE
  5
306
100
AcDbEntity
  8
0
100
AcDbPolyline
 62
7
370
211
 90
2
 70
0
 10
43.75
 20
40.48
 10
43.65
 20
40.26
  0
LWPOLYLINE
  5
307
100
AcDbEntity
  8
0
100
AcDbPolyline
 62
7
370
211
 90
2
 70
0
 10
43.65
 20
40.26
 10
43.52
 20
40.06
  0
LWPOLYLINE
  5
308
100
AcDbEntity
  8
0
100
AcDbPolyline
 62
7
370
211
 90
2
 70
0
 10
43.52
 20
40.06
 10
43.4
 20
39.86
  0
LWPOLYLINE
  5
309
100
AcDbEntity
  8
0
100
AcDbPolyline
 62
7
370
211
 90
2
 70
0
 10
43.4
 20
39.86
 10
43.27
 20
39.66
  0
LWPOLYLINE
  5
30A
100
AcDbEntity
  8
0
100
AcDbPolyline
 62
7
370
211
 90
2
 70
0
 10
43.27
 20
39.66
 10
43.15
 20
39.46
  0
LWPOLYLINE
  5
30B
100
AcDbEntity
  8
0
100
AcDbPolyline
 62
7
370
211
 90
2
 70
0
 10
43.15
 20
39.46
 10
43
 20
39.28
  0
LWPOLYLINE
  5
30C
100
AcDbEntity
  8
0
100
AcDbPolyline
 62
7
370
211
 90
2
 70
0
 10
43
 20
39.28
 10
42.85
 20
39.11
  0
LWPOLYLINE
  5
30D
100
AcDbEntity
  8
0
100
AcDbPolyline
 62
7
370
211
 90
2
 70
0
 10
42.85
 20
39.11
 10
42.7
 20
38.93
  0
LWPOLYLINE
  5
30E
100
AcDbEntity
  8
0
100
AcDbPolyline
 62
7
370
211
 90
2
 70
0
 10
42.7
 20
38.93
 10
42.52
 20
38.78
  0
LWPOLYLINE
  5
30F
100
AcDbEntity
  8
0
100
AcDbPolyline
 62
7
370
211
 90
2
 70
0
 10
42.52
 20
38.78
 10
43.35
 20
37.66
  0
LWPOLYLINE
  5
310
100
AcDbEntity
  8
0
100
AcDbPolyline
 62
7
370
211
 90
2
 70
0
 10
43.35
 20
37.66
 10
43.35
 20
37.66
  0
LWPOLYLINE
  5
311
100
AcDbEntity
  8
0
100
AcDbPolyline
 62
7
370
211
 90
2
 70
0
 10
43.35
 20
37.66
 10
44.07
 20
36.46
  0
LWPOLYLINE
  5
312
100
AcDbEntity
  8
0
100
AcDbPolyline
 62
7
370
211
 90
2
 70
0
 10
44.07
 20
36.46
 10
44.27
 20
36.56
  0
LWPOLYLINE
  5
313
100
AcDbEntity
  8
0
100
AcDbPolyline
 62
7
370
211
 90
2
 70
0
 10
44.27
 20
36.56
 10
44.5
 20
36.63
  0
LWPOLYLINE
  5
314
100
AcDbEntity
  8
0
100
AcDbPolyline
 62
7
370
211
 90
2
 70
0
 10
44.5
 20
36.63
 10
44.72
 20
36.71
  0
LWPOLYLINE
  5
315
100
AcDbEntity
  8
0
100
AcDbPolyline
 62
7
370
211
 90
2
 70
0
 10
44.72
 20
36.71
 10
44.95
 20
36.76
  0
LWPOLYLINE
  5
316
100
AcDbEntity
  8
0
100
AcDbPolyline
 62
7
370
211
 90
2
 70
0
 10
44.95
 20
36.76
 10
45.17
 20
36.81
  0
LWPOLYLINE
  5
317
100
AcDbEntity
  8
0
100
AcDbPolyline
 62
7
370
211
 90
2
 70
0
 10
45.17
 20
36.81
 10
45.4
 20
36.86
  0
LWPOLYLINE
  5
318
100
AcDbEntity
  8
0
100
AcDbPolyline
 62
7
370
211
 90
2
 70
0
 10
45.4
 20
36.86
 10
45.65
 20
36.91
  0
LWPOLYLINE
  5
319
100
AcDbEntity
  8
0
100
AcDbPolyline
 62
7
370
211
 90
2
 70
0
 10
45.65
 20
36.91
 10
45.87
 20
36.93
  0
LWPOLYLINE
  5
31A
100
AcDbEntity
  8
0
100
AcDbPolyline
 62
7
370
211
 90
2
 70
0
 10
45.87
 20
36.93
 10
46.12
 20
36.96
  0
LWPOLYLINE
  5
31B
100
AcDbEntity
  8
0
100
AcDbPolyline
 62
7
370
211
 90
2
 70
0
 10
46.12
 20
36.96
 10
46.37
 20
36.96
  0
LWPOLYLINE
  5
31C
100
AcDbEntity
  8
0
100
AcDbPolyline
 62
7
370
211
 90
2
 70
0
 10
46.37
 20
36.96
 10
46.62
 20
36.98
  0
LWPOLYLINE
  5
31D
100
AcDbEntity
  8
0
100
AcDbPolyline
 62
7
370
211
 90
2
 70
0
 10
46.62
 20
36.98
 10
46.87
 20
36.98
  0
LWPOLYLINE
  5
31E
100
AcDbEntity
  8
0
100
AcDbPolyline
 62
7
370
211
 90
2
 70
0
 10
46.87
 20
36.98
 10
47.12
 20
36.98
  0
LWPOLYLINE
  5
31F
100
AcDbEntity
  8
0
100
AcDbPolyline
 62
7
370
211
 90
2
 70
0
 10
47.12
 20
36.98
 10
47.37
 20
36.98
  0
LWPOLYLINE
  5
320
100
AcDbEntity
  8
0
100
AcDbPolyline
 62
7
370
211
 90
2
 70
0
 10
47.37
 20
36.98
 10
47.65
 20
36.96
  0
LWPOLYLINE
  5
321
100
AcDbEntity
  8
0
100
AcDbPolyline
 62
7
370
211
 90
2
 70
0
 10
47.65
 20
36.96
 10
47.9
 20
36.93
  0
LWPOLYLINE
  5
322
100
AcDbEntity
  8
0
100
AcDbPolyline
 62
7
370
211
 90
2
 70
0
 10
47.9
 20
36.93
 10
48.17
 20
36.91
  0
LWPOLYLINE
  5
323
100
AcDbEntity
  8
0
100
AcDbPolyline
 62
7
370
211
 90
2
 70
0
 10
48.17
 20
36.91
 10
48.42
 20
36.88
  0
LWPOLYLINE
  5
324
100
AcDbEntity
  8
0
100
AcDbPolyline
 62
7
370
211
 90
2
 70
0
 10
48.42
 20
36.88
 10
48.7
 20
36.86
  0
LWPOLYLINE
  5
325
100
AcDbEntity
  8
0
100
AcDbPolyline
 62
7
370
211
 90
2
 70
0
 10
48.7
 20
36.86
 10
48.95
 20
36.81
  0
LWPOLYLINE
  5
326
100
AcDbEntity
  8
0
100
AcDbPolyline
 62
7
370
211
 90
2
 70
0
 10
48.95
 20
36.81
 10
49.8
 20
34.76
  0
LWPOLYLINE
  5
327
100
AcDbEntity
  8
0
100
AcDbPolyline
 62
7
370
211
 90
2
 70
0
 10
49.8
 20
34.76
 10
49.65
 20
34.53
  0
LWPOLYLINE
  5
328
100
AcDbEntity
  8
0
100
AcDbPolyline
 62
7
370
211
 90
2
 70
0
 10
49.65
 20
34.53
 10
49.47
 20
34.33
  0
LWPOLYLINE
  5
329
100
AcDbEntity
  8
0
100
AcDbPolyline
 62
7
370
211
 90
2
 70
0
 10
49.47
 20
34.33
 10
49.32
 20
34.13
  0
LWPOLYLINE
  5
32A
100
AcDbEntity
  8
0
100
AcDbPolyline
 62
7
370
211
 90
2
 70
0
 10
49.32
 20
34.13
 10
49.15
 20
33.91
  0
LWPOLYLINE
  5
32B
100
AcDbEntity
  8
0
100
AcDbPolyline
 62
7
370
211
 90
2
 70
0
 10
49.15
 20
33.91
 10
48.97
 20
33.73
  0
LWPOLYLINE
  5
32C
100
AcDbEntity
  8
0
100
AcDbPolyline
 62
7
370
211
 90
2
 70
0
 10
48.97
 20
33.73
 10
48.8
 20
33.53
  0
LWPOLYLINE
  5
32D
100
AcDbEntity
  8
0
100
AcDbPolyline
 62
7
370
211
 90
2
 70
0
 10
48.8
 20
33.53
 10
48.62
 20
33.33
  0
LWPOLYLINE
  5
32E
100
AcDbEntity
  8
0
100
AcDbPolyline
 62
7
370
211
 90
2
 70
0
 10
48.62
 20
33.33
 10
48.45
 20
33.16
  0
LWPOLYLINE
  5
32F
100
AcDbEntity
  8
0
100
AcDbPolyline
 62
7
370
211
 90
2
 70
0
 10
48.45
 20
33.16
 10
48.27
 20
32.98
  0
LWPOLYLINE
  5
330
100
AcDbEntity
  8
0
100
AcDbPolyline
 62
7
370
211
 90
2
 70
0
 10
48.27
 20
32.98
 10
48.07
 20
32.81
  0
LWPOLYLINE
  5
331
100
AcDbEntity
  8
0
100
AcDbPolyline
 62
7
370
211
 90
2
 70
0
 10
48.07
 20
32.81
 10
47.9
 20
32.66
  0
LWPOLYLINE
  5
332
100
AcDbEntity
  8
0
100
AcDbPolyline
 62
7
370
211
 90
2
 70
0
 10
47.9
 20
32.66
 10
47.72
 20
32.51
  0
LWPOLYLINE
  5
333
100
AcDbEntity
  8
0
100
AcDbPolyline
 62
7
370
211
 90
2
 70
0
 10
47.72
 20
32.51
 10
47.52
 20
32.36
  0
LWPOLYLINE
  5
334
100
AcDbEntity
  8
0
100
AcDbPolyline
 62
7
370
211
 90
2
 70
0
 10
47.52
 20
32.36
 10
47.32
 20
32.21
  0
LWPOLYLINE
  5
335
100
AcDbEntity
  8
0
100
AcDbPolyline
 62
7
370
211
 90
2
 70
0
 10
47.32
 20
32.21
 10
47.12
 20
32.08
  0
LWPOLYLINE
  5
336
100
AcDbEntity
  8
0
100
AcDbPolyline
 62
7
370
211
 90
2
 70
0
 10
47.12
 20
32.08
 10
46.92
 20
31.96
  0
LWPOLYLINE
  5
337
100
AcDbEntity
  8
0
100
AcDbPolyline
 62
7
370
211
 90
2
 70
0
 10
46.92
 20
31.96
 10
46.72
 20
31.83
  0
LWPOLYLINE
  5
338
100
AcDbEntity
  8
0
100
AcDbPolyline
 62
7
370
211
 90
2
 70
0
 10
46.72
 20
31.83
 10
46.52
 20
31.73
  0
LWPOLYLINE
  5
339
100
AcDbEntity
  8
0
100
AcDbPolyline
 62
7
370
211
 90
2
 70
0
 10
46.52
 20
31.73
 10
46.32
 20
31.63
  0
LWPOLYLINE
  5
33A
100
AcDbEntity
  8
0
100
AcDbPolyline
 62
7
370
211
 90
2
 70
0
 10
46.32
 20
31.63
 10
46.1
 20
31.56
  0
LWPOLYLINE
  5
33B
100
AcDbEntity
  8
0
100
AcDbPolyline
 62
7
370
211
 90
2
 70
0
 10
46.1
 20
31.56
 10
46.42
 20
30.21
  0
LWPOLYLINE
  5
33C
100
AcDbEntity
  8
0
100
AcDbPolyline
 62
7
370
211
 90
2
 70
0
 10
37.17
 20
29.76
 10
39.2
 20
29.76
  0
LWPOLYLINE
  5
33D
100
AcDbEntity
  8
0
100
AcDbPolyline
 62
7
370
211
 90
2
 70
0
 10
39.2
 20
29.76
 10
40.42
 20
31.56
  0
LWPOLYLINE
  5
33E
100
AcDbEntity
  8
0
100
AcDbPolyline
 62
7
370
211
 90
2
 70
0
 10
40.42
 20
31.56
 10
40
 20
32.58
  0
LWPOLYLINE
  5
33F
100
AcDbEntity
  8
0
100
AcDbPolyline
 62
7
370
211
 90
2
 70
0
 10
40
 20
32.58
 10
39.5
 20
33.56
  0
LWPOLYLINE
  5
340
100
AcDbEntity
  8
0
100
AcDbPolyline
 62
7
370
211
 90
2
 70
0
 10
39.5
 20
33.56
 10
38.95
 20
34.51
  0
LWPOLYLINE
  5
341
100
AcDbEntity
  8
0
100
AcDbPolyline
 62
7
370
211
 90
2
 70
0
 10
38.95
 20
34.51
 10
38.3
 20
35.41
  0
LWPOLYLINE
  5
342
100
AcDbEntity
  8
0
100
AcDbPolyline
 62
7
370
211
 90
2
 70
0
 10
38.3
 20
35.41
 10
37.6
 20
36.26
  0
LWPOLYLINE
  5
343
100
AcDbEntity
  8
0
100
AcDbPolyline
 62
7
370
211
 90
2
 70
0
 10
37.6
 20
36.26
 10
36.85
 20
37.06
  0
LWPOLYLINE
  5
344
100
AcDbEntity
  8
0
100
AcDbPolyline
 62
7
370
211
 90
2
 70
0
 10
36.85
 20
37.06
 10
36.05
 20
37.81
  0
LWPOLYLINE
  5
345
100
AcDbEntity
  8
0
100
AcDbPolyline
 62
7
370
211
 90
2
 70
0
 10
36.05
 20
37.81
 10
35.17
 20
38.48
  0
LWPOLYLINE
  5
346
100
AcDbEntity
  8
0
100
AcDbPolyline
 62
7
370
211
 90
2
 70
0
 10
35.17
 20
38.48
 10
34.25
 20
39.11
  0
LWPOLYLINE
  5
347
100
AcDbEntity
  8
0
100
AcDbPolyline
 62
7
370
211
 90
2
 70
0
 10
34.25
 20
39.11
 10
33.3
 20
39.66
  0
LWPOLYLINE
  5
348
100
AcDbEntity
  8
0
100
AcDbPolyline
 62
7
370
211
 90
2
 70
0
 10
33.3
 20
39.66
 10
32.32
 20
40.13
  0
LWPOLYLINE
  5
349
100
AcDbEntity
  8
0
100
AcDbPolyline
 62
7
370
211
 90
2
 70
0
 10
32.32
 20
40.13
 10
31.3
 20
40.53
  0
LWPOLYLINE
  5
34A
100
AcDbEntity
  8
0
100
AcDbPolyline
 62
7
370
211
 90
2
 70
0
 10
31.3
 20
40.53
 10
30.25
 20
40.88
  0
LWPOLYLINE
  5
34B
100
AcDbEntity
  8
0
100
AcDbPolyline
 62
7
370
211
 90
2
 70
0
 10
30.25
 20
40.88
 10
29.17
 20
41.13
  0
LWPOLYLINE
  5
34C
100
AcDbEntity
  8
0
100
AcDbPolyline
 62
7
370
211
 90
2
 70
0
 10
29.17
 20
41.13
 10
28.07
 20
41.31
  0
LWPOLYLINE
  5
34D
100
AcDbEntity
  8
0
100
AcDbPolyline
 62
7
370
211
 90
2
 70
0
 10
28.07
 20
41.31
 10
26.97
 20
41.41
  0
LWPOLYLINE
  5
34E
100
AcDbEntity
  8
0
100
AcDbPolyline
 62
7
370
211
 90
2
 70
0
 10
26.97
 20
41.41
 10
25.87
 20
41.43
  0
LWPOLYLINE
  5
34F
100
AcDbEntity
  8
0
100
AcDbPolyline
 62
7
370
211
 90
2
 70
0
 10
25.87
 20
41.43
 10
24.77
 20
41.36
  0
LWPOLYLINE
  5
350
100
AcDbEntity
  8
0
100
AcDbPolyline
 62
7
370
211
 90
2
 70
0
 10
24.77
 20
41.36
 10
23.7
 20
41.23
  0
LWPOLYLINE
  5
351
100
AcDbEntity
  8
0
100
AcDbPolyline
 62
7
370
211
 90
2
 70
0
 10
23.7
 20
41.23
 10
22.75
 20
39.26
  0
LWPOLYLINE
  5
352
100
AcDbEntity
  8
0
100
AcDbPolyline
 62
7
370
211
 90
2
 70
0
 10
22.75
 20
39.26
 10
23.75
 20
37.51
  0
LWPOLYLINE
  5
353
100
AcDbEntity
  8
0
100
AcDbPolyline
 62
7
370
211
 90
2
 70
0
 10
23.75
 20
37.51
 10
26.67
 20
36.06
  0
LWPOLYLINE
  5
354
100
AcDbEntity
  8
0
100
AcDbPolyline
 62
7
370
211
 90
2
 70
0
 10
26.67
 20
36.06
 10
27.4
 20
35.98
  0
LWPOLYLINE
  5
355
100
AcDbEntity
  8
0
100
AcDbPolyline
 62
7
370
211
 90
2
 70
0
 10
27.4
 20
35.98
 10
28.1
 20
35.86
  0
LWPOLYLINE
  5
356
100
AcDbEntity
  8
0
100
AcDbPolyline
 62
7
370
211
 90
2
 70
0
 10
28.1
 20
35.86
 10
28.8
 20
35.71
  0
LWPOLYLINE
  5
357
100
AcDbEntity
  8
0
100
AcDbPolyline
 62
7
370
211
 90
2
 70
0
 10
28.8
 20
35.71
 10
29.47
 20
35.48
  0
LWPOLYLINE
  5
358
100
AcDbEntity
  8
0
100
AcDbPolyline
 62
7
370
211
 90
2
 70
0
 10
29.47
 20
35.48
 10
30.15
 20
35.23
  0
LWPOLYLINE
  5
359
100
AcDbEntity
  8
0
100
AcDbPolyline
 62
7
370
211
 90
2
 70
0
 10
30.15
 20
35.23
 10
30.8
 20
34.91
  0
LWPOLYLINE
  5
35A
100
AcDbEntity
  8
0
100
AcDbPolyline
 62
7
370
211
 90
2
 70
0
 10
30.8
 20
34.91
 10
31.42
 20
34.56
  0
LWPOLYLINE
  5
35B
100
AcDbEntity
  8
0
100
AcDbPolyline
 62
7
370
211
 90
2
 70
0
 10
31.42
 20
34.56
 10
32
 20
34.16
  0
LWPOLYLINE
  5
35C
100
AcDbEntity
  8
0
100
AcDbPolyline
 62
7
370
211
 90
2
 70
0
 10
32
 20
34.16
 10
32.57
 20
33.71
  0
LWPOLYLINE
  5
35D
100
AcDbEntity
  8
0
100
AcDbPolyline
 62
7
370
211
 90
2
 70
0
 10
32.57
 20
33.71
 10
33.1
 20
33.23
  0
LWPOLYLINE
  5
35E
100
AcDbEntity
  8
0
100
AcDbPolyline
 62
7
370
211
 90
2
 70
0
 10
33.1
 20
33.23
 10
33.6
 20
32.71
  0
LWPOLYLINE
  5
35F
100
AcDbEntity
  8
0
100
AcDbPolyline
 62
7
370
211
 90
2
 70
0
 10
33.6
 20
32.71
 10
34.05
 20
32.16
  0
LWPOLYLINE
  5
360
100
AcDbEntity
  8
0
100
AcDbPolyline
 62
7
370
211
 90
2
 70
0
 10
34.05
 20
32.16
 10
34.45
 20
31.56
  0
LWPOLYLINE
  5
361
100
AcDbEntity
  8
0
100
AcDbPolyline
 62
7
370
211
 90
2
 70
0
 10
34.45
 20
31.56
 10
37.17
 20
29.76
  0
LWPOLYLINE
  5
362
100
AcDbEntity
  8
0
100
AcDbPolyline
 62
7
370
211
 90
2
 70
0
 10
17.52
 20
33.91
 10
16.52
 20
35.66
  0
LWPOLYLINE
  5
363
100
AcDbEntity
  8
0
100
AcDbPolyline
 62
7
370
211
 90
2
 70
0
 10
16.52
 20
35.66
 10
14.35
 20
35.83
  0
LWPOLYLINE
  5
364
100
AcDbEntity
  8
0
100
AcDbPolyline
 62
7
370
211
 90
2
 70
0
 10
14.35
 20
35.83
 10
13.67
 20
34.96
  0
LWPOLYLINE
  5
365
100
AcDbEntity
  8
0
100
AcDbPolyline
 62
7
370
211
 90
2
 70
0
 10
13.67
 20
34.96
 10
13.07
 20
34.03
  0
LWPOLYLINE
  5
366
100
AcDbEntity
  8
0
100
AcDbPolyline
 62
7
370
211
 90
2
 70
0
 10
13.07
 20
34.03
 10
12.52
 20
33.06
  0
LWPOLYLINE
  5
367
100
AcDbEntity
  8
0
100
AcDbPolyline
 62
7
370
211
 90
2
 70
0
 10
12.52
 20
33.06
 10
12.07
 20
32.06
  0
LWPOLYLINE
  5
368
100
AcDbEntity
  8
0
100
AcDbPolyline
 62
7
370
211
 90
2
 70
0
 10
12.07
 20
32.06
 10
11.67
 20
31.03
  0
LWPOLYLINE
  5
369
100
AcDbEntity
  8
0
100
AcDbPolyline
 62
7
370
211
 90
2
 70
0
 10
11.67
 20
31.03
 10
11.37
 20
29.98
  0
LWPOLYLINE
  5
36A
100
AcDbEntity
  8
0
100
AcDbPolyline
 62
7
370
211
 90
2
 70
0
 10
11.37
 20
29.98
 10
11.12
 20
28.91
  0
LWPOLYLINE
  5
36B
100
AcDbEntity
  8
0
100
AcDbPolyline
 62
7
370
211
 90
2
 70
0
 10
11.12
 20
28.91
 10
10.97
 20
27.81
  0
LWPOLYLINE
  5
36C
100
AcDbEntity
  8
0
100
AcDbPolyline
 62
7
370
211
 90
2
 70
0
 10
10.97
 20
27.81
 10
10.9
 20
26.71
  0
LWPOLYLINE
  5
36D
100
AcDbEntity
  8
0
100
AcDbPolyline
 62
7
370
211
 90
2
 70
0
 10
10.9
 20
26.71
 10
10.9
 20
25.61
  0
LWPOLYLINE
  5
36E
100
AcDbEntity
  8
0
100
AcDbPolyline
 62
7
370
211
 90
2
 70
0
 10
10.9
 20
25.61
 10
10.97
 20
24.51
  0
LWPOLYLINE
  5
36F
100
AcDbEntity
  8
0
100
AcDbPolyline
 62
7
370
211
 90
2
 70
0
 10
10.97
 20
24.51
 10
11.12
 20
23.43
  0
LWPOLYLINE
  5
370
100
AcDbEntity
  8
0
100
AcDbPolyline
 62
7
370
211
 90
2
 70
0
 10
11.12
 20
23.43
 10
11.37
 20
22.36
  0
LWPOLYLINE
  5
371
100
AcDbEntity
  8
0
100
AcDbPolyline
 62
7
370
211
 90
2
 70
0
 10
11.37
 20
22.36
 10
11.67
 20
21.28
  0
LWPOLYLINE
  5
372
100
AcDbEntity
  8
0
100
AcDbPolyline
 62
7
370
211
 90
2
 70
0
 10
11.67
 20
21.28
 10
12.07
 20
20.26
  0
LWPOLYLINE
  5
373
100
AcDbEntity
  8
0
100
AcDbPolyline
 62
7
370
211
 90
2
 70
0
 10
12.07
 20
20.26
 10
12.52
 20
19.26
  0
LWPOLYLINE
  5
374
100
AcDbEntity
  8
0
100
AcDbPolyline
 62
7
370
211
 90
2
 70
0
 10
12.52
 20
19.26
 10
13.07
 20
18.31
  0
LWPOLYLINE
  5
375
100
AcDbEntity
  8
0
100
AcDbPolyline
 62
7
370
211
 90
2
 70
0
 10
13.07
 20
18.31
 10
13.67
 20
17.38
  0
LWPOLYLINE
  5
376
100
AcDbEntity
  8
0
100
AcDbPolyline
 62
7
370
211
 90
2
 70
0
 10
13.67
 20
17.38
 10
14.35
 20
16.51
  0
LWPOLYLINE
  5
377
100
AcDbEntity
  8
0
100
AcDbPolyline
 62
7
370
211
 90
2
 70
0
 10
14.35
 20
16.51
 10
16.52
 20
16.68
  0
LWPOLYLINE
  5
378
100
AcDbEntity
  8
0
100
AcDbPolyline
 62
7
370
211
 90
2
 70
0
 10
16.52
 20
16.68
 10
17.52
 20
18.41
  0
LWPOLYLINE
  5
379
100
AcDbEntity
  8
0
100
AcDbPolyline
 62
7
370
211
 90
2
 70
0
 10
17.52
 20
18.41
 10
17.32
 20
21.68
  0
LWPOLYLINE
  5
37A
100
AcDbEntity
  8
0
100
AcDbPolyline
 62
7
370
211
 90
2
 70
0
 10
17.32
 20
21.68
 10
17.02
 20
22.33
  0
LWPOLYLINE
  5
37B
100
AcDbEntity
  8
0
100
AcDbPolyline
 62
7
370
211
 90
2
 70
0
 10
17.02
 20
22.33
 10
16.77
 20
23.01
  0
LWPOLYLINE
  5
37C
100
AcDbEntity
  8
0
100
AcDbPolyline
 62
7
370
211
 90
2
 70
0
 10
16.77
 20
23.01
 10
16.57
 20
23.68
  0
LWPOLYLINE
  5
37D
100
AcDbEntity
  8
0
100
AcDbPolyline
 62
7
370
211
 90
2
 70
0
 10
16.57
 20
23.68
 10
16.42
 20
24.38
  0
LWPOLYLINE
  5
37E
100
AcDbEntity
  8
0
100
AcDbPolyline
 62
7
370
211
 90
2
 70
0
 10
16.42
 20
24.38
 10
16.32
 20
25.08
  0
LWPOLYLINE
  5
37F
100
AcDbEntity
  8
0
100
AcDbPolyline
 62
7
370
211
 90
2
 70
0
 10
16.32
 20
25.08
 10
16.25
 20
25.81
  0
LWPOLYLINE
  5
380
100
AcDbEntity
  8
0
100
AcDbPolyline
 62
7
370
211
 90
2
 70
0
 10
16.25
 20
25.81
 10
16.25
 20
26.53
  0
LWPOLYLINE
  5
381
100
AcDbEntity
  8
0
100
AcDbPolyline
 62
7
370
211
 90
2
 70
0
 10
16.25
 20
26.53
 10
16.32
 20
27.23
  0
LWPOLYLINE
  5
382
100
AcDbEntity
  8
0
100
AcDbPolyline
 62
7
370
211
 90
2
 70
0
 10
16.32
 20
27.23
 10
16.42
 20
27.93
  0
LWPOLYLINE
  5
383
100
AcDbEntity
  8
0
100
AcDbPolyline
 62
7
370
211
 90
2
 70
0
 10
16.42
 20
27.93
 10
16.57
 20
28.63
  0
LWPOLYLINE
  5
384
100
AcDbEntity
  8
0
100
AcDbPolyline
 62
7
370
211
 90
2
 70
0
 10
16.57
 20
28.63
 10
16.77
 20
29.33
  0
LWPOLYLINE
  5
385
100
AcDbEntity
  8
0
100
AcDbPolyline
 62
7
370
211
 90
2
 70
0
 10
16.77
 20
29.33
 10
17.02
 20
30.01
  0
LWPOLYLINE
  5
386
100
AcDbEntity
  8
0
100
AcDbPolyline
 62
7
370
211
 90
2
 70
0
 10
17.02
 20
30.01
 10
17.32
 20
30.66
  0
LWPOLYLINE
  5
387
100
AcDbEntity
  8
0
100
AcDbPolyline
 62
7
370
211
 90
2
 70
0
 10
17.32
 20
30.66
 10
17.52
 20
33.91
  0
LWPOLYLINE
  5
388
100
AcDbEntity
  8
0
100
AcDbPolyline
 62
7
370
211
 90
2
 70
0
 10
23.75
 20
14.81
 10
22.75
 20
13.08
  0
LWPOLYLINE
  5
389
100
AcDbEntity
  8
0
100
AcDbPolyline
 62
7
370
211
 90
2
 70
0
 10
22.75
 20
13.08
 10
23.7
 20
11.11
  0
LWPOLYLINE
  5
38A
100
AcDbEntity
  8
0
100
AcDbPolyline
 62
7
370
211
 90
2
 70
0
 10
23.7
 20
11.11
 10
24.77
 20
10.96
  0
LWPOLYLINE
  5
38B
100
AcDbEntity
  8
0
100
AcDbPolyline
 62
7
370
211
 90
2
 70
0
 10
24.77
 20
10.96
 10
25.87
 20
10.91
  0
LWPOLYLINE
  5
38C
100
AcDbEntity
  8
0
100
AcDbPolyline
 62
7
370
211
 90
2
 70
0
 10
25.87
 20
10.91
 10
26.97
 20
10.91
  0
LWPOLYLINE
  5
38D
100
AcDbEntity
  8
0
100
AcDbPolyline
 62
7
370
211
 90
2
 70
0
 10
26.97
 20
10.91
 10
28.07
 20
11.01
  0
LWPOLYLINE
  5
38E
100
AcDbEntity
  8
0
100
AcDbPolyline
 62
7
370
211
 90
2
 70
0
 10
28.07
 20
11.01
 10
29.17
 20
11.21
  0
LWPOLYLINE
  5
38F
100
AcDbEntity
  8
0
100
AcDbPolyline
 62
7
370
211
 90
2
 70
0
 10
29.17
 20
11.21
 10
30.25
 20
11.46
  0
LWPOLYLINE
  5
390
100
AcDbEntity
  8
0
100
AcDbPolyline
 62
7
370
211
 90
2
 70
0
 10
30.25
 20
11.46
 10
31.3
 20
11.78
  0
LWPOLYLINE
  5
391
100
AcDbEntity
  8
0
100
AcDbPolyline
 62
7
370
211
 90
2
 70
0
 10
31.3
 20
11.78
 10
32.32
 20
12.18
  0
LWPOLYLINE
  5
392
100
AcDbEntity
  8
0
100
AcDbPolyline
 62
7
370
211
 90
2
 70
0
 10
32.32
 20
12.18
 10
33.3
 20
12.68
  0
LWPOLYLINE
  5
393
100
AcDbEntity
  8
0
100
AcDbPolyline
 62
7
370
211
 90
2
 70
0
 10
33.3
 20
12.68
 10
34.25
 20
13.23
  0
LWPOLYLINE
  5
394
100
AcDbEntity
  8
0
100
AcDbPolyline
 62
7
370
211
 90
2
 70
0
 10
34.25
 20
13.23
 10
35.17
 20
13.83
  0
LWPOLYLINE
  5
395
100
AcDbEntity
  8
0
100
AcDbPolyline
 62
7
370
211
 90
2
 70
0
 10
35.17
 20
13.83
 10
36.05
 20
14.53
  0
LWPOLYLINE
  5
396
100
AcDbEntity
  8
0
100
AcDbPolyline
 62
7
370
211
 90
2
 70
0
 10
36.05
 20
14.53
 10
36.85
 20
15.26
  0
LWPOLYLINE
  5
397
100
AcDbEntity
  8
0
100
AcDbPolyline
 62
7
370
211
 90
2
 70
0
 10
36.85
 20
15.26
 10
37.6
 20
16.06
  0
LWPOLYLINE
  5
398
100
AcDbEntity
  8
0
100
AcDbPolyline
 62
7
370
211
 90
2
 70
0
 10
37.6
 20
16.06
 10
38.3
 20
16.93
  0
LWPOLYLINE
  5
399
100
AcDbEntity
  8
0
100
AcDbPolyline
 62
7
370
211
 90
2
 70
0
 10
38.3
 20
16.93
 10
38.95
 20
17.83
  0
LWPOLYLINE
  5
39A
100
AcDbEntity
  8
0
100
AcDbPolyline
 62
7
370
211
 90
2
 70
0
 10
38.95
 20
17.83
 10
39.5
 20
18.76
  0
LWPOLYLINE
  5
39B
100
AcDbEntity
  8
0
100
AcDbPolyline
 62
7
370
211
 90
2
 70
0
 10
39.5
 20
18.76
 10
40
 20
19.76
  0
LWPOLYLINE
  5
39C
100
AcDbEntity
  8
0
100
AcDbPolyline
 62
7
370
211
 90
2
 70
0
 10
40
 20
19.76
 10
40.42
 20
20.76
  0
LWPOLYLINE
  5
39D
100
AcDbEntity
  8
0
100
AcDbPolyline
 62
7
370
211
 90
2
 70
0
 10
40.42
 20
20.76
 10
39.2
 20
22.56
  0
LWPOLYLINE
  5
39E
100
AcDbEntity
  8
0
100
AcDbPolyline
 62
7
370
211
 90
2
 70
0
 10
39.2
 20
22.56
 10
37.17
 20
22.56
  0
LWPOLYLINE
  5
39F
100
AcDbEntity
  8
0
100
AcDbPolyline
 62
7
370
211
 90
2
 70
0
 10
37.17
 20
22.56
 10
34.45
 20
20.76
  0
LWPOLYLINE
  5
3A0
100
AcDbEntity
  8
0
100
AcDbPolyline
 62
7
370
211
 90
2
 70
0
 10
34.45
 20
20.76
 10
34.05
 20
20.18
  0
LWPOLYLINE
  5
3A1
100
AcDbEntity
  8
0
100
AcDbPolyline
 62
7
370
211
 90
2
 70
0
 10
34.05
 20
20.18
 10
33.6
 20
19.63
  0
LWPOLYLINE
  5
3A2
100
AcDbEntity
  8
0
100
AcDbPolyline
 62
7
370
211
 90
2
 70
0
 10
33.6
 20
19.63
 10
33.1
 20
19.11
  0
LWPOLYLINE
  5
3A3
100
AcDbEntity
  8
0
100
AcDbPolyline
 62
7
370
211
 90
2
 70
0
 10
33.1
 20
19.11
 10
32.57
 20
18.61
  0
LWPOLYLINE
  5
3A4
100
AcDbEntity
  8
0
100
AcDbPolyline
 62
7
370
211
 90
2
 70
0
 10
32.57
 20
18.61
 10
32
 20
18.18
  0
LWPOLYLINE
  5
3A5
100
AcDbEntity
  8
0
100
AcDbPolyline
 62
7
370
211
 90
2
 70
0
 10
32
 20
18.18
 10
31.42
 20
17.78
  0
LWPOLYLINE
  5
3A6
100
AcDbEntity
  8
0
100
AcDbPolyline
 62
7
370
211
 90
2
 70
0
 10
31.42
 20
17.78
 10
30.8
 20
17.41
  0
LWPOLYLINE
  5
3A7
100
AcDbEntity
  8
0
100
AcDbPolyline
 62
7
370
211
 90
2
 70
0
 10
30.8
 20
17.41
 10
30.15
 20
17.11
  0
LWPOLYLINE
  5
3A8
100
AcDbEntity
  8
0
100
AcDbPolyline
 62
7
370
211
 90
2
 70
0
 10
30.15
 20
17.11
 10
29.47
 20
16.83
  0
LWPOLYLINE
  5
3A9
100
AcDbEntity
  8
0
100
AcDbPolyline
 62
7
370
211
 90
2
 70
0
 10
29.47
 20
16.83
 10
28.8
 20
16.63
  0
LWPOLYLINE
  5
3AA
100
AcDbEntity
  8
0
100
AcDbPolyline
 62
7
370
211
 90
2
 70
0
 10
28.8
 20
16.63
 10
28.1
 20
16.46
  0
LWPOLYLINE
  5
3AB
100
AcDbEntity
  8
0
100
AcDbPolyline
 62
7
370
211
 90
2
 70
0
 10
28.1
 20
16.46
 10
27.4
 20
16.33
  0
LWPOLYLINE
  5
3AC
100
AcDbEntity
  8
0
100
AcDbPolyline
 62
7
370
211
 90
2
 70
0
 10
27.4
 20
16.33
 10
26.67
 20
16.28
  0
LWPOLYLINE
  5
3AD
100
AcDbEntity
  8
0
100
AcDbPolyline
 62
7
370
211
 90
2
 70
0
 10
26.67
 20
16.28
 10
23.75
 20
14.81
  0
ENDSEC
  0
SECTION
  2
OBJECTS
  0
DICTIONARY
  5
 13
330
0
100
AcDbDictionary
281
     1
  3
ACAD_GROUP
350
 14
 3
ACAD_MLINESTYLE
350
 16
  3
ACAD_PLOTSETTINGS
350
 17
  3
ACAD_PLOTSTYLENAME
350
 18
  0
DICTIONARY
  5
 14
330
 13
100
AcDbDictionary
281
     1
  0
DICTIONARY
  5
 16
330
 13
100
AcDbDictionary
281
     1
  0
DICTIONARY
  5
 17
102
{ACAD_REACTORS
330
 13
102
}
330
 13
100
AcDbDictionary
281
     1
  0
ACDBDICTIONARYWDFLT
  5
 18
102
{ACAD_REACTORS
330
 13
102
}
330
 13
100
AcDbDictionary
281
     1
  3
Normal
350
 19
100
AcDbDictionaryWithDefault
340
 19
  0
ACDBPLACEHOLDER
  5
 19
102
{ACAD_REACTORS
330
 18
102
}
330
 18
  0
ENDSEC
  0
EOF
